<svg width="21" height="20" viewBox="0 0 21 20" fill="none" xmlns="http://www.w3.org/2000/svg">
<path d="M10.5013 18.9582C5.55964 18.9582 1.54297 14.9415 1.54297 9.99984C1.54297 5.05817 5.55964 1.0415 10.5013 1.0415C15.443 1.0415 19.4596 5.05817 19.4596 9.99984C19.4596 14.9415 15.443 18.9582 10.5013 18.9582ZM10.5013 2.2915C6.2513 2.2915 2.79297 5.74984 2.79297 9.99984C2.79297 14.2498 6.2513 17.7082 10.5013 17.7082C14.7513 17.7082 18.2096 14.2498 18.2096 9.99984C18.2096 5.74984 14.7513 2.2915 10.5013 2.2915Z" fill="white"/>
<path d="M13.8346 10.625H7.16797C6.8263 10.625 6.54297 10.3417 6.54297 10C6.54297 9.65833 6.8263 9.375 7.16797 9.375H13.8346C14.1763 9.375 14.4596 9.65833 14.4596 10C14.4596 10.3417 14.1763 10.625 13.8346 10.625Z" fill="white"/>
<path d="M10.5 13.9582C10.1583 13.9582 9.875 13.6748 9.875 13.3332V6.6665C9.875 6.32484 10.1583 6.0415 10.5 6.0415C10.8417 6.0415 11.125 6.32484 11.125 6.6665V13.3332C11.125 13.6748 10.8417 13.9582 10.5 13.9582Z" fill="white"/>
</svg>
