<svg width="16" height="16" viewBox="0 0 16 16" fill="none" xmlns="http://www.w3.org/2000/svg">
<path d="M7.9987 15.1668C4.04536 15.1668 0.832031 11.9535 0.832031 8.00016C0.832031 4.04683 4.04536 0.833496 7.9987 0.833496C11.952 0.833496 15.1654 4.04683 15.1654 8.00016C15.1654 11.9535 11.952 15.1668 7.9987 15.1668ZM7.9987 1.8335C4.5987 1.8335 1.83203 4.60016 1.83203 8.00016C1.83203 11.4002 4.5987 14.1668 7.9987 14.1668C11.3987 14.1668 14.1654 11.4002 14.1654 8.00016C14.1654 4.60016 11.3987 1.8335 7.9987 1.8335Z" fill="#B19276"/>
<path d="M10.6654 8.5H5.33203C5.0587 8.5 4.83203 8.27333 4.83203 8C4.83203 7.72667 5.0587 7.5 5.33203 7.5H10.6654C10.9387 7.5 11.1654 7.72667 11.1654 8C11.1654 8.27333 10.9387 8.5 10.6654 8.5Z" fill="#B19276"/>
<path d="M8 11.1668C7.72667 11.1668 7.5 10.9402 7.5 10.6668V5.3335C7.5 5.06016 7.72667 4.8335 8 4.8335C8.27333 4.8335 8.5 5.06016 8.5 5.3335V10.6668C8.5 10.9402 8.27333 11.1668 8 11.1668Z" fill="#B19276"/>
</svg>
