<svg width="16" height="16" viewBox="0 0 16 16" fill="none" xmlns="http://www.w3.org/2000/svg">
<path d="M6.38094 12.5467C6.25427 12.5467 6.1276 12.5001 6.0276 12.4001L1.98094 8.35341C1.7876 8.16008 1.7876 7.84008 1.98094 7.64675L6.0276 3.60008C6.22094 3.40674 6.54094 3.40674 6.73427 3.60008C6.9276 3.79341 6.9276 4.11341 6.73427 4.30674L3.04094 8.00008L6.73427 11.6934C6.9276 11.8867 6.9276 12.2067 6.73427 12.4001C6.64094 12.5001 6.5076 12.5467 6.38094 12.5467Z" fill="#B19276"/>
<path d="M13.6653 8.5H2.44531C2.17198 8.5 1.94531 8.27333 1.94531 8C1.94531 7.72667 2.17198 7.5 2.44531 7.5H13.6653C13.9386 7.5 14.1653 7.72667 14.1653 8C14.1653 8.27333 13.9386 8.5 13.6653 8.5Z" fill="#B19276"/>
</svg>
