<svg width="24" height="24" viewBox="0 0 24 24" fill="none" xmlns="http://www.w3.org/2000/svg">
<path d="M18.82 9.56988C18.82 9.75988 18.75 9.94988 18.6 10.0999C18.31 10.3899 17.83 10.3899 17.54 10.0999L12 4.55988L6.46 10.0999C6.17 10.3899 5.69 10.3899 5.4 10.0999C5.11 9.80988 5.11 9.32988 5.4 9.03988L11.47 2.96988C11.76 2.67988 12.24 2.67988 12.53 2.96988L18.6 9.03988C18.75 9.18988 18.82 9.37988 18.82 9.56988Z" fill="#6D6D74"/>
<path d="M12.75 3.67L12.75 20.5C12.75 20.91 12.41 21.25 12 21.25C11.59 21.25 11.25 20.91 11.25 20.5L11.25 3.67C11.25 3.26 11.59 2.92 12 2.92C12.41 2.92 12.75 3.26 12.75 3.67Z" fill="#6D6D74"/>
</svg>
