<svg width="20" height="20" viewBox="0 0 20 20" fill="none" xmlns="http://www.w3.org/2000/svg">
<path d="M10.0017 11.0834C9.89341 11.0834 9.78507 11.0584 9.68507 11.0001L2.32675 6.74175C2.02675 6.56675 1.92673 6.18339 2.10173 5.88339C2.27673 5.58339 2.65173 5.48337 2.96006 5.65837L10.0017 9.73339L17.0017 5.6834C17.3017 5.5084 17.6851 5.61675 17.8601 5.90841C18.0351 6.20841 17.9267 6.59172 17.6351 6.76672L10.3268 11.0001C10.2184 11.0501 10.1101 11.0834 10.0017 11.0834Z" fill="#B6B6B9"/>
<path d="M10 18.6333C9.65833 18.6333 9.375 18.35 9.375 18.0083V10.45C9.375 10.1083 9.65833 9.82495 10 9.82495C10.3417 9.82495 10.625 10.1083 10.625 10.45V18.0083C10.625 18.35 10.3417 18.6333 10 18.6333Z" fill="#B6B6B9"/>
<path d="M10.0005 18.9584C9.26718 18.9584 8.54217 18.8001 7.96717 18.4834L3.51718 16.0084C2.30884 15.3418 1.36719 13.7334 1.36719 12.3501V7.64173C1.36719 6.25839 2.30884 4.65843 3.51718 3.98343L7.96717 1.51675C9.10884 0.883415 10.8922 0.883415 12.0338 1.51675L16.4838 3.99172C17.6922 4.65839 18.6338 6.26674 18.6338 7.65007V12.3584C18.6338 13.7418 17.6922 15.3417 16.4838 16.0167L12.0338 18.4834C11.4588 18.8001 10.7338 18.9584 10.0005 18.9584ZM10.0005 2.29174C9.47551 2.29174 8.95885 2.40008 8.57552 2.60841L4.12552 5.08339C3.32552 5.53339 2.61719 6.72507 2.61719 7.65007V12.3584C2.61719 13.2751 3.32552 14.4751 4.12552 14.9251L8.57552 17.4001C9.33385 17.8251 10.6672 17.8251 11.4255 17.4001L15.8755 14.9251C16.6755 14.4751 17.3838 13.2834 17.3838 12.3584V7.65007C17.3838 6.7334 16.6755 5.53339 15.8755 5.08339L11.4255 2.60841C11.0422 2.40008 10.5255 2.29174 10.0005 2.29174Z" fill="#B6B6B9"/>
<path d="M14.165 11.6585C13.8234 11.6585 13.54 11.3751 13.54 11.0335V8.35014L5.94003 3.9668C5.64003 3.7918 5.54001 3.40845 5.71501 3.11679C5.89001 2.81679 6.26503 2.71677 6.56503 2.89177L14.4734 7.45847C14.665 7.56681 14.79 7.77511 14.79 8.00011V11.0501C14.79 11.3751 14.5067 11.6585 14.165 11.6585Z" fill="#B6B6B9"/>
</svg>
