<svg width="16" height="16" viewBox="0 0 16 16" fill="none" xmlns="http://www.w3.org/2000/svg">
<path d="M11.6333 15.1668C10.88 15.1668 10.0867 14.9868 9.26668 14.6402C8.46668 14.3002 7.66001 13.8335 6.87334 13.2668C6.09334 12.6935 5.34001 12.0535 4.62668 11.3535C3.92001 10.6402 3.28001 9.88683 2.71334 9.1135C2.14001 8.3135 1.68001 7.5135 1.35334 6.74016C1.00668 5.9135 0.833344 5.1135 0.833344 4.36016C0.833344 3.84016 0.926677 3.34683 1.10668 2.88683C1.29334 2.4135 1.59334 1.9735 2.00001 1.5935C2.51334 1.08683 3.10001 0.833496 3.72668 0.833496C3.98668 0.833496 4.25334 0.893496 4.48001 1.00016C4.74001 1.12016 4.96001 1.30016 5.12001 1.54016L6.66668 3.72016C6.80668 3.9135 6.91334 4.10016 6.98668 4.28683C7.07334 4.48683 7.12001 4.68683 7.12001 4.88016C7.12001 5.1335 7.04668 5.38016 6.90668 5.6135C6.80668 5.7935 6.65334 5.98683 6.46001 6.18016L6.00668 6.6535C6.01334 6.6735 6.02001 6.68683 6.02668 6.70016C6.10668 6.84016 6.26668 7.08016 6.57334 7.44016C6.90001 7.8135 7.20668 8.1535 7.51334 8.46683C7.90668 8.8535 8.23334 9.16016 8.54001 9.4135C8.92001 9.7335 9.16668 9.8935 9.31334 9.96683L9.30001 10.0002L9.78668 9.52016C9.99334 9.3135 10.1933 9.16016 10.3867 9.06016C10.7533 8.8335 11.22 8.7935 11.6867 8.98683C11.86 9.06016 12.0467 9.16016 12.2467 9.30016L14.46 10.8735C14.7067 11.0402 14.8867 11.2535 14.9933 11.5068C15.0933 11.7602 15.14 11.9935 15.14 12.2268C15.14 12.5468 15.0667 12.8668 14.9267 13.1668C14.7867 13.4668 14.6133 13.7268 14.3933 13.9668C14.0133 14.3868 13.6 14.6868 13.12 14.8802C12.66 15.0668 12.16 15.1668 11.6333 15.1668ZM3.72668 1.8335C3.36001 1.8335 3.02001 1.9935 2.69334 2.3135C2.38668 2.60016 2.17334 2.9135 2.04001 3.2535C1.90001 3.60016 1.83334 3.96683 1.83334 4.36016C1.83334 4.98016 1.98001 5.6535 2.27334 6.34683C2.57334 7.0535 2.99334 7.78683 3.52668 8.52016C4.06001 9.2535 4.66668 9.96683 5.33334 10.6402C6.00001 11.3002 6.72001 11.9135 7.46001 12.4535C8.18001 12.9802 8.92001 13.4068 9.65334 13.7135C10.7933 14.2002 11.86 14.3135 12.74 13.9468C13.08 13.8068 13.38 13.5935 13.6533 13.2868C13.8067 13.1202 13.9267 12.9402 14.0267 12.7268C14.1067 12.5602 14.1467 12.3868 14.1467 12.2135C14.1467 12.1068 14.1267 12.0002 14.0733 11.8802C14.0533 11.8402 14.0133 11.7668 13.8867 11.6802L11.6733 10.1068C11.54 10.0135 11.42 9.94683 11.3067 9.90016C11.16 9.84016 11.1 9.78016 10.8733 9.92016C10.74 9.98683 10.62 10.0868 10.4867 10.2202L9.98001 10.7202C9.72001 10.9735 9.32001 11.0335 9.01334 10.9202L8.83334 10.8402C8.56001 10.6935 8.24001 10.4668 7.88668 10.1668C7.56668 9.8935 7.22001 9.5735 6.80001 9.16016C6.47334 8.82683 6.14668 8.4735 5.80668 8.08016C5.49334 7.7135 5.26668 7.40016 5.12668 7.14016L5.04668 6.94016C5.00668 6.78683 4.99334 6.70016 4.99334 6.60683C4.99334 6.36683 5.08001 6.1535 5.24668 5.98683L5.74668 5.46683C5.88001 5.3335 5.98001 5.20683 6.04668 5.0935C6.10001 5.00683 6.12001 4.9335 6.12001 4.86683C6.12001 4.8135 6.10001 4.7335 6.06668 4.6535C6.02001 4.54683 5.94668 4.42683 5.85334 4.30016L4.30668 2.1135C4.24001 2.02016 4.16001 1.9535 4.06001 1.90683C3.95334 1.86016 3.84001 1.8335 3.72668 1.8335ZM9.30001 10.0068L9.19334 10.4602L9.37334 9.9935C9.34001 9.98683 9.31334 9.9935 9.30001 10.0068Z" fill="white"/>
<path d="M12.3333 6.49984C12.06 6.49984 11.8333 6.27317 11.8333 5.99984C11.8333 5.75984 11.5933 5.25984 11.1933 4.83317C10.8 4.41317 10.3667 4.1665 10 4.1665C9.72667 4.1665 9.5 3.93984 9.5 3.6665C9.5 3.39317 9.72667 3.1665 10 3.1665C10.6467 3.1665 11.3267 3.51317 11.92 4.1465C12.4733 4.73984 12.8333 5.4665 12.8333 5.99984C12.8333 6.27317 12.6067 6.49984 12.3333 6.49984Z" fill="white"/>
<path d="M14.6667 6.50016C14.3933 6.50016 14.1667 6.2735 14.1667 6.00016C14.1667 3.70016 12.3 1.8335 10 1.8335C9.72667 1.8335 9.5 1.60683 9.5 1.3335C9.5 1.06016 9.72667 0.833496 10 0.833496C12.8467 0.833496 15.1667 3.1535 15.1667 6.00016C15.1667 6.2735 14.94 6.50016 14.6667 6.50016Z" fill="white"/>
</svg>
