<svg width="24" height="24" viewBox="0 0 24 24" fill="none" xmlns="http://www.w3.org/2000/svg">
<path d="M3.93109 16.63C3.74109 16.63 3.55109 16.56 3.40109 16.41C3.11109 16.12 3.11109 15.64 3.40109 15.35L15.3511 3.4C15.6411 3.11 16.1211 3.11 16.4111 3.4C16.7011 3.69 16.7011 4.17 16.4111 4.46L4.46109 16.42C4.32109 16.56 4.12109 16.63 3.93109 16.63Z" fill="#B19276"/>
<path d="M11.0991 19.03C10.9091 19.03 10.7191 18.96 10.5691 18.81C10.2791 18.52 10.2791 18.04 10.5691 17.75L11.7691 16.55C12.0591 16.26 12.5391 16.26 12.8291 16.55C13.1191 16.84 13.1191 17.32 12.8291 17.61L11.6291 18.81C11.4891 18.95 11.2991 19.03 11.0991 19.03Z" fill="#B19276"/>
<path d="M13.7905 16.34C13.6005 16.34 13.4105 16.27 13.2605 16.12C12.9705 15.83 12.9705 15.35 13.2605 15.06L15.6505 12.67C15.9405 12.38 16.4205 12.38 16.7105 12.67C17.0005 12.96 17.0005 13.44 16.7105 13.73L14.3205 16.12C14.1805 16.26 13.9805 16.34 13.7905 16.34Z" fill="#B19276"/>
<path d="M11.0989 22.75C10.1189 22.75 9.13894 22.15 7.94894 20.96L3.03894 16.05C0.648937 13.66 0.658937 12.12 3.06894 9.71001L9.70894 3.07001C12.1189 0.660006 13.6589 0.650006 16.0489 3.04001L20.9589 7.95001C23.3489 10.34 23.3389 11.88 20.9289 14.29L14.2889 20.93C13.0789 22.14 12.0889 22.75 11.0989 22.75ZM12.8989 2.75001C12.3789 2.75001 11.7189 3.18001 10.7689 4.13001L4.12894 10.77C3.17894 11.72 2.74894 12.38 2.74894 12.89C2.74894 13.41 3.14894 14.04 4.09894 14.99L9.00894 19.9C9.95894 20.85 10.5789 21.25 11.0989 21.25C11.0989 21.25 11.0989 21.25 11.1089 21.25C11.6289 21.25 12.2789 20.82 13.2289 19.87L19.8689 13.23C20.8189 12.28 21.2489 11.62 21.2489 11.11C21.2489 10.59 20.8489 9.96001 19.8989 9.01001L14.9889 4.10001C14.0489 3.15001 13.4189 2.75001 12.8989 2.75001Z" fill="#B19276"/>
<path d="M22 22.75H2C1.59 22.75 1.25 22.41 1.25 22C1.25 21.59 1.59 21.25 2 21.25H22C22.41 21.25 22.75 21.59 22.75 22C22.75 22.41 22.41 22.75 22 22.75Z" fill="#B19276"/>
</svg>
