<svg width="12" height="12" viewBox="0 0 12 12" fill="none" xmlns="http://www.w3.org/2000/svg">
<path d="M4.58469 7.78999C4.48969 7.78999 4.39469 7.75499 4.31969 7.67999C4.17469 7.53499 4.17469 7.29499 4.31969 7.14999L7.14969 4.31999C7.29469 4.17499 7.53469 4.17499 7.67969 4.31999C7.82469 4.46499 7.82469 4.70499 7.67969 4.84999L4.84969 7.67999C4.77969 7.75499 4.67969 7.78999 4.58469 7.78999Z" fill="#54555D"/>
<path d="M7.41469 7.78999C7.31969 7.78999 7.22469 7.75499 7.14969 7.67999L4.31969 4.84999C4.17469 4.70499 4.17469 4.46499 4.31969 4.31999C4.46469 4.17499 4.70469 4.17499 4.84969 4.31999L7.67969 7.14999C7.82469 7.29499 7.82469 7.53499 7.67969 7.67999C7.60469 7.75499 7.50969 7.78999 7.41469 7.78999Z" fill="#23242E"/>
<path d="M7.5 11.375H4.5C1.785 11.375 0.625 10.215 0.625 7.5V4.5C0.625 1.785 1.785 0.625 4.5 0.625H7.5C10.215 0.625 11.375 1.785 11.375 4.5V7.5C11.375 10.215 10.215 11.375 7.5 11.375ZM4.5 1.375C2.195 1.375 1.375 2.195 1.375 4.5V7.5C1.375 9.805 2.195 10.625 4.5 10.625H7.5C9.805 10.625 10.625 9.805 10.625 7.5V4.5C10.625 2.195 9.805 1.375 7.5 1.375H4.5Z" fill="#23242E"/>
</svg>
