<svg width="16" height="16" viewBox="0 0 16 16" fill="none" xmlns="http://www.w3.org/2000/svg">
<path d="M7.9987 1.33325C4.32536 1.33325 1.33203 4.32659 1.33203 7.99992C1.33203 11.6733 4.32536 14.6666 7.9987 14.6666C11.672 14.6666 14.6654 11.6733 14.6654 7.99992C14.6654 4.32659 11.672 1.33325 7.9987 1.33325ZM10.2387 9.53325C10.432 9.72659 10.432 10.0466 10.2387 10.2399C10.1387 10.3399 10.012 10.3866 9.88536 10.3866C9.7587 10.3866 9.63203 10.3399 9.53203 10.2399L7.9987 8.70659L6.46536 10.2399C6.36536 10.3399 6.2387 10.3866 6.11203 10.3866C5.98536 10.3866 5.8587 10.3399 5.7587 10.2399C5.56536 10.0466 5.56536 9.72659 5.7587 9.53325L7.29203 7.99992L5.7587 6.46659C5.56536 6.27325 5.56536 5.95325 5.7587 5.75992C5.95203 5.56659 6.27203 5.56659 6.46536 5.75992L7.9987 7.29325L9.53203 5.75992C9.72536 5.56659 10.0454 5.56659 10.2387 5.75992C10.432 5.95325 10.432 6.27325 10.2387 6.46659L8.70537 7.99992L10.2387 9.53325Z" fill="#85858B"/>
</svg>
