<svg width="22" height="20" viewBox="0 0 22 20" fill="none" xmlns="http://www.w3.org/2000/svg">
<path d="M17.0072 0.272001C20.0792 0.272001 21.7432 1.488 21.7432 6.096C21.7432 16.528 20.4632 18 12.5272 19.216V14.224C16.9432 13.392 17.1352 13.072 17.1352 9.872C13.8712 9.872 12.2072 8.848 12.2072 5.328C12.2072 1.68 13.8712 0.272001 17.0072 0.272001ZM5.03925 0.272001C8.11125 0.272001 9.77525 1.488 9.77525 6.096C9.77525 16.528 8.49525 18 0.559248 19.216V14.224C4.97525 13.392 5.16725 13.072 5.16725 9.872C1.90325 9.872 0.239248 8.848 0.239248 5.328C0.239248 1.68 1.90325 0.272001 5.03925 0.272001Z" fill="#CECED1"/>
</svg>
