<svg width="20" height="20" viewBox="0 0 20 20" fill="none" xmlns="http://www.w3.org/2000/svg">
<path d="M9.18398 16.875H6.25065C5.62565 16.875 5.16732 16.85 4.77565 16.7917C2.00065 16.4833 1.45898 14.8333 1.45898 12.0833V7.91667C1.45898 5.16667 2.00898 3.50833 4.80065 3.2C5.16732 3.15 5.62565 3.125 6.25065 3.125H9.13398C9.47565 3.125 9.75898 3.40833 9.75898 3.75C9.75898 4.09167 9.47565 4.375 9.13398 4.375H6.25065C5.68398 4.375 5.28398 4.4 4.95898 4.44167C3.26732 4.625 2.70898 5.15833 2.70898 7.91667V12.0833C2.70898 14.8417 3.26732 15.3667 4.93398 15.5583C5.28398 15.6083 5.68398 15.625 6.25065 15.625H9.18398C9.52565 15.625 9.80898 15.9083 9.80898 16.25C9.80898 16.5917 9.52565 16.875 9.18398 16.875Z" fill="#B19276"/>
<path d="M13.7509 16.875H12.5176C12.1759 16.875 11.8926 16.5917 11.8926 16.25C11.8926 15.9083 12.1759 15.625 12.5176 15.625H13.7509C14.3176 15.625 14.7176 15.6 15.0426 15.5583C16.7342 15.375 17.2926 14.8417 17.2926 12.0833V7.91667C17.2926 5.15833 16.7342 4.63333 15.0676 4.44167C14.7176 4.39167 14.3176 4.375 13.7509 4.375H12.5176C12.1759 4.375 11.8926 4.09167 11.8926 3.75C11.8926 3.40833 12.1759 3.125 12.5176 3.125H13.7509C14.3759 3.125 14.8342 3.15 15.2259 3.20833C18.0009 3.51667 18.5426 5.16667 18.5426 7.91667V12.0833C18.5426 14.8333 17.9926 16.4917 15.2009 16.8C14.8342 16.85 14.3759 16.875 13.7509 16.875Z" fill="#B19276"/>
<path d="M12.5 18.9584C12.1583 18.9584 11.875 18.675 11.875 18.3334V1.66669C11.875 1.32502 12.1583 1.04169 12.5 1.04169C12.8417 1.04169 13.125 1.32502 13.125 1.66669V18.3334C13.125 18.675 12.8417 18.9584 12.5 18.9584Z" fill="#B19276"/>
<path d="M6.66602 13.5416C6.32435 13.5416 6.04102 13.2583 6.04102 12.9166V7.08331C6.04102 6.74165 6.32435 6.45831 6.66602 6.45831C7.00768 6.45831 7.29102 6.74165 7.29102 7.08331V12.9166C7.29102 13.2583 7.00768 13.5416 6.66602 13.5416Z" fill="#B19276"/>
</svg>
