<svg width="20" height="20" viewBox="0 0 20 20" fill="none" xmlns="http://www.w3.org/2000/svg">
<path d="M9.99996 18.9584C9.47496 18.9584 8.98329 18.7584 8.61662 18.3834L7.34997 17.1167C7.24997 17.0167 6.98329 16.9084 6.84996 16.9084H5.04996C3.96662 16.9084 3.09162 16.0333 3.09162 14.95V13.1501C3.09162 13.0167 2.98329 12.7501 2.88329 12.6501L1.61663 11.3834C1.24996 11.0167 1.04163 10.525 1.04163 10C1.04163 9.47503 1.24163 8.98334 1.61663 8.61667L2.88329 7.34999C2.98329 7.24999 3.09162 6.98334 3.09162 6.85001V5.05008C3.09162 3.96675 3.96662 3.09167 5.04996 3.09167H6.84996C6.98329 3.09167 7.24997 2.98333 7.34997 2.88333L8.61662 1.61665C9.34996 0.883317 10.65 0.883317 11.3833 1.61665L12.65 2.88333C12.75 2.98333 13.0166 3.09167 13.15 3.09167H14.95C16.0333 3.09167 16.9083 3.96675 16.9083 5.05008V6.85001C16.9083 6.98334 17.0166 7.24999 17.1166 7.34999L18.3833 8.61667C18.75 8.98334 18.9583 9.47503 18.9583 10C18.9583 10.525 18.7583 11.0167 18.3833 11.3834L17.1166 12.6501C17.0166 12.7501 16.9083 13.0167 16.9083 13.1501V14.95C16.9083 16.0333 16.0333 16.9084 14.95 16.9084H13.15C13.0166 16.9084 12.75 17.0167 12.65 17.1167L11.3833 18.3834C11.0166 18.7584 10.525 18.9584 9.99996 18.9584ZM3.76662 11.7667C4.09995 12.1 4.34162 12.6834 4.34162 13.1501V14.95C4.34162 15.3417 4.65829 15.6584 5.04996 15.6584H6.84996C7.31663 15.6584 7.89996 15.9 8.2333 16.2333L9.49995 17.5C9.76662 17.7667 10.2333 17.7667 10.5 17.5L11.7666 16.2333C12.1 15.9 12.6833 15.6584 13.15 15.6584H14.95C15.3416 15.6584 15.6583 15.3417 15.6583 14.95V13.1501C15.6583 12.6834 15.9 12.1 16.2333 11.7667L17.5 10.5C17.6333 10.3667 17.7083 10.1917 17.7083 10C17.7083 9.80837 17.6333 9.63339 17.5 9.50005L16.2333 8.23337C15.9 7.90004 15.6583 7.31668 15.6583 6.85001V5.05008C15.6583 4.65841 15.3416 4.34167 14.95 4.34167H13.15C12.6833 4.34167 12.1 4.10005 11.7666 3.76672L10.5 2.50003C10.2333 2.23337 9.76662 2.23337 9.49995 2.50003L8.2333 3.76672C7.89996 4.10005 7.31663 4.34167 6.84996 4.34167H5.04996C4.65829 4.34167 4.34162 4.65841 4.34162 5.05008V6.85001C4.34162 7.31668 4.09995 7.90004 3.76662 8.23337L2.49996 9.50005C2.36663 9.63339 2.29163 9.80837 2.29163 10C2.29163 10.1917 2.36663 10.3667 2.49996 10.5L3.76662 11.7667Z" fill="#3C3D45"/>
<path d="M12.5002 13.3334C12.0336 13.3334 11.6586 12.9584 11.6586 12.5001C11.6586 12.0417 12.0336 11.6667 12.4919 11.6667C12.9502 11.6667 13.3252 12.0417 13.3252 12.5001C13.3252 12.9584 12.9586 13.3334 12.5002 13.3334Z" fill="#3C3D45"/>
<path d="M7.5083 8.33341C7.04163 8.33341 6.66663 7.95841 6.66663 7.50008C6.66663 7.04175 7.04163 6.66675 7.49996 6.66675C7.95829 6.66675 8.33329 7.04175 8.33329 7.50008C8.33329 7.95841 7.96663 8.33341 7.5083 8.33341Z" fill="#3C3D45"/>
<path d="M7.49999 13.1249C7.34166 13.1249 7.18333 13.0666 7.05833 12.9416C6.81666 12.6999 6.81666 12.2999 7.05833 12.0582L12.0583 7.0582C12.3 6.81654 12.7 6.81654 12.9417 7.0582C13.1833 7.29987 13.1833 7.69992 12.9417 7.94159L7.94166 12.9416C7.81666 13.0666 7.65832 13.1249 7.49999 13.1249Z" fill="#3C3D45"/>
</svg>
