<svg width="20" height="20" viewBox="0 0 20 20" fill="none" xmlns="http://www.w3.org/2000/svg">
<path d="M4.21168 2.7047C4.15679 2.64283 4.09017 2.59246 4.01568 2.55653C3.94119 2.5206 3.8603 2.49981 3.77772 2.49536C3.69513 2.49092 3.61248 2.50291 3.53456 2.53065C3.45664 2.55838 3.38501 2.6013 3.3238 2.65693C3.26259 2.71255 3.21303 2.77977 3.17799 2.85469C3.14296 2.92961 3.12314 3.01074 3.11969 3.09337C3.11623 3.17601 3.12922 3.25851 3.15788 3.33609C3.18655 3.41367 3.23033 3.48478 3.28668 3.54532L5.05543 5.49141C3.77418 7.42188 3.12418 9.35782 3.12418 11.25C3.12425 12.6002 3.52191 13.9206 4.26756 15.0463C5.01321 16.1719 6.07382 17.0531 7.31707 17.5799C8.56032 18.1067 9.93116 18.2557 11.2586 18.0083C12.5859 17.761 13.8111 17.1283 14.7812 16.1891L15.7867 17.2953C15.8416 17.3572 15.9082 17.4076 15.9827 17.4435C16.0572 17.4794 16.1381 17.5002 16.2206 17.5047C16.3032 17.5091 16.3859 17.4971 16.4638 17.4694C16.5417 17.4416 16.6134 17.3987 16.6746 17.3431C16.7358 17.2875 16.7853 17.2202 16.8204 17.1453C16.8554 17.0704 16.8752 16.9893 16.8787 16.9066C16.8821 16.824 16.8691 16.7415 16.8405 16.6639C16.8118 16.5864 16.768 16.5152 16.7117 16.4547L4.21168 2.7047ZM9.99918 16.875C8.50785 16.8734 7.07807 16.2802 6.02353 15.2257C4.969 14.1711 4.37583 12.7413 4.37418 11.25C4.37418 9.69298 4.89606 8.08048 5.92574 6.44845L13.939 15.2625C12.8885 16.2965 11.4733 16.8757 9.99918 16.875ZM7.03043 3.9461C6.91047 3.83172 6.84085 3.67438 6.8369 3.50867C6.83294 3.34297 6.89497 3.18248 7.00934 3.06251C7.81422 2.20968 8.69492 1.43174 9.64059 0.738289C9.74568 0.664673 9.87087 0.625183 9.99918 0.625183C10.1275 0.625183 10.2527 0.664673 10.3578 0.738289C10.6242 0.924227 16.8742 5.3672 16.8742 11.25C16.8746 11.8677 16.7918 12.4826 16.6281 13.0781C16.5918 13.2101 16.5133 13.3265 16.4044 13.4095C16.2956 13.4925 16.1626 13.5374 16.0257 13.5375C15.9693 13.538 15.913 13.5306 15.8586 13.5156C15.6988 13.4716 15.5631 13.366 15.4813 13.222C15.3994 13.078 15.378 12.9074 15.4218 12.7477C15.5558 12.2597 15.6239 11.756 15.6242 11.25C15.6242 6.77813 11.2898 3.04688 9.99918 2.03126C9.26068 2.6118 8.56463 3.2444 7.91637 3.92423C7.85975 3.98403 7.79187 4.03205 7.71663 4.06553C7.64139 4.09902 7.56027 4.1173 7.47795 4.11933C7.39562 4.12136 7.3137 4.10711 7.2369 4.07738C7.1601 4.04765 7.08993 4.00304 7.03043 3.9461Z" fill="#9D9EA2"/>
</svg>
