<svg width="180" height="162" viewBox="0 0 180 162" fill="none" xmlns="http://www.w3.org/2000/svg">
<g clip-path="url(#clip0_1902_31122)">
<path d="M59.5456 123.525C58.8177 123.586 58.1151 123.82 57.4972 124.207L37.1968 136.951C36.5821 137.335 35.8834 137.567 35.1596 137.628C34.4359 137.688 33.7082 137.574 33.0378 137.296C32.3674 137.018 31.774 136.584 31.3074 136.031C30.8409 135.477 30.5149 134.82 30.3568 134.115L10.3408 44.5766C10.1426 43.6825 10.2225 42.7495 10.5701 41.9016C10.9176 41.0537 11.5163 40.331 12.2866 39.8294L33.0856 26.2966C33.5256 26.0094 34.0131 25.8015 34.5256 25.6826L36.1186 31.9192C35.2054 31.7758 34.2711 31.9755 33.4978 32.4795L17.944 42.5986C17.3078 43.0134 16.8136 43.611 16.5274 44.312C16.2412 45.013 16.1766 45.784 16.342 46.5224L34.2214 126.538C34.3519 127.12 34.6213 127.663 35.0069 128.121C35.3925 128.578 35.883 128.936 36.4371 129.166C36.9912 129.395 37.5926 129.489 38.1906 129.439C38.7887 129.388 39.3658 129.196 39.8734 128.878L54.5956 119.634C55.6941 118.946 56.9169 118.478 58.1956 118.255L59.5456 123.525Z" fill="url(#paint0_linear_1902_31122)"/>
<path d="M114.483 119.051L101.174 135.06C100.72 135.602 100.144 136.03 99.4925 136.31C98.8412 136.59 98.1329 136.713 97.4247 136.671L95.8047 130.415C96.4177 130.479 97.0373 130.392 97.6081 130.16C98.1788 129.928 98.6829 129.559 99.0753 129.086L111.582 114.061C111.843 114.061 112.104 114.043 112.365 114.03L114.165 118.448C114.248 118.66 114.355 118.863 114.483 119.051Z" fill="url(#paint1_linear_1902_31122)"/>
<path d="M118.734 19.2027C117.89 19.2418 117.085 19.5643 116.45 20.1175L80.0142 51.7692C78.8528 52.778 77.4721 53.5053 75.9804 53.894L74.625 48.6617C75.2964 48.4866 75.918 48.1595 76.4412 47.7058L114.904 14.2872C115.611 13.6699 116.496 13.2881 117.433 13.1953L118.734 19.2027Z" fill="url(#paint2_linear_1902_31122)"/>
<path d="M58.1968 118.258C56.9181 118.481 55.6953 118.949 54.5968 119.637L39.8746 128.88C39.3668 129.2 38.789 129.394 38.1901 129.445C37.5911 129.496 36.9886 129.403 36.4336 129.173C35.8785 128.944 35.3871 128.585 35.001 128.127C34.6149 127.668 34.3455 127.125 34.2154 126.541L29.9332 107.36L29.1844 104.009L22.7044 75.0428L21.8602 71.2676L16.3396 46.5218C16.1742 45.7834 16.2388 45.0123 16.525 44.3114C16.8112 43.6104 17.3054 43.0128 17.9416 42.598L33.4954 32.4788C34.2675 31.9735 35.2011 31.7718 36.1144 31.9132L43.3648 60.2623L44.4448 64.4761L50.8816 89.646L51.9202 93.7095L58.1968 118.258Z" fill="url(#paint3_linear_1902_31122)"/>
<path d="M127.674 60.5137C122.302 56.8232 115.852 55.0054 109.332 55.344C108.091 55.4077 106.855 55.5512 105.633 55.7736C104.468 55.983 103.317 56.2627 102.186 56.6114C101.383 56.8584 100.585 57.1412 99.7918 57.4599C95.4449 59.2146 91.58 61.9723 88.516 65.5052C85.452 69.0381 83.2767 73.2451 82.1698 77.7788L81.3346 74.5567L77.7346 60.6283L75.9922 53.9012C77.4839 53.5125 78.8646 52.7852 80.026 51.7764L100.175 34.2715L102.549 32.2093L116.462 20.1247C117.097 19.5715 117.902 19.249 118.746 19.21L124.754 47.0149L125.642 51.1141L127.042 57.5887L127.674 60.5137Z" fill="url(#paint4_linear_1902_31122)"/>
<path d="M111.58 114.066L99.0736 129.092C98.6812 129.565 98.1771 129.934 97.6063 130.165C97.0356 130.397 96.416 130.485 95.803 130.42L89.1016 104.545C91.9523 107.63 95.4319 110.075 99.308 111.717C103.184 113.359 107.368 114.16 111.58 114.066Z" fill="url(#paint5_linear_1902_31122)"/>
<path d="M97.4245 136.671C96.9763 136.648 96.5341 136.559 96.1123 136.406L61.4731 123.783C60.8555 123.56 60.1968 123.471 59.5417 123.523L58.1953 118.257C58.7621 118.156 59.3368 118.106 59.9125 118.107C61.083 118.106 62.2443 118.311 63.3433 118.712L94.9027 130.213C95.1926 130.319 95.4951 130.388 95.8027 130.419L97.4245 136.671Z" fill="url(#paint6_linear_1902_31122)"/>
<path d="M95.8052 130.421C95.4976 130.391 95.1951 130.321 94.9052 130.215L63.3458 118.714C62.2468 118.313 61.0854 118.109 59.915 118.109C59.3392 118.108 58.7646 118.159 58.1978 118.259L51.9212 93.7104L50.8826 89.6469L49.8026 85.4206L44.9606 66.5015L44.444 64.4805L43.364 60.2668L36.1172 31.9141C36.6538 31.9951 37.1662 32.1918 37.6184 32.4905L46.4564 38.3439L51.302 41.5499L67.943 52.5588C69.1133 53.3321 70.4348 53.8508 71.8207 54.0809C73.2067 54.3111 74.6259 54.2474 75.9854 53.8942L77.7278 60.6212L81.3278 74.5496L82.163 77.7717C82.1288 77.9095 82.0964 78.0456 82.0658 78.1834C81.0119 82.8147 81.1007 87.6308 82.3248 92.2204C83.5488 96.8101 85.8716 101.037 89.0948 104.54L95.8052 130.421Z" fill="url(#paint7_linear_1902_31122)"/>
<path d="M75.9786 53.8939C74.6191 54.2472 73.1999 54.3108 71.814 54.0807C70.428 53.8506 69.1066 53.3319 67.9362 52.5585L37.6098 32.4902C37.1579 32.1903 36.6456 31.9924 36.1086 31.9103L34.5156 25.6737C35.1201 25.5309 35.7476 25.5133 36.3592 25.622C36.9708 25.7307 37.5533 25.9634 38.0706 26.3056L70.944 48.0637C71.4796 48.4172 72.0845 48.6536 72.7187 48.7573C73.3529 48.8609 74.0021 48.8296 74.6232 48.6652L75.9786 53.8939Z" fill="url(#paint8_linear_1902_31122)"/>
<path d="M163.975 103.679L138.118 96.0766C138.82 94.4125 139.368 92.6881 139.756 90.9248L158.019 96.295C158.641 96.4768 159.3 96.4947 159.932 96.3468C160.563 96.199 161.145 95.8905 161.621 95.4515C162.096 95.0126 162.449 94.4582 162.644 93.8429C162.84 93.2276 162.871 92.5724 162.735 91.9416L158.595 72.788L157.695 68.6494L155.799 59.8996L154.899 55.7395L149.636 31.4574C149.499 30.8335 149.203 30.2552 148.776 29.7778C148.35 29.3004 147.807 28.94 147.201 28.7311L120.143 19.4032C119.692 19.247 119.216 19.1789 118.739 19.2027L117.438 13.1952C118.093 13.13 118.754 13.2076 119.376 13.4226L151.447 24.469C152.183 24.7224 152.841 25.16 153.358 25.7397C153.874 26.3194 154.232 27.0216 154.397 27.7788L169.697 98.4055C169.862 99.1706 169.825 99.9654 169.588 100.712C169.351 101.458 168.923 102.13 168.345 102.662C167.768 103.194 167.062 103.568 166.295 103.746C165.529 103.924 164.729 103.901 163.975 103.679Z" fill="url(#paint9_linear_1902_31122)"/>
<path d="M158.014 96.2952L139.751 90.925C140.876 85.7612 140.582 80.3912 138.899 75.3797C137.216 70.3681 134.206 65.9 130.186 62.4452L127.904 61.5985L127.67 60.5138L127.038 57.5888L125.637 51.107L124.75 47.015L118.734 19.2029C119.211 19.1791 119.688 19.2472 120.138 19.4034L147.196 28.7313C147.804 28.941 148.347 29.3028 148.774 29.7818C149.2 30.2609 149.496 30.8411 149.631 31.4665L154.893 55.7504L155.793 59.9105L157.69 68.6496L158.59 72.7828L162.73 91.9364C162.867 92.5676 162.837 93.2235 162.642 93.8396C162.448 94.4557 162.095 95.0108 161.619 95.4505C161.144 95.8902 160.561 96.1992 159.929 96.3473C159.297 96.4954 158.637 96.4774 158.014 96.2952Z" fill="url(#paint10_linear_1902_31122)"/>
<path d="M69.725 78.6055L73.8254 98.9548C73.8671 99.1607 73.8537 99.3739 73.7867 99.5731C73.7197 99.7723 73.6013 99.9505 73.4434 100.09C73.2854 100.229 73.0935 100.325 72.8867 100.368C72.6799 100.411 72.4655 100.399 72.2648 100.333L52.184 93.7637C52.0976 93.7355 52.0082 93.7175 51.9176 93.71C51.6514 93.6845 51.3843 93.7474 51.158 93.889L29.9306 107.361L29.1818 104.01L50.5928 89.7879C50.6842 89.7287 50.7828 89.6812 50.8862 89.6465C51.1311 89.566 51.3955 89.566 51.6404 89.6465L67.3166 94.7715C67.5171 94.8368 67.7313 94.8488 67.9379 94.8062C68.1446 94.7636 68.3363 94.6679 68.4942 94.5287C68.6521 94.3894 68.7705 94.2115 68.8377 94.0126C68.9049 93.8136 68.9185 93.6007 68.8772 93.3949L65.1278 74.8267C65.0917 74.644 65.013 74.4724 64.8979 74.3256C64.7828 74.1789 64.6347 74.0611 64.4654 73.9818L44.4404 64.4766L44.4098 64.4622C44.2407 64.3819 44.0552 64.3416 43.8679 64.3444C43.6805 64.3472 43.4964 64.393 43.3298 64.4784L22.7036 75.0397L21.8594 71.2645L43.2668 60.3004L43.355 60.2592C43.5115 60.195 43.6798 60.1641 43.849 60.1685C44.0183 60.1728 44.1848 60.2122 44.3378 60.2843L52.5386 64.174C52.7513 64.275 52.9891 64.3118 53.2226 64.2799C53.4562 64.2481 53.6752 64.149 53.8528 63.9948C54.0304 63.8407 54.1587 63.6382 54.222 63.4125C54.2853 63.1867 54.2808 62.9474 54.209 62.7241L46.4996 38.9164C46.4372 38.7308 46.4217 38.5329 46.4546 38.34L51.3002 41.546L59.5802 67.0954C59.6313 67.2506 59.7132 67.3939 59.8211 67.5169C59.929 67.6399 60.0607 67.7401 60.2084 67.8114L82.0334 78.1723L82.0712 78.1884C81.7802 79.458 81.5745 80.7455 81.4556 82.0424L71.4278 77.2862C71.2255 77.1907 71.0005 77.1529 70.7779 77.1772C70.5554 77.2015 70.3439 77.2868 70.1673 77.4236C69.9906 77.5605 69.8557 77.7435 69.7776 77.9522C69.6995 78.1609 69.6813 78.3871 69.725 78.6055Z" fill="url(#paint11_linear_1902_31122)"/>
<path d="M109.336 55.3432C108.095 55.4069 106.859 55.5504 105.637 55.7728L100.172 34.2653L102.546 32.2031C102.756 32.3617 102.908 32.5843 102.978 32.8368L109.336 55.3432Z" fill="url(#paint12_linear_1902_31122)"/>
<path d="M155.798 59.9015C155.664 59.9072 155.53 59.8903 155.402 59.8513L126.129 51.1553C125.946 51.1007 125.753 51.0897 125.565 51.1233C125.378 51.1569 125.201 51.2341 125.049 51.3486L118.705 56.1191C118.633 56.1719 118.566 56.2318 118.506 56.2981C116.836 55.8506 115.129 55.551 113.406 55.4031L124.305 47.2153C124.438 47.1133 124.592 47.0418 124.755 47.0059C124.959 46.9566 125.173 46.9622 125.374 47.022L154.894 55.7324L155.798 59.9015Z" fill="url(#paint13_linear_1902_31122)"/>
<path d="M158.593 72.7837C158.372 72.8304 158.142 72.8118 157.932 72.73L130.189 62.4443L127.906 61.5977L127.672 60.5129C126.231 59.5244 124.704 58.6654 123.109 57.9459L127.041 57.5879L127.419 57.5521C127.602 57.5351 127.786 57.5596 127.959 57.6237L157.693 68.6487L158.593 72.7837Z" fill="url(#paint14_linear_1902_31122)"/>
<path d="M49.7986 85.4201C49.5009 85.4455 49.2159 85.5513 48.9742 85.7262L33.1936 97.0876C32.9701 97.2491 32.7095 97.3524 32.4355 97.3881C32.1616 97.4239 31.883 97.391 31.6251 97.2925C31.3672 97.194 31.1382 97.0329 30.9588 96.8239C30.7794 96.615 30.6554 96.3647 30.598 96.096L26.458 76.8421C26.3817 76.4844 26.4269 76.1116 26.5865 75.7821C26.7462 75.4527 27.0112 75.1852 27.34 75.0216L44.161 66.6674C44.4063 66.545 44.6788 66.4864 44.953 66.4974L49.7986 85.4201Z" fill="url(#paint15_linear_1902_31122)"/>
<path d="M59.4953 89.292L50.5889 85.5436C50.3368 85.4356 50.0611 85.3931 49.7879 85.4201L44.9531 66.501C45.1939 66.5099 45.4298 66.571 45.6443 66.68L58.7843 73.2083C59.0205 73.3255 59.2252 73.4968 59.3817 73.7081C59.5382 73.9194 59.6419 74.1647 59.6843 74.4238L61.7939 87.5234C61.8396 87.815 61.8057 88.1135 61.6959 88.3877C61.5861 88.6619 61.4043 88.9018 61.1696 89.0825C60.9349 89.2631 60.6557 89.3778 60.3612 89.4146C60.0668 89.4515 59.7677 89.4091 59.4953 89.292Z" fill="url(#paint16_linear_1902_31122)"/>
<path d="M59.5348 99.4382L83.2732 105.909C83.5394 105.982 83.7813 106.125 83.9742 106.321C84.1671 106.518 84.3041 106.762 84.3712 107.028L87.982 121.502C88.0509 121.779 88.0415 122.07 87.9547 122.342C87.868 122.614 87.7073 122.856 87.4904 123.043C87.2736 123.23 87.009 123.353 86.726 123.4C86.443 123.446 86.1526 123.414 85.8868 123.307L62.4706 113.834C62.2644 113.751 62.0785 113.624 61.9257 113.463C61.7729 113.302 61.6567 113.111 61.585 112.901L57.661 101.43C57.5703 101.165 57.5537 100.881 57.613 100.607C57.6722 100.333 57.8051 100.08 57.9975 99.8759C58.1899 99.6713 58.4345 99.5226 58.7053 99.4455C58.976 99.3684 59.2627 99.3659 59.5348 99.4382Z" fill="url(#paint17_linear_1902_31122)"/>
<path d="M102.185 56.6109C101.382 56.8579 100.584 57.1407 99.791 57.4593C92.6104 60.3411 86.8606 65.9202 83.7872 72.9881L82.1672 74.2286C81.9251 74.4158 81.6325 74.5274 81.3266 74.549L77.7266 60.6206C78.0569 60.5979 78.3717 60.4727 78.6266 60.2626L97.298 44.5835C97.5034 44.4116 97.75 44.2956 98.0139 44.2468C98.2778 44.1979 98.55 44.2179 98.8038 44.3048C99.0576 44.3918 99.2844 44.5426 99.4622 44.7426C99.6399 44.9427 99.7625 45.1851 99.818 45.4463L102.185 56.6109Z" fill="url(#paint18_linear_1902_31122)"/>
<path d="M81.332 74.5569C81.0551 74.5752 80.7783 74.5209 80.5292 74.3994L63.134 65.7856C62.776 65.6093 62.5006 65.302 62.3654 64.9282L58.1174 53.3358C58.0092 53.0405 57.9941 52.7194 58.074 52.4153C58.1539 52.1112 58.3251 51.8385 58.5648 51.6336C58.8045 51.4287 59.1012 51.3013 59.4155 51.2683C59.7299 51.2353 60.0468 51.2984 60.3242 51.4491L76.8716 60.4351C77.1329 60.5749 77.429 60.637 77.7248 60.6142L81.332 74.5569Z" fill="url(#paint19_linear_1902_31122)"/>
<path d="M129.236 25.7295L144.819 30.8956C145.089 30.9846 145.331 31.1406 145.524 31.3489C145.716 31.5572 145.852 31.8109 145.919 32.086L149.63 47.3605C149.7 47.6496 149.69 47.952 149.603 48.2362C149.515 48.5205 149.353 48.7763 149.133 48.9772C148.912 49.178 148.642 49.3166 148.35 49.3786C148.057 49.4406 147.754 49.4237 147.47 49.3296L128.993 43.2112C128.719 43.1201 128.473 42.9602 128.28 42.7469C128.086 42.5337 127.951 42.2743 127.888 41.9939L125.06 29.4832C124.937 28.928 124.964 28.3503 125.138 27.8088C125.313 27.2674 125.628 26.7813 126.052 26.4001C126.476 26.0189 126.994 25.756 127.553 25.6383C128.112 25.5205 128.693 25.552 129.236 25.7295Z" fill="url(#paint20_linear_1902_31122)"/>
<path d="M138.586 146.984L134.592 148.595C134.2 148.753 133.781 148.832 133.359 148.829C132.936 148.826 132.518 148.74 132.129 148.577C131.74 148.413 131.387 148.174 131.091 147.875C130.794 147.576 130.56 147.221 130.401 146.832L119.391 119.802L129.348 115.792L140.361 142.822C140.679 143.608 140.67 144.487 140.338 145.267C140.005 146.048 139.375 146.665 138.586 146.984Z" fill="url(#paint21_linear_1902_31122)"/>
<path d="M130.383 115.37L129.344 115.788L119.387 119.798L118.348 120.217C117.957 120.375 117.538 120.455 117.115 120.452C116.693 120.448 116.275 120.362 115.886 120.199C115.497 120.035 115.145 119.797 114.848 119.497C114.552 119.198 114.318 118.843 114.159 118.454L112.359 114.038C119.007 113.698 125.347 111.144 130.359 106.788L132.159 111.202C132.479 111.989 132.471 112.87 132.138 113.652C131.805 114.433 131.174 115.051 130.383 115.37Z" fill="#B1B8BC"/>
<path d="M138.262 73.6615C135.908 67.8947 131.772 63.0213 126.451 59.7448C121.13 56.4683 114.899 54.9585 108.659 55.4332C102.419 55.9079 96.4916 58.3427 91.7336 62.386C86.9756 66.4292 83.6328 71.8717 82.188 77.9275C80.7432 83.9833 81.2712 90.339 83.6956 96.077C86.12 101.815 90.3155 106.638 95.6762 109.85C101.037 113.062 107.285 114.497 113.519 113.947C119.753 113.397 125.65 110.89 130.359 106.79C134.972 102.768 138.212 97.4171 139.628 91.4805C141.044 85.5439 140.567 79.3161 138.262 73.6615ZM124.242 100.333C124.14 100.421 124.037 100.512 123.933 100.589C123.828 100.666 123.724 100.768 123.618 100.84C123.511 100.912 123.421 100.994 123.321 101.067C123.303 101.082 123.284 101.096 123.265 101.108C123.171 101.18 123.085 101.248 122.982 101.316L122.953 101.336C122.856 101.407 122.759 101.475 122.66 101.542C122.647 101.553 122.632 101.563 122.617 101.572C122.514 101.644 122.41 101.715 122.304 101.783C122.219 101.841 122.124 101.896 122.046 101.95L121.917 102.034C121.821 102.093 121.728 102.152 121.63 102.213C121.624 102.218 121.618 102.221 121.611 102.224C121.521 102.279 121.431 102.333 121.339 102.385C121.195 102.471 121.049 102.553 120.903 102.632C120.811 102.684 120.723 102.734 120.624 102.782C120.57 102.813 120.514 102.841 120.459 102.87C120.117 103.049 119.768 103.218 119.413 103.376C119.157 103.493 118.898 103.602 118.637 103.708C118.506 103.761 118.372 103.813 118.239 103.863L117.897 103.989L117.813 104.019L117.57 104.103C117.485 104.134 117.4 104.162 117.314 104.189L117.134 104.248C116.997 104.291 116.859 104.334 116.722 104.374C116.585 104.413 116.457 104.45 116.326 104.484C116.014 104.572 115.705 104.649 115.392 104.717C115.314 104.735 115.237 104.753 115.159 104.767C115.051 104.792 114.945 104.814 114.837 104.834L114.762 104.848C114.641 104.871 114.52 104.894 114.402 104.914C114.083 104.97 113.763 105.016 113.444 105.056C113.334 105.07 113.226 105.084 113.118 105.095L113.001 105.107L112.677 105.138H112.58L112.288 105.159H112.247C107.355 105.477 102.508 104.052 98.577 101.139C94.6455 98.2256 91.8857 94.0153 90.7923 89.2624C89.699 84.5095 90.3435 79.5247 92.6103 75.2014C94.8772 70.8782 98.6182 67.4991 103.163 65.6699C107.708 63.8407 112.759 63.6809 117.411 65.2191C122.063 66.7573 126.013 69.8931 128.552 74.0643C131.09 78.2354 132.052 83.1694 131.265 87.9818C130.477 92.7942 127.992 97.1705 124.255 100.326L124.242 100.333Z" fill="url(#paint22_linear_1902_31122)"/>
<path d="M124.247 100.334C120.923 103.143 116.789 104.833 112.44 105.16C108.09 105.487 103.748 104.435 100.037 102.155C96.3266 99.8747 93.4379 96.4835 91.7863 92.4686C90.1346 88.4536 89.805 84.0214 90.8446 79.8084C91.8843 75.5955 94.2398 71.8186 97.5729 69.0202C100.906 66.2218 105.045 64.5459 109.396 64.2331C113.746 63.9203 118.085 64.9868 121.788 67.2794C125.491 69.572 128.368 72.9727 130.007 76.9932C131.644 80.9907 131.968 85.4006 130.934 89.5926C129.899 93.7846 127.559 97.544 124.247 100.334Z" fill="url(#paint23_linear_1902_31122)"/>
<path d="M122.249 91.6017C122.527 91.8779 122.682 92.2523 122.682 92.6426C122.682 93.0329 122.527 93.4073 122.249 93.6835L119.173 96.7391C119.036 96.8759 118.873 96.9843 118.693 97.0583C118.514 97.1323 118.322 97.1704 118.127 97.1704C117.933 97.1704 117.741 97.1323 117.561 97.0583C117.382 96.9843 117.219 96.8759 117.082 96.7391L110.782 90.474L104.482 96.7391C104.344 96.8759 104.181 96.9843 104.002 97.0583C103.822 97.1323 103.63 97.1704 103.436 97.1704C103.242 97.1704 103.049 97.1323 102.87 97.0583C102.69 96.9843 102.527 96.8759 102.39 96.7391L99.3174 93.6835C99.1796 93.547 99.0703 93.3848 98.9958 93.2061C98.9212 93.0275 98.8828 92.836 98.8828 92.6426C98.8828 92.4492 98.9212 92.2577 98.9958 92.0791C99.0703 91.9004 99.1796 91.7382 99.3174 91.6017L105.617 85.3365L99.3174 79.0713C99.1797 78.9349 99.0704 78.7729 98.9959 78.5944C98.9213 78.4159 98.883 78.2245 98.883 78.0313C98.883 77.838 98.9213 77.6467 98.9959 77.4682C99.0704 77.2897 99.1797 77.1276 99.3174 76.9913L102.39 73.9374C102.527 73.8001 102.69 73.691 102.869 73.6166C103.049 73.5422 103.241 73.5039 103.436 73.5039C103.63 73.5039 103.823 73.5422 104.002 73.6166C104.182 73.691 104.345 73.8001 104.482 73.9374L110.782 80.2026L117.082 73.9374C117.218 73.8001 117.381 73.691 117.561 73.6166C117.74 73.5422 117.933 73.5039 118.127 73.5039C118.322 73.5039 118.514 73.5422 118.694 73.6166C118.873 73.691 119.036 73.8001 119.173 73.9374L122.248 76.9913C122.385 77.1278 122.494 77.2899 122.569 77.4683C122.643 77.6468 122.681 77.8381 122.681 78.0313C122.681 78.2245 122.643 78.4158 122.569 78.5942C122.494 78.7727 122.385 78.9348 122.248 79.0713L115.948 85.3365L122.249 91.6017Z" fill="url(#paint24_linear_1902_31122)"/>
<path d="M61.9265 136.846C63.2407 136.846 64.3061 135.787 64.3061 134.48C64.3061 133.173 63.2407 132.113 61.9265 132.113C60.6123 132.113 59.5469 133.173 59.5469 134.48C59.5469 135.787 60.6123 136.846 61.9265 136.846Z" fill="url(#paint25_linear_1902_31122)"/>
<path d="M76.6471 144.702C78.7735 144.702 80.4973 142.988 80.4973 140.873C80.4973 138.758 78.7735 137.044 76.6471 137.044C74.5207 137.044 72.7969 138.758 72.7969 140.873C72.7969 142.988 74.5207 144.702 76.6471 144.702Z" fill="url(#paint26_linear_1902_31122)"/>
<path d="M70.4711 40.6257C72.9663 40.6257 74.9891 38.6141 74.9891 36.1327C74.9891 33.6513 72.9663 31.6396 70.4711 31.6396C67.9759 31.6396 65.9531 33.6513 65.9531 36.1327C65.9531 38.6141 67.9759 40.6257 70.4711 40.6257Z" fill="url(#paint27_linear_1902_31122)"/>
<path d="M82.0282 36.0131C82.8722 36.0131 83.5564 35.3327 83.5564 34.4934C83.5564 33.6541 82.8722 32.9736 82.0282 32.9736C81.1842 32.9736 80.5 33.6541 80.5 34.4934C80.5 35.3327 81.1842 36.0131 82.0282 36.0131Z" fill="url(#paint28_linear_1902_31122)"/>
<path d="M143.887 110.269C144.989 110.269 145.883 109.38 145.883 108.284C145.883 107.188 144.989 106.299 143.887 106.299C142.784 106.299 141.891 107.188 141.891 108.284C141.891 109.38 142.784 110.269 143.887 110.269Z" fill="url(#paint29_linear_1902_31122)"/>
<path d="M136.314 116.098C136.876 116.098 137.331 115.645 137.331 115.087C137.331 114.528 136.876 114.075 136.314 114.075C135.752 114.075 135.297 114.528 135.297 115.087C135.297 115.645 135.752 116.098 136.314 116.098Z" fill="url(#paint30_linear_1902_31122)"/>
<path d="M57.035 113.451C56.9123 113.451 56.7932 113.41 56.6974 113.334C56.6015 113.258 56.5346 113.151 56.5076 113.032C56.2646 111.958 51.2876 92.7187 46.4582 74.1093C42.3632 58.2996 38.495 43.3669 38.0234 41.4641C37.9892 41.3257 38.0118 41.1795 38.086 41.0576C38.1603 40.9358 38.2802 40.8482 38.4194 40.8143C38.5585 40.7804 38.7055 40.8028 38.8281 40.8766C38.9506 40.9505 39.0386 41.0697 39.0728 41.2081C39.5408 43.1038 43.409 58.0346 47.504 73.8426C52.328 92.4592 57.314 111.709 57.5606 112.796C57.5784 112.874 57.5782 112.956 57.5601 113.034C57.542 113.113 57.5064 113.186 57.4559 113.249C57.4055 113.312 57.3414 113.363 57.2686 113.398C57.1957 113.433 57.1159 113.451 57.035 113.451ZM150.219 54.9002C150.168 54.9002 150.117 54.893 150.068 54.8788L124.602 47.527C124.532 47.5091 124.466 47.4774 124.408 47.4338C124.351 47.3901 124.303 47.3355 124.267 47.273C124.231 47.2106 124.208 47.1416 124.2 47.0702C124.191 46.9988 124.197 46.9264 124.217 46.8574C124.238 46.7883 124.271 46.724 124.317 46.6682C124.363 46.6124 124.419 46.5663 124.483 46.5326C124.547 46.4989 124.617 46.4782 124.689 46.4719C124.761 46.4657 124.833 46.4738 124.902 46.4959L150.37 53.8352C150.497 53.8701 150.606 53.9496 150.678 54.0587C150.749 54.1679 150.779 54.2993 150.76 54.4283C150.742 54.5574 150.677 54.6754 150.577 54.7603C150.477 54.8451 150.35 54.8911 150.219 54.8895V54.9002Z" fill="#B1B8BC"/>
<path d="M24.7729 31.6986L33.0853 26.2909C33.5253 26.0036 34.0128 25.7958 34.5253 25.6769C35.1298 25.5341 35.7573 25.5165 36.3689 25.6252C36.9805 25.7339 37.563 25.9666 38.0803 26.3088L47.2873 32.395C50.4607 32.4205 53.5578 33.3653 56.1997 35.1139C58.8416 36.8624 60.9137 39.3389 62.1625 42.2403L70.9537 48.0633C71.7825 48.6111 72.7693 48.8728 73.7623 48.8081C74.7553 48.7434 75.6993 48.3559 76.4491 47.7053L114.912 14.2868C115.266 13.9778 115.667 13.7259 116.1 13.5403C116.526 13.3565 116.978 13.2399 117.441 13.1948C118.096 13.1296 118.757 13.2072 119.379 13.4222L151.45 24.4686C152.186 24.7219 152.844 25.1595 153.361 25.7392C153.877 26.3189 154.235 27.0212 154.4 27.7784L155.188 31.4158C158.786 30.1064 161.806 27.5794 163.718 24.2778C165.629 20.9762 166.312 17.1107 165.645 13.3589C164.978 9.6071 163.005 6.20844 160.07 3.75871C157.136 1.30897 153.429 -0.0355181 149.598 -0.0390625H29.5231C25.6144 -0.0373341 21.8362 1.36019 18.8764 3.89909C15.9166 6.438 13.972 9.94947 13.3965 13.7943C12.8211 17.6391 13.6531 21.5615 15.741 24.8476C17.829 28.1337 21.0341 30.5649 24.7729 31.6986ZM82.0327 32.9731C82.335 32.9731 82.6304 33.0623 82.8818 33.2293C83.1331 33.3963 83.3289 33.6336 83.4446 33.9113C83.5603 34.189 83.5905 34.4946 83.5316 34.7894C83.4726 35.0842 83.3271 35.355 83.1133 35.5675C82.8996 35.7801 82.6273 35.9248 82.3309 35.9835C82.0344 36.0421 81.7272 36.012 81.4479 35.897C81.1687 35.7819 80.93 35.5872 80.7621 35.3372C80.5942 35.0873 80.5045 34.7935 80.5045 34.4929C80.5045 34.2933 80.5441 34.0957 80.6209 33.9113C80.6977 33.7269 80.8102 33.5594 80.9521 33.4183C81.094 33.2771 81.2625 33.1652 81.4479 33.0888C81.6333 33.0125 81.8321 32.9731 82.0327 32.9731ZM70.4803 31.6395C71.3739 31.6395 72.2474 31.9031 72.9904 32.3968C73.7334 32.8905 74.3125 33.5922 74.6544 34.4132C74.9964 35.2342 75.0858 36.1376 74.9115 37.0091C74.7372 37.8807 74.3069 38.6813 73.675 39.3097C73.0432 39.938 72.2382 40.3659 71.3618 40.5393C70.4854 40.7127 69.5769 40.6237 68.7514 40.2836C67.9258 39.9435 67.2202 39.3677 66.7238 38.6288C66.2273 37.8899 65.9623 37.0212 65.9623 36.1326C65.9623 34.941 66.4383 33.7981 67.2856 32.9555C68.1329 32.1129 69.2821 31.6395 70.4803 31.6395Z" fill="url(#paint31_linear_1902_31122)"/>
<path d="M16.0428 97.27C16.1364 97.27 16.2228 97.27 16.3218 97.27H22.1124L14.8782 64.9004C10.719 65.2684 6.86023 67.2091 4.09703 70.3224C1.33383 73.4357 -0.123243 77.4845 0.0260634 81.6344C0.17537 85.7843 1.91968 89.7191 4.89955 92.6281C7.87942 95.537 11.8678 97.1985 16.0428 97.27Z" fill="url(#paint32_linear_1902_31122)"/>
<path d="M162.422 64.8359L169.24 96.3141C172.852 95.0193 175.888 92.499 177.815 89.1969C179.742 85.8948 180.436 82.0226 179.775 78.2618C179.114 74.501 177.14 71.0927 174.2 68.6369C171.261 66.181 167.544 64.8351 163.705 64.8359H162.422Z" fill="url(#paint33_linear_1902_31122)"/>
<path d="M165.561 129.708C164.945 129.637 164.326 129.602 163.706 129.603H138.495C137.16 129.451 135.849 129.136 134.592 128.665L140.352 142.817C140.672 143.604 140.665 144.484 140.332 145.266C139.999 146.047 139.368 146.665 138.578 146.984L134.583 148.595C134.192 148.753 133.773 148.833 133.35 148.83C132.928 148.827 132.51 148.741 132.121 148.577C131.732 148.413 131.379 148.175 131.082 147.875C130.786 147.576 130.552 147.221 130.393 146.832L119.382 119.802L118.344 120.221C117.662 120.496 116.906 120.53 116.203 120.318C115.499 120.106 114.889 119.66 114.476 119.056L101.174 135.061C100.749 135.571 100.216 135.983 99.613 136.265C99.0099 136.547 98.3516 136.693 97.6851 136.693C97.6005 136.693 97.5159 136.693 97.4313 136.693C96.9832 136.67 96.5409 136.581 96.1191 136.428L61.4727 123.783C60.8211 123.546 60.1234 123.461 59.4334 123.534C58.7434 123.607 58.0795 123.837 57.4929 124.206L37.1925 136.951C36.5778 137.335 35.8791 137.568 35.1554 137.628C34.4316 137.688 33.7039 137.574 33.0335 137.296C32.3632 137.018 31.7697 136.584 31.3032 136.031C30.8366 135.477 30.5106 134.82 30.3525 134.115L29.3445 129.603H16.3215C15.7014 129.602 15.0817 129.637 14.4657 129.708C10.3258 130.176 6.52305 132.203 3.83795 135.371C1.15285 138.539 -0.210924 142.61 0.0265238 146.747C0.263972 150.883 2.08463 154.773 5.11484 157.617C8.14504 160.461 12.1549 162.044 16.3215 162.04H163.706C167.872 162.044 171.882 160.461 174.912 157.617C177.942 154.773 179.763 150.883 180.001 146.747C180.238 142.61 178.874 138.539 176.189 135.371C173.504 132.203 169.701 130.176 165.561 129.708ZM61.9227 136.851C61.4521 136.851 60.992 136.712 60.6007 136.452C60.2094 136.192 59.9044 135.822 59.7243 135.39C59.5442 134.957 59.497 134.482 59.5889 134.022C59.6807 133.563 59.9073 133.142 60.2401 132.811C60.5729 132.48 60.9969 132.254 61.4585 132.163C61.9201 132.072 62.3985 132.119 62.8334 132.298C63.2682 132.477 63.6398 132.78 63.9013 133.169C64.1628 133.559 64.3023 134.016 64.3023 134.484C64.3023 135.112 64.0516 135.714 63.6054 136.157C63.1591 136.601 62.5538 136.851 61.9227 136.851ZM76.6503 144.705C75.8888 144.705 75.1444 144.481 74.5113 144.06C73.8781 143.639 73.3846 143.041 73.0932 142.342C72.8018 141.642 72.7255 140.872 72.8741 140.129C73.0227 139.387 73.3894 138.704 73.9278 138.169C74.4663 137.633 75.1523 137.269 75.8992 137.121C76.646 136.973 77.4202 137.049 78.1237 137.339C78.8273 137.629 79.4286 138.12 79.8517 138.749C80.2747 139.379 80.5005 140.119 80.5005 140.876C80.4996 141.891 80.0935 142.864 79.3716 143.582C78.6496 144.299 77.6708 144.702 76.6503 144.702V144.705Z" fill="url(#paint34_linear_1902_31122)"/>
<path d="M137.453 97.5261C138.316 97.3728 139.19 97.2883 140.067 97.2737H142.185L138.114 96.0762C137.907 96.5738 137.685 97.0482 137.453 97.5261Z" fill="url(#paint35_linear_1902_31122)"/>
</g>
<defs>
<linearGradient id="paint0_linear_1902_31122" x1="9.54522" y1="4.25208" x2="34.8396" y2="88.7878" gradientUnits="userSpaceOnUse">
<stop stop-color="#B1B8BC" stop-opacity="0"/>
<stop offset="1" stop-color="#B1B8BC" stop-opacity="0.5"/>
</linearGradient>
<linearGradient id="paint1_linear_1902_31122" x1="71.0043" y1="17.9777" x2="89.0216" y2="75.2542" gradientUnits="userSpaceOnUse">
<stop stop-color="#B1B8BC" stop-opacity="0"/>
<stop offset="1" stop-color="#B1B8BC" stop-opacity="0.5"/>
</linearGradient>
<linearGradient id="paint2_linear_1902_31122" x1="88.6884" y1="0.684617" x2="100.149" y2="48.4275" gradientUnits="userSpaceOnUse">
<stop stop-color="#B1B8BC" stop-opacity="0"/>
<stop offset="1" stop-color="#B1B8BC" stop-opacity="0.5"/>
</linearGradient>
<linearGradient id="paint3_linear_1902_31122" x1="26.6806" y1="58.866" x2="66.0142" y2="154.632" gradientUnits="userSpaceOnUse">
<stop stop-color="#B1B8BC" stop-opacity="0"/>
<stop offset="1" stop-color="#B1B8BC" stop-opacity="0.5"/>
</linearGradient>
<linearGradient id="paint4_linear_1902_31122" x1="117.034" y1="78.3068" x2="138.908" y2="118.081" gradientUnits="userSpaceOnUse">
<stop stop-color="#B1B8BC" stop-opacity="0"/>
<stop offset="1" stop-color="#B1B8BC" stop-opacity="0.5"/>
</linearGradient>
<linearGradient id="paint5_linear_1902_31122" x1="88.1062" y1="94.2145" x2="109.979" y2="133.988" gradientUnits="userSpaceOnUse">
<stop stop-color="#B1B8BC" stop-opacity="0"/>
<stop offset="1" stop-color="#B1B8BC" stop-opacity="0.5"/>
</linearGradient>
<linearGradient id="paint6_linear_1902_31122" x1="63.5251" y1="52.7731" x2="80.4396" y2="142.203" gradientUnits="userSpaceOnUse">
<stop offset="0.14" stop-color="#B1B8BC" stop-opacity="0.5"/>
<stop offset="1" stop-color="#B1B8BC"/>
</linearGradient>
<linearGradient id="paint7_linear_1902_31122" x1="60.0968" y1="28.5613" x2="69.5507" y2="114.313" gradientUnits="userSpaceOnUse">
<stop stop-color="#B1B8BC" stop-opacity="0"/>
<stop offset="1" stop-color="#B1B8BC" stop-opacity="0.5"/>
</linearGradient>
<linearGradient id="paint8_linear_1902_31122" x1="54.5568" y1="25.4768" x2="56.4652" y2="65.5142" gradientUnits="userSpaceOnUse">
<stop offset="0.14" stop-color="#B1B8BC" stop-opacity="0.5"/>
<stop offset="1" stop-color="#B1B8BC"/>
</linearGradient>
<linearGradient id="paint9_linear_1902_31122" x1="143.331" y1="53.6362" x2="152.24" y2="132.44" gradientUnits="userSpaceOnUse">
<stop offset="0.14" stop-color="#B1B8BC" stop-opacity="0.5"/>
<stop offset="1" stop-color="#B1B8BC"/>
</linearGradient>
<linearGradient id="paint10_linear_1902_31122" x1="129.844" y1="-2.32255" x2="145.12" y2="79.791" gradientUnits="userSpaceOnUse">
<stop stop-color="#B1B8BC" stop-opacity="0"/>
<stop offset="1" stop-color="#B1B8BC" stop-opacity="0.5"/>
</linearGradient>
<linearGradient id="paint11_linear_1902_31122" x1="36.443" y1="39.7165" x2="76.5829" y2="149.822" gradientUnits="userSpaceOnUse">
<stop offset="0.14" stop-color="#B1B8BC" stop-opacity="0.5"/>
<stop offset="1" stop-color="#B1B8BC"/>
</linearGradient>
<linearGradient id="paint12_linear_1902_31122" x1="94.7791" y1="18.4501" x2="134.919" y2="128.557" gradientUnits="userSpaceOnUse">
<stop offset="0.14" stop-color="#B1B8BC" stop-opacity="0.5"/>
<stop offset="1" stop-color="#B1B8BC"/>
</linearGradient>
<linearGradient id="paint13_linear_1902_31122" x1="117.424" y1="10.1952" x2="157.564" y2="120.3" gradientUnits="userSpaceOnUse">
<stop offset="0.14" stop-color="#B1B8BC" stop-opacity="0.5"/>
<stop offset="1" stop-color="#B1B8BC"/>
</linearGradient>
<linearGradient id="paint14_linear_1902_31122" x1="120.422" y1="9.10071" x2="160.562" y2="119.206" gradientUnits="userSpaceOnUse">
<stop offset="0.14" stop-color="#B1B8BC" stop-opacity="0.5"/>
<stop offset="1" stop-color="#B1B8BC"/>
</linearGradient>
<linearGradient id="paint15_linear_1902_31122" x1="14.569" y1="57.4254" x2="62.4557" y2="107.599" gradientUnits="userSpaceOnUse">
<stop stop-color="#B1B8BC" stop-opacity="0"/>
<stop offset="1" stop-color="#B1B8BC" stop-opacity="0.5"/>
</linearGradient>
<linearGradient id="paint16_linear_1902_31122" x1="59.8193" y1="69.4349" x2="27.3193" y2="110.195" gradientUnits="userSpaceOnUse">
<stop offset="0.14" stop-color="#B1B8BC" stop-opacity="0.5"/>
<stop offset="1" stop-color="#B1B8BC"/>
</linearGradient>
<linearGradient id="paint17_linear_1902_31122" x1="65.8096" y1="78.4319" x2="79.7246" y2="144.824" gradientUnits="userSpaceOnUse">
<stop offset="0.14" stop-color="#B1B8BC" stop-opacity="0.5"/>
<stop offset="1" stop-color="#B1B8BC"/>
</linearGradient>
<linearGradient id="paint18_linear_1902_31122" x1="94.517" y1="15.3966" x2="88.3337" y2="74.6349" gradientUnits="userSpaceOnUse">
<stop stop-color="#B1B8BC" stop-opacity="0"/>
<stop offset="1" stop-color="#B1B8BC" stop-opacity="0.5"/>
</linearGradient>
<linearGradient id="paint19_linear_1902_31122" x1="60.452" y1="55.3621" x2="114.267" y2="98.2486" gradientUnits="userSpaceOnUse">
<stop offset="0.14" stop-color="#B1B8BC" stop-opacity="0.5"/>
<stop offset="1" stop-color="#B1B8BC"/>
</linearGradient>
<linearGradient id="paint20_linear_1902_31122" x1="141.573" y1="34.8015" x2="107.329" y2="59.8458" gradientUnits="userSpaceOnUse">
<stop offset="0.14" stop-color="#B1B8BC" stop-opacity="0.5"/>
<stop offset="1" stop-color="#B1B8BC"/>
</linearGradient>
<linearGradient id="paint21_linear_1902_31122" x1="136.836" y1="145.985" x2="113.883" y2="97.0755" gradientUnits="userSpaceOnUse">
<stop offset="0.14" stop-color="#B1B8BC" stop-opacity="0.5"/>
<stop offset="1" stop-color="#B1B8BC"/>
</linearGradient>
<linearGradient id="paint22_linear_1902_31122" x1="99.7785" y1="40.524" x2="117.061" y2="110.038" gradientUnits="userSpaceOnUse">
<stop offset="0.14" stop-color="#B1B8BC" stop-opacity="0.5"/>
<stop offset="1" stop-color="#B1B8BC"/>
</linearGradient>
<linearGradient id="paint23_linear_1902_31122" x1="106.452" y1="73.0157" x2="124.474" y2="120.98" gradientUnits="userSpaceOnUse">
<stop stop-color="#B1B8BC" stop-opacity="0"/>
<stop offset="1" stop-color="#B1B8BC" stop-opacity="0.5"/>
</linearGradient>
<linearGradient id="paint24_linear_1902_31122" x1="109.167" y1="78.2819" x2="116.443" y2="110.474" gradientUnits="userSpaceOnUse">
<stop offset="0.14" stop-color="#B1B8BC" stop-opacity="0.5"/>
<stop offset="1" stop-color="#B1B8BC"/>
</linearGradient>
<linearGradient id="paint25_linear_1902_31122" x1="20.8991" y1="38.0262" x2="80.1745" y2="178.937" gradientUnits="userSpaceOnUse">
<stop offset="0.14" stop-color="#B1B8BC" stop-opacity="0.5"/>
<stop offset="1" stop-color="#B1B8BC"/>
</linearGradient>
<linearGradient id="paint26_linear_1902_31122" x1="31.0783" y1="33.7399" x2="90.3554" y2="174.652" gradientUnits="userSpaceOnUse">
<stop offset="0.14" stop-color="#B1B8BC" stop-opacity="0.5"/>
<stop offset="1" stop-color="#B1B8BC"/>
</linearGradient>
<linearGradient id="paint27_linear_1902_31122" x1="63.6293" y1="20.0472" x2="122.907" y2="160.958" gradientUnits="userSpaceOnUse">
<stop offset="0.14" stop-color="#B1B8BC" stop-opacity="0.5"/>
<stop offset="1" stop-color="#B1B8BC"/>
</linearGradient>
<linearGradient id="paint28_linear_1902_31122" x1="74.0254" y1="15.6763" x2="133.301" y2="156.587" gradientUnits="userSpaceOnUse">
<stop offset="0.14" stop-color="#B1B8BC" stop-opacity="0.5"/>
<stop offset="1" stop-color="#B1B8BC"/>
</linearGradient>
<linearGradient id="paint29_linear_1902_31122" x1="99.8696" y1="4.79915" x2="159.147" y2="145.712" gradientUnits="userSpaceOnUse">
<stop offset="0.14" stop-color="#B1B8BC" stop-opacity="0.5"/>
<stop offset="1" stop-color="#B1B8BC"/>
</linearGradient>
<linearGradient id="paint30_linear_1902_31122" x1="90.9951" y1="8.53903" x2="150.27" y2="149.452" gradientUnits="userSpaceOnUse">
<stop offset="0.14" stop-color="#B1B8BC" stop-opacity="0.5"/>
<stop offset="1" stop-color="#B1B8BC"/>
</linearGradient>
<linearGradient id="paint31_linear_1902_31122" x1="89.5603" y1="11.0109" x2="89.5603" y2="57.0172" gradientUnits="userSpaceOnUse">
<stop stop-color="#B1B8BC" stop-opacity="0.1"/>
<stop offset="1" stop-color="#B1B8BC" stop-opacity="0.25"/>
</linearGradient>
<linearGradient id="paint32_linear_1902_31122" x1="11.064" y1="72.2217" x2="11.064" y2="102.71" gradientUnits="userSpaceOnUse">
<stop stop-color="#B1B8BC" stop-opacity="0.1"/>
<stop offset="1" stop-color="#B1B8BC" stop-opacity="0.25"/>
</linearGradient>
<linearGradient id="paint33_linear_1902_31122" x1="171.218" y1="71.955" x2="171.218" y2="101.6" gradientUnits="userSpaceOnUse">
<stop stop-color="#B1B8BC" stop-opacity="0.1"/>
<stop offset="1" stop-color="#B1B8BC" stop-opacity="0.25"/>
</linearGradient>
<linearGradient id="paint34_linear_1902_31122" x1="90.0135" y1="128.776" x2="90.0135" y2="169.26" gradientUnits="userSpaceOnUse">
<stop stop-color="#B1B8BC" stop-opacity="0.1"/>
<stop offset="1" stop-color="#B1B8BC" stop-opacity="0.25"/>
</linearGradient>
<linearGradient id="paint35_linear_1902_31122" x1="139.818" y1="96.4038" x2="139.818" y2="97.7696" gradientUnits="userSpaceOnUse">
<stop stop-color="#B1B8BC" stop-opacity="0.1"/>
<stop offset="1" stop-color="#B1B8BC" stop-opacity="0.25"/>
</linearGradient>
<clipPath id="clip0_1902_31122">
<rect width="180" height="162" fill="white"/>
</clipPath>
</defs>
</svg>
