<svg width="21" height="20" viewBox="0 0 21 20" fill="none" xmlns="http://www.w3.org/2000/svg">
<g clip-path="url(#clip0_6196_19050)">
<path d="M15.3454 10C15.3461 11.1399 14.9446 12.2434 14.2115 13.1163C13.4784 13.9891 12.4608 14.5753 11.3379 14.7714C10.2151 14.9675 9.059 14.7611 8.0734 14.1885C7.0878 13.6159 6.33591 12.7138 5.95019 11.6412L3.17969 13.8576C4.04116 15.4952 5.42648 16.7969 7.11446 17.5549C8.80244 18.3129 10.6957 18.4835 12.492 18.0394C14.2883 17.5953 15.884 16.5621 17.0243 15.1049C18.1646 13.6477 18.7837 11.8504 18.7829 10" fill="#00AC47"/>
<path d="M15.3448 10C15.3441 10.7706 15.1594 11.5299 14.8059 12.2147C14.4524 12.8995 13.9404 13.4899 13.3125 13.9367L16.0515 16.1279C16.9104 15.3546 17.5972 14.4096 18.0677 13.3539C18.5381 12.2983 18.7815 11.1557 18.7823 10" fill="#4285F4"/>
<path d="M5.65625 10C5.65745 9.44012 5.75637 8.88472 5.94856 8.35883L3.17806 6.14246C2.54811 7.33069 2.21875 8.65512 2.21875 10C2.21875 11.3449 2.54811 12.6693 3.17806 13.8576L5.94856 11.6412C5.75637 11.1153 5.65745 10.5599 5.65625 10Z" fill="#FFBA00"/>
<path d="M10.5016 5.15626C11.5265 5.15654 12.5246 5.48407 13.3504 6.09113L15.8879 3.72282C14.9459 2.91067 13.8327 2.32173 12.6313 1.99996C11.4299 1.67818 10.1714 1.63188 8.94961 1.86451C7.72783 2.09714 6.57436 2.60268 5.57527 3.34342C4.57619 4.08416 3.75729 5.04097 3.17969 6.14244L5.95019 8.35882C6.28807 7.42218 6.9062 6.61231 7.72053 6.03931C8.53487 5.46631 9.5059 5.15799 10.5016 5.15626Z" fill="#EA4435"/>
<path d="M18.7812 9.375V10L17.375 12.1875H10.8125V8.75H18.1562C18.322 8.75 18.481 8.81585 18.5982 8.93306C18.7154 9.05027 18.7812 9.20924 18.7812 9.375Z" fill="#4285F4"/>
</g>
<defs>
<clipPath id="clip0_6196_19050">
<rect width="20" height="20" fill="white" transform="translate(0.5)"/>
</clipPath>
</defs>
</svg>
