<svg width="20" height="20" viewBox="0 0 20 20" fill="none" xmlns="http://www.w3.org/2000/svg">
<path d="M10 16.875C6.20833 16.875 3.125 13.7917 3.125 10C3.125 6.20833 6.20833 3.125 10 3.125C13.7917 3.125 16.875 6.20833 16.875 10C16.875 13.7917 13.7917 16.875 10 16.875ZM10 4.375C6.9 4.375 4.375 6.9 4.375 10C4.375 13.1 6.9 15.625 10 15.625C13.1 15.625 15.625 13.1 15.625 10C15.625 6.9 13.1 4.375 10 4.375Z" fill="#B19276"/>
<path d="M10 13.125C8.275 13.125 6.875 11.725 6.875 10C6.875 8.275 8.275 6.875 10 6.875C11.725 6.875 13.125 8.275 13.125 10C13.125 11.725 11.725 13.125 10 13.125ZM10 8.125C8.96667 8.125 8.125 8.96667 8.125 10C8.125 11.0333 8.96667 11.875 10 11.875C11.0333 11.875 11.875 11.0333 11.875 10C11.875 8.96667 11.0333 8.125 10 8.125Z" fill="#B19276"/>
<path d="M10 3.95817C9.65833 3.95817 9.375 3.67484 9.375 3.33317V1.6665C9.375 1.32484 9.65833 1.0415 10 1.0415C10.3417 1.0415 10.625 1.32484 10.625 1.6665V3.33317C10.625 3.67484 10.3417 3.95817 10 3.95817Z" fill="#B19276"/>
<path d="M3.33464 10.625H1.66797C1.3263 10.625 1.04297 10.3417 1.04297 10C1.04297 9.65833 1.3263 9.375 1.66797 9.375H3.33464C3.6763 9.375 3.95964 9.65833 3.95964 10C3.95964 10.3417 3.6763 10.625 3.33464 10.625Z" fill="#B19276"/>
<path d="M10 18.9582C9.65833 18.9582 9.375 18.6748 9.375 18.3332V16.6665C9.375 16.3248 9.65833 16.0415 10 16.0415C10.3417 16.0415 10.625 16.3248 10.625 16.6665V18.3332C10.625 18.6748 10.3417 18.9582 10 18.9582Z" fill="#B19276"/>
<path d="M18.3346 10.625H16.668C16.3263 10.625 16.043 10.3417 16.043 10C16.043 9.65833 16.3263 9.375 16.668 9.375H18.3346C18.6763 9.375 18.9596 9.65833 18.9596 10C18.9596 10.3417 18.6763 10.625 18.3346 10.625Z" fill="#B19276"/>
</svg>
