<svg width="20" height="20" viewBox="0 0 20 20" fill="none" xmlns="http://www.w3.org/2000/svg">
<path d="M4.64167 18.9166C2.69167 18.9166 1.04167 17.2666 1.04167 15.3166V10.1833C1 7.74992 1.9 5.45825 3.58333 3.74159C5.26667 2.03325 7.525 1.08325 9.95834 1.08325C14.925 1.08325 18.9583 5.12492 18.9583 10.0833V15.2166C18.9583 17.1999 17.3417 18.8166 15.3583 18.8166C13.4083 18.8166 11.7583 17.1666 11.7583 15.2166V12.8749C11.7583 11.6666 12.7083 10.7166 13.9167 10.7166C15.125 10.7166 16.075 11.6666 16.075 12.8749V15.3999C16.075 15.7416 15.7917 16.0249 15.45 16.0249C15.1083 16.0249 14.825 15.7416 14.825 15.3999V12.8749C14.825 12.3083 14.3667 11.9666 13.9167 11.9666C13.35 11.9666 13.0083 12.4249 13.0083 12.8749V15.2166C13.0083 16.4916 14.0833 17.5666 15.3583 17.5666C16.6333 17.5666 17.7083 16.4916 17.7083 15.2166V10.0833C17.7083 5.80825 14.2333 2.33325 9.95834 2.33325C7.86667 2.33325 5.925 3.14159 4.475 4.61659C3.025 6.09158 2.25 8.06658 2.29167 10.1666V15.3166C2.29167 16.5916 3.36667 17.6666 4.64167 17.6666C5.91667 17.6666 6.99167 16.5916 6.99167 15.3166V12.9749C6.99167 12.4083 6.53334 12.0666 6.08334 12.0666C5.51667 12.0666 5.175 12.5249 5.175 12.9749V15.4083C5.175 15.7499 4.89167 16.0333 4.55 16.0333C4.20833 16.0333 3.925 15.7499 3.925 15.4083V12.9749C3.925 11.7666 4.875 10.8166 6.08334 10.8166C7.29167 10.8166 8.24167 11.7666 8.24167 12.9749V15.3166C8.24167 17.2666 6.59167 18.9166 4.64167 18.9166Z" fill="#85858B"/>
</svg>
