<svg width="20" height="20" viewBox="0 0 20 20" fill="none" xmlns="http://www.w3.org/2000/svg">
<path d="M10.0013 18.0416C9.74297 18.0416 9.49297 18.0083 9.28464 17.9333C6.1013 16.8416 1.04297 12.9666 1.04297 7.24165C1.04297 4.32498 3.4013 1.95831 6.3013 1.95831C7.70964 1.95831 9.0263 2.50831 10.0013 3.49165C10.9763 2.50831 12.293 1.95831 13.7013 1.95831C16.6013 1.95831 18.9596 4.33331 18.9596 7.24165C18.9596 12.975 13.9013 16.8416 10.718 17.9333C10.5096 18.0083 10.2596 18.0416 10.0013 18.0416ZM6.3013 3.20831C4.09297 3.20831 2.29297 5.01665 2.29297 7.24165C2.29297 12.9333 7.76797 16.1 9.69297 16.7583C9.84297 16.8083 10.168 16.8083 10.318 16.7583C12.2346 16.1 17.718 12.9416 17.718 7.24165C17.718 5.01665 15.918 3.20831 13.7096 3.20831C12.443 3.20831 11.268 3.79998 10.5096 4.82498C10.2763 5.14165 9.74297 5.14165 9.50964 4.82498C8.73464 3.79165 7.56797 3.20831 6.3013 3.20831Z" fill="#6D6D74"/>
</svg>
