<svg width="17" height="16" viewBox="0 0 17 16" fill="none" xmlns="http://www.w3.org/2000/svg">
<path d="M8.5 14.4333C8.29334 14.4333 8.09334 14.4067 7.92667 14.3467C5.38 13.4733 1.33334 10.3733 1.33334 5.79333C1.33334 3.46 3.22 1.56667 5.54 1.56667C6.66667 1.56667 7.72 2.00667 8.5 2.79333C9.28 2.00667 10.3333 1.56667 11.46 1.56667C13.78 1.56667 15.6667 3.46667 15.6667 5.79333C15.6667 10.38 11.62 13.4733 9.07334 14.3467C8.90667 14.4067 8.70667 14.4333 8.5 14.4333ZM5.54 2.56667C3.77334 2.56667 2.33334 4.01333 2.33334 5.79333C2.33334 10.3467 6.71334 12.88 8.25334 13.4067C8.37334 13.4467 8.63334 13.4467 8.75334 13.4067C10.2867 12.88 14.6733 10.3533 14.6733 5.79333C14.6733 4.01333 13.2333 2.56667 11.4667 2.56667C10.4533 2.56667 9.51334 3.04 8.90667 3.86C8.72 4.11333 8.29334 4.11333 8.10667 3.86C7.48667 3.03333 6.55334 2.56667 5.54 2.56667Z" fill="#3C3D45"/>
</svg>
