<svg width="20" height="20" viewBox="0 0 20 20" fill="none" xmlns="http://www.w3.org/2000/svg">
<path d="M13.5667 18.4166H10.4C9.93334 18.4166 8.91667 18.2749 8.37501 17.7332L5.85001 15.7832L6.61667 14.7916L9.20001 16.7916C9.40834 16.9916 9.93334 17.1582 10.4 17.1582H13.5667C14.3167 17.1582 15.125 16.5582 15.2917 15.8832L17.3083 9.75824C17.4417 9.39158 17.4167 9.05824 17.2417 8.81658C17.0583 8.55824 16.725 8.40824 16.3167 8.40824H12.9833C12.55 8.40824 12.15 8.22491 11.875 7.90824C11.5917 7.58324 11.4667 7.14991 11.5333 6.69991L11.95 4.02491C12.05 3.55824 11.7333 3.03324 11.2833 2.88324C10.875 2.73324 10.35 2.94991 10.1667 3.21658L6.75001 8.29991L5.71667 7.60824L9.13334 2.52491C9.65834 1.74158 10.8083 1.36658 11.7083 1.70824C12.75 2.04991 13.4167 3.19991 13.1833 4.26658L12.775 6.89158C12.7667 6.94991 12.7667 7.03324 12.825 7.09991C12.8667 7.14158 12.925 7.16658 12.9917 7.16658H16.325C17.1417 7.16658 17.85 7.50824 18.2667 8.09991C18.675 8.67491 18.7583 9.43324 18.4917 10.1666L16.5 16.2332C16.1917 17.4416 14.9083 18.4166 13.5667 18.4166Z" fill="#85858B"/>
<path d="M4.48328 17.5001H3.64994C2.10828 17.5001 1.35828 16.7751 1.35828 15.2917V7.12508C1.35828 5.64175 2.10828 4.91675 3.64994 4.91675H4.48328C6.02494 4.91675 6.77494 5.64175 6.77494 7.12508V15.2917C6.77494 16.7751 6.02494 17.5001 4.48328 17.5001ZM3.64994 6.16675C2.74161 6.16675 2.60828 6.38341 2.60828 7.12508V15.2917C2.60828 16.0334 2.74161 16.2501 3.64994 16.2501H4.48328C5.39161 16.2501 5.52494 16.0334 5.52494 15.2917V7.12508C5.52494 6.38341 5.39161 6.16675 4.48328 6.16675H3.64994Z" fill="#85858B"/>
</svg>
