<svg width="20" height="20" viewBox="0 0 20 20" fill="none" xmlns="http://www.w3.org/2000/svg">
<path d="M17.1849 7.04165C16.3099 3.19165 12.9515 1.45831 10.0015 1.45831C10.0015 1.45831 10.0015 1.45831 9.99321 1.45831C7.05154 1.45831 3.68488 3.18331 2.80988 7.03331C1.83488 11.3333 4.46821 14.975 6.85154 17.2666C7.73488 18.1166 8.86821 18.5416 10.0015 18.5416C11.1349 18.5416 12.2682 18.1166 13.1432 17.2666C15.5265 14.975 18.1599 11.3416 17.1849 7.04165ZM10.0015 11.2166C8.55154 11.2166 7.37654 10.0416 7.37654 8.59165C7.37654 7.14165 8.55154 5.96665 10.0015 5.96665C11.4515 5.96665 12.6265 7.14165 12.6265 8.59165C12.6265 10.0416 11.4515 11.2166 10.0015 11.2166Z" fill="#3C3D45"/>
</svg>
