<svg width="48" height="64" viewBox="0 0 48 64" fill="none" xmlns="http://www.w3.org/2000/svg">
<path d="M41.2382 16.9C39.1382 7.66 31.0782 3.5 23.9982 3.5C23.9982 3.5 23.9982 3.5 23.9782 3.5C16.9182 3.5 8.83824 7.64 6.73824 16.88C4.39824 27.2 10.7182 35.94 16.4382 41.44C18.5582 43.48 21.2782 44.5 23.9982 44.5C26.7182 44.5 29.4382 43.48 31.5382 41.44C37.2582 35.94 43.5782 27.22 41.2382 16.9ZM23.9982 26.92C20.5182 26.92 17.6982 24.1 17.6982 20.62C17.6982 17.14 20.5182 14.32 23.9982 14.32C27.4782 14.32 30.2982 17.14 30.2982 20.62C30.2982 24.1 27.4782 26.92 23.9982 26.92Z" fill="#B19276"/>
<circle cx="24" cy="60" r="4" fill="#B19276"/>
</svg>
