<svg width="16" height="16" viewBox="0 0 16 16" fill="none" xmlns="http://www.w3.org/2000/svg">
<path d="M8.00187 9.44679C6.58187 9.44679 5.42188 8.29346 5.42188 6.86679C5.42188 5.44012 6.58187 4.29346 8.00187 4.29346C9.42188 4.29346 10.5819 5.44679 10.5819 6.87346C10.5819 8.30012 9.42188 9.44679 8.00187 9.44679ZM8.00187 5.29346C7.13521 5.29346 6.42188 6.00012 6.42188 6.87346C6.42188 7.74679 7.12854 8.45346 8.00187 8.45346C8.87521 8.45346 9.58187 7.74679 9.58187 6.87346C9.58187 6.00012 8.86854 5.29346 8.00187 5.29346Z" fill="#6D6D74"/>
<path d="M8.00109 15.1735C7.01443 15.1735 6.02109 14.8002 5.24776 14.0602C3.28109 12.1668 1.10776 9.14683 1.92776 5.5535C2.66776 2.2935 5.51443 0.833496 8.00109 0.833496C8.00109 0.833496 8.00109 0.833496 8.00776 0.833496C10.4944 0.833496 13.3411 2.2935 14.0811 5.56016C14.8944 9.1535 12.7211 12.1668 10.7544 14.0602C9.98109 14.8002 8.98776 15.1735 8.00109 15.1735ZM8.00109 1.8335C6.06109 1.8335 3.56776 2.86683 2.90776 5.7735C2.18776 8.9135 4.16109 11.6202 5.94776 13.3335C7.10109 14.4468 8.90776 14.4468 10.0611 13.3335C11.8411 11.6202 13.8144 8.9135 13.1078 5.7735C12.4411 2.86683 9.94109 1.8335 8.00109 1.8335Z" fill="#6D6D74"/>
</svg>
