<svg width="20" height="20" viewBox="0 0 20 20" fill="none" xmlns="http://www.w3.org/2000/svg">
<path d="M9.99844 11.8083C8.22344 11.8083 6.77344 10.3666 6.77344 8.5833C6.77344 6.79997 8.22344 5.36664 9.99844 5.36664C11.7734 5.36664 13.2234 6.80831 13.2234 8.59164C13.2234 10.375 11.7734 11.8083 9.99844 11.8083ZM9.99844 6.61664C8.9151 6.61664 8.02344 7.49997 8.02344 8.59164C8.02344 9.68331 8.90677 10.5666 9.99844 10.5666C11.0901 10.5666 11.9734 9.68331 11.9734 8.59164C11.9734 7.49997 11.0818 6.61664 9.99844 6.61664Z" fill="#6D6D74"/>
<path d="M10.0014 18.9667C8.76803 18.9667 7.52637 18.5 6.5597 17.575C4.10137 15.2084 1.3847 11.4334 2.4097 6.94169C3.3347 2.86669 6.89303 1.04169 10.0014 1.04169C10.0014 1.04169 10.0014 1.04169 10.0097 1.04169C13.118 1.04169 16.6764 2.86669 17.6014 6.95002C18.618 11.4417 15.9014 15.2084 13.443 17.575C12.4764 18.5 11.2347 18.9667 10.0014 18.9667ZM10.0014 2.29169C7.57637 2.29169 4.4597 3.58335 3.6347 7.21669C2.7347 11.1417 5.20137 14.525 7.4347 16.6667C8.87637 18.0584 11.1347 18.0584 12.5764 16.6667C14.8014 14.525 17.268 11.1417 16.3847 7.21669C15.5514 3.58335 12.4264 2.29169 10.0014 2.29169Z" fill="#6D6D74"/>
</svg>
