<svg width="16" height="20" viewBox="0 0 16 20" fill="none" xmlns="http://www.w3.org/2000/svg">
<path d="M8.00187 13.4465C6.58187 13.4465 5.42188 12.2932 5.42188 10.8665C5.42188 9.43988 6.58187 8.29321 8.00187 8.29321C9.42188 8.29321 10.5819 9.44655 10.5819 10.8732C10.5819 12.2999 9.42188 13.4465 8.00187 13.4465ZM8.00187 9.29321C7.13521 9.29321 6.42188 9.99988 6.42188 10.8732C6.42188 11.7465 7.12854 12.4532 8.00187 12.4532C8.87521 12.4532 9.58187 11.7465 9.58187 10.8732C9.58187 9.99988 8.86854 9.29321 8.00187 9.29321Z" fill="#6D6D74"/>
<path d="M8.00109 19.1733C7.01443 19.1733 6.02109 18.7999 5.24776 18.0599C3.28109 16.1666 1.10776 13.1466 1.92776 9.55325C2.66776 6.29325 5.51443 4.83325 8.00109 4.83325C8.00109 4.83325 8.00109 4.83325 8.00776 4.83325C10.4944 4.83325 13.3411 6.29325 14.0811 9.55992C14.8944 13.1533 12.7211 16.1666 10.7544 18.0599C9.98109 18.7999 8.98776 19.1733 8.00109 19.1733ZM8.00109 5.83325C6.06109 5.83325 3.56776 6.86659 2.90776 9.77325C2.18776 12.9133 4.16109 15.6199 5.94776 17.3333C7.10109 18.4466 8.90776 18.4466 10.0611 17.3333C11.8411 15.6199 13.8144 12.9133 13.1078 9.77325C12.4411 6.86659 9.94109 5.83325 8.00109 5.83325Z" fill="#6D6D74"/>
</svg>
