<svg width="16" height="16" viewBox="0 0 16 16" fill="none" xmlns="http://www.w3.org/2000/svg">
<path d="M8.00187 9.44655C6.58187 9.44655 5.42188 8.29321 5.42188 6.86655C5.42188 5.43988 6.58187 4.29321 8.00187 4.29321C9.42188 4.29321 10.5819 5.44655 10.5819 6.87321C10.5819 8.29988 9.42188 9.44655 8.00187 9.44655ZM8.00187 5.29321C7.13521 5.29321 6.42188 5.99988 6.42188 6.87321C6.42188 7.74655 7.12854 8.45321 8.00187 8.45321C8.87521 8.45321 9.58187 7.74655 9.58187 6.87321C9.58187 5.99988 8.86854 5.29321 8.00187 5.29321Z" fill="#23242E"/>
<path d="M8.00109 15.1733C7.01443 15.1733 6.02109 14.7999 5.24776 14.0599C3.28109 12.1666 1.10776 9.14659 1.92776 5.55325C2.66776 2.29325 5.51443 0.833252 8.00109 0.833252C8.00109 0.833252 8.00109 0.833252 8.00776 0.833252C10.4944 0.833252 13.3411 2.29325 14.0811 5.55992C14.8944 9.15325 12.7211 12.1666 10.7544 14.0599C9.98109 14.7999 8.98776 15.1733 8.00109 15.1733ZM8.00109 1.83325C6.06109 1.83325 3.56776 2.86659 2.90776 5.77325C2.18776 8.91325 4.16109 11.6199 5.94776 13.3333C7.10109 14.4466 8.90776 14.4466 10.0611 13.3333C11.8411 11.6199 13.8144 8.91325 13.1078 5.77325C12.4411 2.86659 9.94109 1.83325 8.00109 1.83325Z" fill="#23242E"/>
</svg>
