<svg width="94" height="40" viewBox="0 0 94 40" fill="none" xmlns="http://www.w3.org/2000/svg">
<path d="M21.0962 0.161516C19.5827 0.591043 18.5956 1.63685 18.3229 3.11218C17.9845 4.91432 19.0656 6.62309 20.7108 6.87521C21.3877 6.97792 22.1209 6.86587 22.5252 6.59508C22.9106 6.33363 23.3148 5.57729 23.3148 5.12909C23.3054 4.04593 22.2243 3.17754 21.2278 3.44833C20.6544 3.59773 20.1185 4.15798 20.1185 4.59685C20.1185 5.0077 19.9869 4.97035 19.7895 4.49413C19.5169 3.85918 19.6673 3.00947 20.1561 2.37451C20.5322 1.88896 21.4253 1.47811 22.1303 1.47811C23.5593 1.47811 24.7626 2.72 24.8942 4.32606C25.0258 5.99748 24.2737 6.85653 22.0363 7.60353C21.0022 7.94902 20.4476 8.18246 20.0245 8.48126C19.8929 8.57464 19.5357 8.7147 19.2254 8.79874C15.8787 9.74183 13.2276 11.9362 11.7517 14.9802C10.9526 16.6329 10.5578 18.2483 10.4638 20.3119L10.4073 21.6472H12.3251H14.2429L14.2523 20.3586C14.2711 18.4444 14.5062 17.3052 15.183 15.9046C15.9069 14.4386 17.0726 13.2714 18.5674 12.5338C19.9399 11.8615 20.645 11.7121 22.4688 11.7214C23.8789 11.7214 24.0951 11.7401 24.8472 11.9642C26.389 12.431 27.5265 13.1594 28.4854 14.2985C29.3314 15.2977 30.0647 16.8664 30.3091 18.2016L30.3656 18.5378L28.7486 18.5938C27.8555 18.6312 25.3266 18.6592 23.1268 18.6592C20.6262 18.6592 18.9998 18.6965 18.7742 18.7619C18.3699 18.8739 17.8247 19.3128 17.6273 19.6863C17.0256 20.8348 17.7589 22.2448 19.0562 22.4502C19.5451 22.5249 20.1467 22.3568 20.5228 22.03L20.8236 21.7686L26.9624 21.7126L33.1106 21.6565L33.4867 21.4418C34.1259 21.0869 34.2387 20.7601 34.1917 19.4996C34.0695 16.5115 32.8756 13.7756 30.7886 11.6934C29.0776 9.99394 27.1034 8.99483 24.5934 8.57464L23.6627 8.42524L24.2173 8.10776C24.96 7.69691 25.7685 6.85653 26.1257 6.1282C27.3478 3.66309 25.9471 0.83382 23.1456 0.133505C22.3936 -0.0532475 21.8295 -0.0439091 21.0962 0.161516Z" fill="#EFE9E4"/>
<path d="M2.86753 8.44396C1.10015 8.71475 0.000244141 9.70453 0.000244141 11.0305C0.000244141 11.4506 0.216466 11.9922 0.498494 12.291C1.09075 12.926 2.19066 13.066 2.92394 12.6085C3.14956 12.4591 3.39398 12.2257 3.46919 12.0949C3.62901 11.7961 3.77002 11.7775 4.00505 12.0389C4.17426 12.2257 4.18366 12.5618 4.23067 22.1048C4.27767 32.8149 4.24947 32.1893 4.80413 32.5161C4.99215 32.6282 5.30238 32.6655 6.06385 32.6655C7.20137 32.6655 7.5116 32.5535 7.77482 32.0773C7.93464 31.7971 7.94404 31.2275 7.99105 24.5419C8.04745 17.492 8.05685 17.2866 8.25427 16.5396C8.79953 14.476 9.89004 13.0194 11.4036 12.3097C11.7138 12.1603 12.2403 11.7681 12.6539 11.3759C13.0488 11.0118 13.688 10.5076 14.0829 10.2554C14.4777 10.0033 14.8819 9.73254 14.9759 9.65784C15.2016 9.45242 15.1828 9.01355 14.9383 8.79879C14.7597 8.64005 14.5905 8.62138 13.547 8.63071C12.5411 8.64005 12.2497 8.6774 11.6104 8.88283C10.0499 9.39639 8.91234 10.2928 7.88764 11.8428C7.73722 12.0669 7.73722 12.0576 7.5774 11.3479C7.28597 10.05 6.36468 9.03223 5.12376 8.62138C4.65371 8.46264 3.39398 8.36926 2.86753 8.44396Z" fill="#B99D84"/>
<path d="M58.3522 8.58386C57.2899 8.79863 56.2746 9.48027 55.7951 10.2926C55.6729 10.5074 55.5037 10.9369 55.4097 11.2544L55.2499 11.8333L54.6952 11.3291C53.2381 9.99383 51.3109 9.07875 49.1299 8.70525C48.4812 8.5932 47.8701 8.56519 46.5822 8.60254C45.0874 8.63989 44.7584 8.67724 43.7807 8.92935C39.3529 10.0779 36.1942 13.4487 35.4891 17.7627C34.6806 22.7302 37.0872 27.455 41.4963 29.584C45.7831 31.6569 51.3109 31.022 54.5354 28.1086L55.2123 27.4924L55.1559 29.1171C55.1277 30.359 55.0618 30.9286 54.9114 31.4982C54.2064 34.178 52.345 35.8962 49.4213 36.5591C48.4342 36.7832 45.7361 36.7832 44.6644 36.5591C42.9158 36.1856 41.5715 35.5133 40.3682 34.4115C39.4845 33.5991 39.0426 33.3844 38.347 33.431C37.2471 33.5057 36.589 34.4488 36.8428 35.5787C36.918 35.9055 37.059 36.0922 37.5667 36.5685C39.2871 38.1652 41.7783 39.3604 44.326 39.8179C45.6703 40.0607 48.4906 40.0607 49.7785 39.8179C54.8268 38.8935 57.8821 35.9802 58.7094 31.3114C58.841 30.5831 58.8598 29.2945 58.8504 21.6471C58.8504 16.7916 58.8786 12.683 58.9068 12.515C58.9538 12.2722 59.0008 12.2162 59.1231 12.2722C59.4803 12.4216 60.3358 12.4216 60.6554 12.2722C62.1878 11.5439 62.1502 9.54563 60.5896 8.73326C60.1572 8.50916 59.0667 8.43446 58.3522 8.58386ZM49.5435 12.0761C50.4084 12.3002 51.7433 12.9538 52.4484 13.4767C53.2851 14.1117 53.9995 14.9987 54.526 16.0912C55.1747 17.4358 55.3251 18.1362 55.3157 19.7796C55.3063 21.3669 55.1277 22.17 54.526 23.3839C53.5577 25.3074 51.8749 26.6146 49.5717 27.2216C48.782 27.427 48.453 27.455 47.2403 27.455C46.0275 27.455 45.6985 27.427 44.8994 27.2122C42.5962 26.6146 40.9792 25.3447 39.9921 23.3745C39.005 21.3856 38.864 19.1166 39.5879 16.9316C40.4622 14.3171 42.6056 12.4963 45.4541 11.9454C46.2062 11.796 48.829 11.88 49.5435 12.0761Z" fill="#B99D84"/>
<path d="M70.1778 8.6772C67.9498 9.01336 65.6748 10.0965 64.0578 11.5905C62.1964 13.318 60.9743 15.5496 60.3821 18.2855C60.1376 19.4154 60.147 22.394 60.3915 23.5145C60.9555 26.1291 62.0084 28.1366 63.6912 29.8174C64.6783 30.8072 65.4586 31.3768 66.6149 31.965C68.2882 32.8147 70.0932 33.2256 72.152 33.2256C75.3202 33.2256 77.9054 32.2265 80.1052 30.1629L80.7539 29.5653V30.5737C80.7539 31.3674 80.8009 31.6756 80.9325 31.9837C81.1957 32.5533 81.4872 32.6653 82.6623 32.6653C83.5178 32.6653 83.6776 32.6373 83.8938 32.4692C84.4485 32.0397 84.4203 32.7214 84.4203 20.7973L84.4297 9.85373L84.1664 9.43354C83.5366 8.42509 82.07 8.28503 81.2522 9.15342C80.8667 9.55493 80.7539 9.9938 80.7539 11.0489V12.0481L80.0958 11.4505C78.8173 10.2926 77.0781 9.38686 75.2073 8.9013C74.3331 8.6772 74.0134 8.63985 72.4811 8.61184C71.5222 8.6025 70.4881 8.62118 70.1778 8.6772ZM73.7972 11.9734C75.4236 12.1321 77.1815 12.9164 78.3661 14.0183C79.5224 15.0828 80.2651 16.362 80.7257 18.0521C80.9607 18.9205 80.9795 19.1166 80.9795 20.9C80.9795 22.6648 80.9607 22.8796 80.7351 23.7013C79.9078 26.736 78.0464 28.6875 75.1415 29.5466C74.0228 29.8827 71.964 29.9668 70.7795 29.724C68.1002 29.1918 66.0414 27.567 64.8757 25.0833C63.6348 22.4501 63.663 19.1913 64.9603 16.5581C66.2858 13.8595 68.6925 12.2068 71.682 11.936C72.4153 11.8706 72.7255 11.88 73.7972 11.9734Z" fill="#B99D84"/>
<path d="M87.4746 8.73353C87.0233 8.96697 86.7601 9.2471 86.5439 9.6953C86.3464 10.1155 86.3464 10.1248 86.3652 20.0039C86.3746 27.2219 86.4122 30.0231 86.4969 30.3686C86.7695 31.5358 87.6062 32.5536 88.6309 32.9644C89.1103 33.1605 89.3171 33.1792 90.6239 33.1792C91.9118 33.1699 92.1468 33.1512 92.6075 32.9644C93.8578 32.4695 94.3278 31.3771 93.7638 30.2566C93.2185 29.1641 91.7802 28.8933 90.8495 29.7056L90.5111 29.9951L90.3324 29.7803C90.1632 29.5749 90.1538 29.2201 90.1538 19.9759C90.1538 9.3965 90.1726 9.76066 89.571 9.14438C89.4017 8.96697 89.1291 8.77088 88.9599 8.70552C88.5557 8.53744 87.8224 8.54678 87.4746 8.73353Z" fill="#B99D84"/>
<path d="M10.6238 23.1787C10.6238 23.2067 10.6896 23.4869 10.7648 23.8137C11.4605 26.7924 13.1902 29.3135 15.6533 30.9382C17.101 31.9 18.7274 32.5349 20.664 32.9084C21.6699 33.1045 24.0577 33.1325 25.1482 32.9551C28.5796 32.4136 32.575 30.5087 33.2707 29.0894C33.6843 28.249 33.4117 27.2686 32.6314 26.7643C32.2554 26.5216 32.1331 26.4936 31.6631 26.5216C31.099 26.5589 31.0614 26.5776 29.7359 27.586C27.7617 29.0801 25.5431 29.8084 23.033 29.8084C20.5982 29.799 18.671 29.0801 17.0352 27.5674C15.9165 26.5496 15.0986 25.2423 14.6568 23.767L14.4688 23.1414H12.551C11.4887 23.1414 10.6238 23.1601 10.6238 23.1787Z" fill="#EFE9E4"/>
<path d="M23.6995 34.1589C23.2577 34.2616 22.9381 34.6164 22.8722 35.0553C22.8064 35.5595 23.0885 35.8864 23.9251 36.2692C24.3012 36.4279 24.6302 36.6427 24.6678 36.7267C24.8464 37.1936 24.6302 37.5391 24.1038 37.6511C23.8405 37.7072 23.5115 37.6325 22.9098 37.3804C22.7594 37.315 22.7406 37.343 22.7688 37.5764C22.797 37.8099 22.8628 37.8659 23.3235 38.0246C23.8029 38.1927 23.8969 38.2021 24.2542 38.0807C24.8088 37.9033 25.0815 37.6605 25.1849 37.259C25.3541 36.68 25.1003 36.3346 24.2166 35.8864C23.3987 35.4755 23.2577 35.3354 23.3423 34.9806C23.4551 34.5604 24.1132 34.411 24.649 34.6818C24.9593 34.8405 25.1473 34.7565 25.0533 34.5137C24.9405 34.2336 24.1978 34.0375 23.6995 34.1589Z" fill="#EFE9E4"/>
<path d="M11.0562 34.2812C10.8211 34.4586 10.9622 34.7201 11.2912 34.7201H11.5638V36.3635V37.9976L11.827 37.9695L12.0809 37.9415L12.1279 36.6063L12.1749 35.2617L12.4851 34.9909C12.7107 34.7854 12.8799 34.7201 13.1714 34.7201C14.0081 34.7201 14.1397 34.9535 14.1961 36.6343L14.2431 37.9415H14.4781H14.7131L14.7601 36.681C14.7883 35.9246 14.8541 35.3364 14.9293 35.215C15.1174 34.8882 15.4276 34.7201 15.8694 34.7201C16.1985 34.7201 16.3301 34.7761 16.5557 34.9909L16.8283 35.2617V36.5129C16.8283 37.1945 16.8659 37.8108 16.9129 37.8762C16.9506 37.9509 17.0916 37.9882 17.2138 37.9695L17.4394 37.9415V36.5222C17.4394 34.9815 17.4018 34.8508 16.8189 34.4119C16.2831 34.0198 15.1268 34.1692 14.7883 34.6827L14.6473 34.9068L14.4499 34.6641C14.2149 34.3653 13.7542 34.1598 13.2936 34.1598C12.9081 34.1598 12.3253 34.4026 12.2501 34.5987C12.1843 34.7574 12.0339 34.7574 12.0339 34.5987C12.0339 34.2439 11.3946 34.0384 11.0562 34.2812Z" fill="#EFE9E4"/>
<path d="M19.4117 34.3275C18.7066 34.6636 18.3306 35.2893 18.3306 36.1203C18.3306 36.9233 18.6502 37.4836 19.2895 37.8104C20.0509 38.1932 21.038 38.1185 21.6303 37.6143C21.9405 37.3622 21.9405 37.3435 21.7807 37.1754C21.6491 37.0354 21.5927 37.026 21.4517 37.1288C20.4646 37.8384 19.2519 37.5489 18.9416 36.5125L18.8852 36.307H20.38C22.0533 36.307 22.1379 36.279 22.0345 35.7375C21.8559 34.813 21.2543 34.2621 20.333 34.1968C19.9193 34.1594 19.6937 34.1968 19.4117 34.3275ZM21.0004 35.0185C21.1791 35.1865 21.3483 35.42 21.3859 35.532L21.4423 35.7468H20.1732H18.8946L18.998 35.4947C19.2143 34.9344 19.5339 34.7383 20.239 34.729C20.615 34.7197 20.7278 34.7664 21.0004 35.0185Z" fill="#EFE9E4"/>
<path d="M27.1307 34.3001C25.8334 34.7576 25.4668 36.4851 26.4445 37.4655C27.8922 38.9035 30.2142 37.6336 29.7912 35.6353C29.5468 34.5242 28.2871 33.8892 27.1307 34.3001ZM28.7289 35.0097C29.4716 35.7007 29.3964 36.8212 28.5597 37.3441C28.3153 37.4842 28.1366 37.5215 27.7512 37.4935C27.3282 37.4655 27.1965 37.4095 26.9051 37.12C26.6137 36.8212 26.5667 36.7185 26.5385 36.2423C26.4915 35.5887 26.6983 35.1498 27.1777 34.8883C27.629 34.6362 28.3999 34.7016 28.7289 35.0097Z" fill="#EFE9E4"/>
<path d="M30.421 34.2802C30.2048 34.439 30.3176 34.7004 30.6184 34.7378L30.8535 34.7658L30.8441 36.2598C30.8347 37.0815 30.8723 37.8098 30.9193 37.8752C30.9569 37.9499 31.0979 37.9872 31.2201 37.9686C31.4457 37.9406 31.4457 37.9219 31.4927 36.6333C31.5209 35.9143 31.5773 35.2513 31.6243 35.158C31.8312 34.7191 32.7901 34.5697 33.2131 34.9059C33.5515 35.1766 33.6549 35.6155 33.6549 36.8948V37.9966L33.9182 37.9686L34.172 37.9406V36.5213C34.172 34.9712 34.1344 34.8498 33.5233 34.4016C33.1379 34.1122 32.179 34.1215 31.7748 34.4203L31.4833 34.6351L31.2953 34.4016C31.0791 34.1308 30.6937 34.0842 30.421 34.2802Z" fill="#EFE9E4"/>
</svg>
