<svg width="20" height="20" viewBox="0 0 20 20" fill="none" xmlns="http://www.w3.org/2000/svg">
<path d="M7.30088 18.5581H7.40922C11.1092 18.5581 12.8925 17.0997 13.2009 13.8331C13.2342 13.4914 12.9842 13.1831 12.6342 13.1497C12.3009 13.1164 11.9842 13.3747 11.9509 13.7164C11.7092 16.3331 10.4759 17.3081 7.40088 17.3081H7.29255C3.90088 17.3081 2.70088 16.1081 2.70088 12.7164V7.28307C2.70088 3.89141 3.90088 2.69141 7.29255 2.69141H7.40088C10.4925 2.69141 11.7259 3.68307 11.9509 6.34974C11.9925 6.69141 12.2842 6.94974 12.6342 6.91641C12.9842 6.89141 13.2342 6.58307 13.2092 6.24141C12.9259 2.92474 11.1342 1.44141 7.40922 1.44141H7.30088C3.20922 1.44141 1.45922 3.19141 1.45922 7.28307V12.7164C1.45922 16.8081 3.20922 18.5581 7.30088 18.5581Z" fill="#FF8585"/>
<path d="M7.50104 10.625H16.9844C17.326 10.625 17.6094 10.3417 17.6094 10C17.6094 9.65833 17.326 9.375 16.9844 9.375H7.50104C7.15937 9.375 6.87604 9.65833 6.87604 10C6.87604 10.3417 7.15937 10.625 7.50104 10.625Z" fill="#FF8585"/>
<path d="M15.1245 13.4172C15.2828 13.4172 15.4411 13.3589 15.5661 13.2339L18.3578 10.4422C18.5995 10.2005 18.5995 9.80052 18.3578 9.55885L15.5661 6.76719C15.3245 6.52552 14.9245 6.52552 14.6828 6.76719C14.4411 7.00885 14.4411 7.40885 14.6828 7.65052L17.0328 10.0005L14.6828 12.3505C14.4411 12.5922 14.4411 12.9922 14.6828 13.2339C14.7995 13.3589 14.9661 13.4172 15.1245 13.4172Z" fill="#FF8585"/>
</svg>
