<svg width="20" height="20" viewBox="0 0 20 20" fill="none" xmlns="http://www.w3.org/2000/svg">
<path d="M17.5 6.45847H2.5C2.15833 6.45847 1.875 6.17513 1.875 5.83347C1.875 5.4918 2.15833 5.20847 2.5 5.20847H17.5C17.8417 5.20847 18.125 5.4918 18.125 5.83347C18.125 6.17513 17.8417 6.45847 17.5 6.45847Z" fill="#3C3D45"/>
<path d="M17.5 10.6251H2.5C2.15833 10.6251 1.875 10.3418 1.875 10.0001C1.875 9.65846 2.15833 9.37513 2.5 9.37513H17.5C17.8417 9.37513 18.125 9.65846 18.125 10.0001C18.125 10.3418 17.8417 10.6251 17.5 10.6251Z" fill="#3C3D45"/>
<path d="M17.5 14.7918H2.5C2.15833 14.7918 1.875 14.5085 1.875 14.1668C1.875 13.8251 2.15833 13.5418 2.5 13.5418H17.5C17.8417 13.5418 18.125 13.8251 18.125 14.1668C18.125 14.5085 17.8417 14.7918 17.5 14.7918Z" fill="#3C3D45"/>
</svg>
