<svg width="20" height="20" viewBox="0 0 20 20" fill="none" xmlns="http://www.w3.org/2000/svg">
<path d="M12.4987 18.9582H7.4987C3.8237 18.9582 2.70703 17.8415 2.70703 14.1665V5.83317C2.70703 2.15817 3.8237 1.0415 7.4987 1.0415H12.4987C16.1737 1.0415 17.2904 2.15817 17.2904 5.83317V14.1665C17.2904 17.8415 16.1737 18.9582 12.4987 18.9582ZM7.4987 2.2915C4.51536 2.2915 3.95703 2.85817 3.95703 5.83317V14.1665C3.95703 17.1415 4.51536 17.7082 7.4987 17.7082H12.4987C15.482 17.7082 16.0404 17.1415 16.0404 14.1665V5.83317C16.0404 2.85817 15.482 2.2915 12.4987 2.2915H7.4987Z" fill="#6D6D74"/>
<path d="M11.6654 5.2085H8.33203C7.99036 5.2085 7.70703 4.92516 7.70703 4.5835C7.70703 4.24183 7.99036 3.9585 8.33203 3.9585H11.6654C12.007 3.9585 12.2904 4.24183 12.2904 4.5835C12.2904 4.92516 12.007 5.2085 11.6654 5.2085Z" fill="#6D6D74"/>
<path d="M9.9987 16.5501C8.94036 16.5501 8.08203 15.6918 8.08203 14.6335C8.08203 13.5751 8.94036 12.7168 9.9987 12.7168C11.057 12.7168 11.9154 13.5751 11.9154 14.6335C11.9154 15.6918 11.057 16.5501 9.9987 16.5501ZM9.9987 13.9585C9.63203 13.9585 9.33203 14.2585 9.33203 14.6251C9.33203 14.9918 9.63203 15.2918 9.9987 15.2918C10.3654 15.2918 10.6654 14.9918 10.6654 14.6251C10.6654 14.2585 10.3654 13.9585 9.9987 13.9585Z" fill="#6D6D74"/>
</svg>
