<svg width="128" height="116" viewBox="0 0 128 116" fill="none" xmlns="http://www.w3.org/2000/svg">
<path opacity="0.67" d="M56.5041 10.134V19.863C55.0954 19.588 53.6439 19.6229 52.25 19.9655V10.134H56.5041Z" fill="url(#paint0_linear_2332_30006)"/>
<path d="M64.2336 27.464H44.9922C45.47 25.2634 46.6849 23.2929 48.4351 21.8799C50.1852 20.4668 52.3652 19.6963 54.6129 19.6963C56.8606 19.6963 59.0406 20.4668 60.7908 21.8799C62.5409 23.2929 63.7558 25.2634 64.2336 27.464Z" fill="url(#paint1_linear_2332_30006)"/>
<path d="M65.6079 27.4639H43.6148C43.3533 27.4639 43.1025 27.5679 42.9177 27.7532C42.7328 27.9384 42.6289 28.1897 42.6289 28.4516V42.5506H66.5938V28.458C66.5944 28.3278 66.5695 28.1988 66.5202 28.0783C66.471 27.9578 66.3985 27.8482 66.3069 27.7558C66.2153 27.6634 66.1064 27.5901 65.9865 27.54C65.8665 27.4899 65.7379 27.464 65.6079 27.4639ZM58.3809 42.5493H50.8457V36.3038C50.8457 35.4362 51.1895 34.6041 51.8017 33.9905C52.4139 33.3769 53.2442 33.0321 54.1101 33.0317H55.1151C55.9812 33.0321 56.8116 33.3769 57.424 33.9904C58.0363 34.604 58.3805 35.4361 58.3809 36.3038V42.5493Z" fill="url(#paint2_linear_2332_30006)"/>
<path opacity="0.67" d="M58.379 36.3043V42.5498H50.8438V36.3043C50.8437 35.4367 51.1876 34.6046 51.7998 33.991C52.412 33.3774 53.2423 33.0326 54.1082 33.0322H55.1132C55.9793 33.0326 56.8097 33.3774 57.4221 33.991C58.0344 34.6045 58.3786 35.4366 58.379 36.3043Z" fill="url(#paint3_linear_2332_30006)"/>
<path d="M77.4676 101.512C76.3884 101.512 75.4217 101.53 75.2939 101.53C74.9998 101.53 72.3951 98.1815 72.1969 98.0342C71.9987 97.8868 61.2374 98.0342 60.451 98.1815C59.6647 98.3288 58.9281 101.828 58.4844 102.122C58.0407 102.417 55.7839 100.448 55.1446 99.8649C54.5052 99.282 44.1838 99.2167 43.1519 99.2167C42.12 99.2167 40.2084 101.038 38.7776 102.27C37.5564 103.327 33.3701 102.063 31.1797 102.117L32.388 95.3028L35.9108 75.4451L36.9529 69.5646L40.3401 50.4756H68.4146L71.8005 69.5646L72.8439 75.4451L76.3667 95.3028L77.4676 101.512Z" fill="url(#paint4_linear_2332_30006)"/>
<path d="M70.9077 42.5498H37.8451C37.415 42.5498 37.0664 42.8991 37.0664 43.33V49.696C37.0664 50.1269 37.415 50.4762 37.8451 50.4762H70.9077C71.3378 50.4762 71.6864 50.1269 71.6864 49.696V43.33C71.6864 42.8991 71.3378 42.5498 70.9077 42.5498Z" fill="url(#paint5_linear_2332_30006)"/>
<path d="M46.6149 55.5889H47.6825C47.9143 55.589 48.1438 55.635 48.3578 55.7241C48.5719 55.8132 48.7663 55.9437 48.9299 56.1081C49.0936 56.2726 49.2232 56.4677 49.3116 56.6824C49.3999 56.8971 49.4451 57.1272 49.4446 57.3594V64.4569H44.8516V57.3594C44.8511 57.1271 44.8963 56.8969 44.9847 56.6821C45.0731 56.4674 45.2029 56.2721 45.3667 56.1077C45.5304 55.9432 45.725 55.8127 45.9392 55.7237C46.1534 55.6347 46.383 55.5889 46.6149 55.5889Z" fill="url(#paint6_linear_2332_30006)"/>
<path d="M46.6148 80.5605H47.6825C48.1502 80.5605 48.5987 80.7467 48.9294 81.078C49.2601 81.4093 49.4458 81.8587 49.4458 82.3272V91.2952H44.8516V82.3272C44.8516 82.0952 44.8972 81.8655 44.9858 81.6512C45.0744 81.4368 45.2043 81.2421 45.368 81.078C45.5318 80.9139 45.7261 80.7838 45.9401 80.695C46.154 80.6062 46.3833 80.5605 46.6148 80.5605Z" fill="url(#paint7_linear_2332_30006)"/>
<path d="M72.8434 75.4468H35.9141L36.9575 69.5664H71.8L72.8434 75.4468Z" fill="url(#paint8_linear_2332_30006)"/>
<path d="M77.4676 101.512C76.3884 101.512 75.4217 101.53 75.2939 101.53C74.9998 101.53 72.3951 98.1815 72.1969 98.0341C71.9987 97.8868 61.2374 98.0341 60.451 98.1815C59.6647 98.3288 58.9281 101.828 58.4844 102.122C58.0407 102.417 55.7839 100.448 55.1446 99.8649C54.5052 99.282 44.1838 99.2166 43.1519 99.2166C42.12 99.2166 40.2084 101.038 38.7776 102.27C37.5564 103.327 33.3701 102.063 31.1797 102.117L32.388 95.3027H76.3705L77.4676 101.512Z" fill="url(#paint9_linear_2332_30006)"/>
<path d="M41.3649 34.2619V42.5496H39.5352V34.2619C39.544 34.0247 39.6443 33.8002 39.8149 33.6356C39.9855 33.4709 40.2132 33.3789 40.45 33.3789C40.6869 33.3789 40.9146 33.4709 41.0852 33.6356C41.2558 33.8002 41.3561 34.0247 41.3649 34.2619Z" fill="url(#paint10_linear_2332_30006)"/>
<path d="M48.141 34.2618V42.5495H46.3125V34.2618C46.3125 34.0188 46.4088 33.7858 46.5803 33.6141C46.7517 33.4423 46.9843 33.3458 47.2267 33.3458C47.4692 33.3458 47.7018 33.4423 47.8732 33.6141C48.0447 33.7858 48.141 34.0188 48.141 34.2618Z" fill="url(#paint11_linear_2332_30006)"/>
<path d="M55.5251 34.2619V42.5496H53.6953V34.2619C53.7042 34.0247 53.8044 33.8002 53.975 33.6356C54.1456 33.4709 54.3733 33.3789 54.6102 33.3789C54.8471 33.3789 55.0748 33.4709 55.2454 33.6356C55.416 33.8002 55.5162 34.0247 55.5251 34.2619Z" fill="url(#paint12_linear_2332_30006)"/>
<path d="M62.3051 34.2617V42.5494H60.4766V34.2617C60.4766 34.0188 60.5729 33.7858 60.7443 33.614C60.9158 33.4422 61.1483 33.3457 61.3908 33.3457C61.6333 33.3457 61.8658 33.4422 62.0373 33.614C62.2087 33.7858 62.3051 34.0188 62.3051 34.2617Z" fill="url(#paint13_linear_2332_30006)"/>
<path d="M69.6892 34.2619V42.5496H67.8594V34.2619C67.8682 34.0247 67.9685 33.8002 68.1391 33.6356C68.3097 33.4709 68.5374 33.3789 68.7743 33.3789C69.0112 33.3789 69.2388 33.4709 69.4094 33.6356C69.58 33.8002 69.6803 34.0247 69.6892 34.2619Z" fill="url(#paint14_linear_2332_30006)"/>
<path d="M46.3105 36.3721H41.3633V37.7775H46.3105V36.3721Z" fill="url(#paint15_linear_2332_30006)"/>
<path d="M53.6977 36.3721H48.1406V37.7775H53.6977V36.3721Z" fill="url(#paint16_linear_2332_30006)"/>
<path d="M60.4784 36.3721H55.5312V37.7775H60.4784V36.3721Z" fill="url(#paint17_linear_2332_30006)"/>
<path d="M67.8579 36.3721H62.3008V37.7775H67.8579V36.3721Z" fill="url(#paint18_linear_2332_30006)"/>
<path d="M56.5042 10.4953V10.1341H52.2539C52.273 9.57396 52.5106 9.0437 52.9156 8.65714C53.3206 8.27059 53.8607 8.05858 54.42 8.06663C54.9793 8.07468 55.5131 8.30215 55.9069 8.7002C56.3006 9.09825 56.5229 9.63514 56.5259 10.1956C56.5265 10.2959 56.5193 10.3961 56.5042 10.4953Z" fill="url(#paint19_linear_2332_30006)"/>
<path d="M54.8028 16.0656C55.449 16.0656 55.9728 15.1404 55.9728 13.9991C55.9728 12.8578 55.449 11.9326 54.8028 11.9326C54.1566 11.9326 53.6328 12.8578 53.6328 13.9991C53.6328 15.1404 54.1566 16.0656 54.8028 16.0656Z" fill="url(#paint20_linear_2332_30006)"/>
<path d="M54.8047 11.9317L104.311 1.6416V34.0276L54.8047 16.066V11.9317Z" fill="url(#paint21_linear_2332_30006)"/>
<path d="M97.3935 114.359H21.3125L22.0273 109.866C22.1818 108.899 22.6816 108.022 23.4338 107.397C25.3518 105.803 29.0894 102.773 30.2747 102.273C30.5641 102.167 30.8706 102.115 31.1787 102.12C33.3691 102.066 37.5555 103.329 38.7766 102.273C40.2036 101.041 42.119 99.2196 43.1522 99.2196C44.1854 99.2196 54.5055 99.2824 55.1449 99.8678C55.7842 100.453 58.0449 102.42 58.486 102.125C58.9272 101.831 59.6675 98.3343 60.4526 98.1844C61.2377 98.0345 72.0029 97.8898 72.1985 98.0371C72.3941 98.1844 75.0014 101.533 75.2955 101.533C75.4233 101.533 76.3836 101.517 77.4692 101.515C78.9128 101.515 80.5687 101.541 80.7093 101.681C80.9548 101.929 84.6208 104.427 84.6208 104.427C84.6208 104.427 90.908 104.612 91.5704 105.128C92.2327 105.645 97.3935 114.359 97.3935 114.359Z" fill="url(#paint22_linear_2332_30006)"/>
<path d="M31.0772 110.002C33.5404 110.002 35.5372 109.39 35.5372 108.635C35.5372 107.88 33.5404 107.268 31.0772 107.268C28.614 107.268 26.6172 107.88 26.6172 108.635C26.6172 109.39 28.614 110.002 31.0772 110.002Z" fill="#B1B8BC"/>
<path d="M35.1659 106.407C36.211 106.407 37.0583 106.032 37.0583 105.57C37.0583 105.108 36.211 104.733 35.1659 104.733C34.1207 104.733 33.2734 105.108 33.2734 105.57C33.2734 106.032 34.1207 106.407 35.1659 106.407Z" fill="#B1B8BC"/>
<path d="M39.8865 108.032C40.443 108.032 40.8941 107.861 40.8941 107.65C40.8941 107.439 40.443 107.269 39.8865 107.269C39.33 107.269 38.8789 107.439 38.8789 107.65C38.8789 107.861 39.33 108.032 39.8865 108.032Z" fill="#B1B8BC"/>
<path d="M37.9737 109.312C38.1771 109.312 38.342 109.161 38.342 108.974C38.342 108.787 38.1771 108.636 37.9737 108.636C37.7703 108.636 37.6055 108.787 37.6055 108.974C37.6055 109.161 37.7703 109.312 37.9737 109.312Z" fill="#B1B8BC"/>
<path d="M63.7751 105.027C65.3358 105.027 66.6009 104.751 66.6009 104.412C66.6009 104.072 65.3358 103.797 63.7751 103.797C62.2144 103.797 60.9492 104.072 60.9492 104.412C60.9492 104.751 62.2144 105.027 63.7751 105.027Z" fill="#B1B8BC"/>
<path d="M69.6491 105.569C70.219 105.569 70.681 105.448 70.681 105.299C70.681 105.149 70.219 105.028 69.6491 105.028C69.0792 105.028 68.6172 105.149 68.6172 105.299C68.6172 105.448 69.0792 105.569 69.6491 105.569Z" fill="#B1B8BC"/>
<path d="M56.9163 105.077C57.595 105.077 58.1451 104.928 58.1451 104.745C58.1451 104.562 57.595 104.413 56.9163 104.413C56.2377 104.413 55.6875 104.562 55.6875 104.745C55.6875 104.928 56.2377 105.077 56.9163 105.077Z" fill="#B1B8BC"/>
<path d="M55.8138 102.693C56.2071 102.693 56.526 102.62 56.526 102.531C56.526 102.441 56.2071 102.368 55.8138 102.368C55.4204 102.368 55.1016 102.441 55.1016 102.531C55.1016 102.62 55.4204 102.693 55.8138 102.693Z" fill="#B1B8BC"/>
<path d="M76.5512 109.657C77.6776 109.657 78.5907 109.428 78.5907 109.146C78.5907 108.864 77.6776 108.635 76.5512 108.635C75.4248 108.635 74.5117 108.864 74.5117 109.146C74.5117 109.428 75.4248 109.657 76.5512 109.657Z" fill="#B1B8BC"/>
<path d="M69.2585 110.444C69.8283 110.444 70.2903 110.345 70.2903 110.223C70.2903 110.101 69.8283 110.002 69.2585 110.002C68.6886 110.002 68.2266 110.101 68.2266 110.223C68.2266 110.345 68.6886 110.444 69.2585 110.444Z" fill="#B1B8BC"/>
<path d="M84.8597 105.027C85.2806 105.027 85.6218 104.961 85.6218 104.879C85.6218 104.798 85.2806 104.732 84.8597 104.732C84.4389 104.732 84.0977 104.798 84.0977 104.879C84.0977 104.961 84.4389 105.027 84.8597 105.027Z" fill="#B1B8BC"/>
<path d="M79.7476 73.4535C74.5217 73.4535 68.7382 72.2262 65.5275 67.5859C64.4649 66.0485 64.1082 64.1204 64.5736 62.4203C65.1362 60.3705 67.0926 58.7473 69.2254 58.5769C69.7796 58.5338 70.3364 58.6163 70.8544 58.8184C71.3724 59.0204 71.8383 59.3368 72.2175 59.744C72.6945 60.2475 73.0574 60.8482 73.2814 61.5051C73.5054 62.162 73.5852 62.8597 73.5154 63.5503C73.3095 65.3875 71.6945 66.4073 70.2049 66.4649C68.618 66.529 67.4046 65.5681 67.1092 64.0307C67.0988 63.9809 67.0984 63.9294 67.108 63.8793C67.1176 63.8293 67.137 63.7817 67.1652 63.7392C67.1934 63.6968 67.2297 63.6604 67.272 63.6321C67.3143 63.6039 67.3618 63.5843 67.4118 63.5746C67.4617 63.565 67.5131 63.5653 67.5629 63.5757C67.6127 63.5861 67.6599 63.6063 67.7018 63.6352C67.7438 63.664 67.7796 63.7009 67.8071 63.7438C67.8347 63.7866 67.8534 63.8345 67.8623 63.8847C68.1296 65.2773 69.2318 65.7347 70.1755 65.6962C71.3365 65.6514 72.596 64.8699 72.7533 63.4632C72.8113 62.885 72.7443 62.3011 72.5567 61.7513C72.3692 61.2015 72.0655 60.6986 71.6664 60.277C71.3653 59.9524 70.9953 59.6998 70.5836 59.5379C70.1719 59.376 69.7291 59.309 69.2881 59.3418C67.4979 59.4865 65.7858 60.8983 65.3139 62.6253C64.9137 64.0858 65.2372 65.8192 66.1579 67.149C70.7048 73.72 80.8869 73.05 86.5514 72.0648C94.0163 70.767 101.049 67.1542 106.355 61.8912C106.429 61.8236 106.525 61.7871 106.624 61.7893C106.724 61.7915 106.818 61.8323 106.888 61.9031C106.958 61.9738 106.998 62.0691 106.999 62.1687C107.001 62.2683 106.963 62.3645 106.895 62.437C101.479 67.8101 94.3002 71.4972 86.6831 72.8219C84.3932 73.2278 82.0731 73.4391 79.7476 73.4535ZM31.6363 85.5757C31.1594 85.5757 30.6837 85.5642 30.2067 85.5437C28.267 85.4566 25.7979 85.1171 23.9106 83.2505C22.7252 82.0769 21.6179 80.0988 21.8161 78.3257C21.9299 77.3124 22.4695 76.4796 23.3774 75.9146C24.3543 75.3074 25.5716 75.4637 26.4781 76.3143C27.2696 77.0548 27.7785 78.3475 27.1328 79.562C26.7837 80.2193 26.0741 80.6574 25.4104 80.6305C24.8734 80.6074 24.4323 80.282 24.1995 79.7337C24.1595 79.6399 24.1583 79.5341 24.1962 79.4394C24.2341 79.3447 24.308 79.269 24.4016 79.2289C24.4952 79.1888 24.6008 79.1876 24.6953 79.2256C24.7898 79.2636 24.8654 79.3376 24.9054 79.4314C25.0243 79.7107 25.2007 79.8516 25.4437 79.8618C25.8145 79.8759 26.2467 79.5928 26.4564 79.1995C26.9103 78.3437 26.5318 77.4148 25.9539 76.8742C25.4424 76.3925 24.5998 76.0581 23.7801 76.5667C23.0705 77.0087 22.6651 77.6288 22.5782 78.4103C22.4107 79.9208 23.4336 81.7015 24.4566 82.7034C26.1572 84.3868 28.4447 84.6943 30.2477 84.775C32.9381 84.8955 35.6328 84.6673 38.2649 84.096C38.3645 84.0743 38.4685 84.093 38.5543 84.1482C38.64 84.2033 38.7004 84.2903 38.7221 84.39C38.7438 84.4897 38.725 84.594 38.67 84.6799C38.615 84.7658 38.5281 84.8263 38.4286 84.848C36.1967 85.3317 33.9198 85.5756 31.6363 85.5757ZM81.2385 77.0113C77.4231 77.0129 73.6195 76.5853 69.8993 75.7365C69.8495 75.726 69.8023 75.7057 69.7604 75.6767C69.7186 75.6477 69.6829 75.6107 69.6555 75.5678C69.628 75.5248 69.6094 75.4769 69.6006 75.4267C69.5919 75.3764 69.5932 75.325 69.6045 75.2753C69.6157 75.2256 69.6368 75.1786 69.6663 75.1371C69.6959 75.0957 69.7334 75.0605 69.7767 75.0337C69.8199 75.0068 69.8681 74.9889 69.9183 74.9809C69.9686 74.9729 70.0199 74.975 70.0693 74.9871C77.9116 76.7711 86.0659 76.6511 93.8526 74.6373C93.9014 74.6246 93.9522 74.6217 94.0021 74.6286C94.052 74.6356 94.1001 74.6524 94.1436 74.6779C94.187 74.7035 94.225 74.7374 94.2554 74.7777C94.2858 74.818 94.3079 74.8639 94.3206 74.9128C94.3333 74.9616 94.3363 75.0125 94.3293 75.0625C94.3223 75.1126 94.3056 75.1607 94.2801 75.2043C94.2546 75.2478 94.2207 75.2859 94.1805 75.3163C94.1403 75.3468 94.0945 75.369 94.0457 75.3817C89.8625 76.4649 85.5592 77.0125 81.2385 77.0113ZM85.8047 45.0224C83.7959 45.0224 81.7717 44.7431 80.2169 43.3838C78.3654 41.7657 77.3501 38.8345 79.1134 36.5874C79.653 35.8994 80.3921 35.4459 81.1529 35.3408C82.0479 35.2127 82.9558 35.597 83.411 36.3017C83.9225 37.0921 83.7601 38.2234 83.0517 38.7627C82.8584 38.9002 82.6389 38.9963 82.4069 39.045C82.1749 39.0937 81.9354 39.0941 81.7033 39.046C81.4711 38.9979 81.2514 38.9024 81.0577 38.7655C80.864 38.6287 80.7005 38.4533 80.5775 38.2503C80.5281 38.1611 80.5162 38.0559 80.5442 37.9579C80.5723 37.8599 80.638 37.777 80.7271 37.7276C80.8161 37.6781 80.9211 37.6662 81.0189 37.6943C81.1167 37.7224 81.1994 37.7883 81.2488 37.8775C81.3175 37.9845 81.4068 38.0767 81.5115 38.1488C81.6161 38.221 81.734 38.2716 81.8583 38.2977C81.9826 38.3238 82.1109 38.3249 82.2356 38.3009C82.3604 38.2769 82.4791 38.2284 82.585 38.158C82.9814 37.8557 83.0658 37.1869 82.7678 36.7283C82.4699 36.2696 81.8548 36.0249 81.2577 36.1082C80.6964 36.1864 80.1338 36.5361 79.7156 37.0691C78.2989 38.8755 79.1147 41.407 80.7219 42.8112C82.6003 44.4536 85.4147 44.3139 87.8979 44.1897C88.2533 44.173 88.6024 44.1551 88.9425 44.1435L89.3798 44.1282C92.7363 44.009 96.2079 43.8873 99.5824 43.5312C99.6841 43.5205 99.7859 43.5507 99.8654 43.6152C99.9449 43.6797 99.9956 43.7732 100.006 43.8752C100.017 43.9771 99.9867 44.0791 99.9224 44.1587C99.858 44.2384 99.7646 44.2891 99.6629 44.2998C96.2604 44.6573 92.7773 44.7803 89.4067 44.8994L88.9694 44.9148C88.6331 44.9276 88.2878 44.9443 87.9349 44.9622C87.2393 44.9865 86.5246 45.0224 85.8047 45.0224Z" fill="#B1B8BC"/>
<path d="M29.1865 30.1401C33.8502 30.1401 37.6309 26.3521 37.6309 21.6794C37.6309 17.0067 33.8502 13.2188 29.1865 13.2188C24.5229 13.2188 20.7422 17.0067 20.7422 21.6794C20.7422 26.3521 24.5229 30.1401 29.1865 30.1401Z" fill="url(#paint23_linear_2332_30006)"/>
<g opacity="0.67">
<path d="M25.9205 17.7953C26.513 17.7953 26.9933 17.314 26.9933 16.7204C26.9933 16.1267 26.513 15.6455 25.9205 15.6455C25.328 15.6455 24.8477 16.1267 24.8477 16.7204C24.8477 17.314 25.328 17.7953 25.9205 17.7953Z" fill="url(#paint24_linear_2332_30006)"/>
<path d="M28.9561 16.4875C29.2597 16.4875 29.5059 16.2409 29.5059 15.9366C29.5059 15.6324 29.2597 15.3857 28.9561 15.3857C28.6524 15.3857 28.4062 15.6324 28.4062 15.9366C28.4062 16.2409 28.6524 16.4875 28.9561 16.4875Z" fill="url(#paint25_linear_2332_30006)"/>
<path d="M30.1759 21.3421C31.1533 21.3421 31.9456 20.5483 31.9456 19.569C31.9456 18.5897 31.1533 17.7959 30.1759 17.7959C29.1986 17.7959 28.4062 18.5897 28.4062 19.569C28.4062 20.5483 29.1986 21.3421 30.1759 21.3421Z" fill="url(#paint26_linear_2332_30006)"/>
</g>
<g opacity="0.59">
<path d="M20.581 54.797C20.7702 54.797 20.9236 54.6433 20.9236 54.4537C20.9236 54.2641 20.7702 54.1104 20.581 54.1104C20.3917 54.1104 20.2383 54.2641 20.2383 54.4537C20.2383 54.6433 20.3917 54.797 20.581 54.797Z" fill="url(#paint27_linear_2332_30006)"/>
<path d="M29.4775 53.3248C30 53.3248 30.4237 52.9003 30.4237 52.3768C30.4237 51.8532 30 51.4287 29.4775 51.4287C28.9549 51.4287 28.5312 51.8532 28.5312 52.3768C28.5312 52.9003 28.9549 53.3248 29.4775 53.3248Z" fill="url(#paint28_linear_2332_30006)"/>
<path d="M25.4825 60.2889C25.8526 60.2889 26.1525 59.9884 26.1525 59.6176C26.1525 59.2468 25.8526 58.9463 25.4825 58.9463C25.1125 58.9463 24.8125 59.2468 24.8125 59.6176C24.8125 59.9884 25.1125 60.2889 25.4825 60.2889Z" fill="url(#paint29_linear_2332_30006)"/>
<path d="M75.7982 52.0314C75.9931 52.0314 76.1511 51.8731 76.1511 51.6778C76.1511 51.4825 75.9931 51.3242 75.7982 51.3242C75.6033 51.3242 75.4453 51.4825 75.4453 51.6778C75.4453 51.8731 75.6033 52.0314 75.7982 52.0314Z" fill="url(#paint30_linear_2332_30006)"/>
<path d="M79.7944 60.2896C80.4596 60.2896 80.9989 59.7493 80.9989 59.0828C80.9989 58.4163 80.4596 57.876 79.7944 57.876C79.1291 57.876 78.5898 58.4163 78.5898 59.0828C78.5898 59.7493 79.1291 60.2896 79.7944 60.2896Z" fill="url(#paint31_linear_2332_30006)"/>
<path d="M82.5863 50.7433C82.9295 50.7433 83.2077 50.4646 83.2077 50.1207C83.2077 49.7768 82.9295 49.498 82.5863 49.498C82.2431 49.498 81.9648 49.7768 81.9648 50.1207C81.9648 50.4646 82.2431 50.7433 82.5863 50.7433Z" fill="url(#paint32_linear_2332_30006)"/>
<path d="M89.0553 54.1093C89.2714 54.1093 89.4466 53.9337 89.4466 53.7172C89.4466 53.5007 89.2714 53.3252 89.0553 53.3252C88.8392 53.3252 88.6641 53.5007 88.6641 53.7172C88.6641 53.9337 88.8392 54.1093 89.0553 54.1093Z" fill="url(#paint33_linear_2332_30006)"/>
<path d="M95.6673 58.947C95.9625 58.947 96.2018 58.7073 96.2018 58.4115C96.2018 58.1157 95.9625 57.876 95.6673 57.876C95.3721 57.876 95.1328 58.1157 95.1328 58.4115C95.1328 58.7073 95.3721 58.947 95.6673 58.947Z" fill="url(#paint34_linear_2332_30006)"/>
<path d="M86.5079 65.3958C87.2113 65.3958 87.7815 64.8245 87.7815 64.1198C87.7815 63.415 87.2113 62.8438 86.5079 62.8438C85.8046 62.8438 85.2344 63.415 85.2344 64.1198C85.2344 64.8245 85.8046 65.3958 86.5079 65.3958Z" fill="url(#paint35_linear_2332_30006)"/>
<path d="M72.837 27.4656C73.4719 27.4656 73.9865 26.95 73.9865 26.3139C73.9865 25.6778 73.4719 25.1621 72.837 25.1621C72.2022 25.1621 71.6875 25.6778 71.6875 26.3139C71.6875 26.95 72.2022 27.4656 72.837 27.4656Z" fill="url(#paint36_linear_2332_30006)"/>
<path d="M41.7494 13.9993C41.9648 13.9993 42.1394 13.8243 42.1394 13.6085C42.1394 13.3927 41.9648 13.2178 41.7494 13.2178C41.534 13.2178 41.3594 13.3927 41.3594 13.6085C41.3594 13.8243 41.534 13.9993 41.7494 13.9993Z" fill="url(#paint37_linear_2332_30006)"/>
<path d="M47.443 6.53902C47.8278 6.53902 48.1398 6.22642 48.1398 5.8408C48.1398 5.45518 47.8278 5.14258 47.443 5.14258C47.0581 5.14258 46.7461 5.45518 46.7461 5.8408C46.7461 6.22642 47.0581 6.53902 47.443 6.53902Z" fill="url(#paint38_linear_2332_30006)"/>
<path d="M19.3181 100.95C19.8562 100.95 20.2924 100.513 20.2924 99.9741C20.2924 99.4349 19.8562 98.9979 19.3181 98.9979C18.78 98.9979 18.3438 99.4349 18.3438 99.9741C18.3438 100.513 18.78 100.95 19.3181 100.95Z" fill="url(#paint39_linear_2332_30006)"/>
<path d="M22.8737 96.9145C23.0305 96.9145 23.1576 96.7872 23.1576 96.6301C23.1576 96.473 23.0305 96.3457 22.8737 96.3457C22.7169 96.3457 22.5898 96.473 22.5898 96.6301C22.5898 96.7872 22.7169 96.9145 22.8737 96.9145Z" fill="url(#paint40_linear_2332_30006)"/>
<path d="M25.1188 100.264C25.5425 100.264 25.886 99.9198 25.886 99.4952C25.886 99.0707 25.5425 98.7266 25.1188 98.7266C24.6951 98.7266 24.3516 99.0707 24.3516 99.4952C24.3516 99.9198 24.6951 100.264 25.1188 100.264Z" fill="url(#paint41_linear_2332_30006)"/>
<path d="M81.6009 88.8481C82.4053 88.8481 83.0573 88.1948 83.0573 87.3889C83.0573 86.583 82.4053 85.9297 81.6009 85.9297C80.7966 85.9297 80.1445 86.583 80.1445 87.3889C80.1445 88.1948 80.7966 88.8481 81.6009 88.8481Z" fill="url(#paint42_linear_2332_30006)"/>
</g>
<path d="M117.633 92.8599C117.196 92.8089 116.756 92.7837 116.315 92.7844H98.406C95.4838 92.4495 92.7981 91.0135 90.8937 88.7676C88.9893 86.5218 88.0089 83.6342 88.1512 80.6907C88.2935 77.7472 89.548 74.9681 91.6602 72.9172C93.7723 70.8663 96.584 69.6972 99.5248 69.6469H116.315C116.38 69.6469 116.443 69.6469 116.513 69.6469C119.586 69.6206 122.522 68.3724 124.676 66.1769C126.83 63.9814 128.026 61.0184 128 57.9398C127.973 54.8613 126.727 51.9192 124.536 49.761C122.345 47.6027 119.388 46.405 116.315 46.4313H106.05C102.998 46.3992 100.083 45.1621 97.9361 42.9887C95.7896 40.8153 94.5856 37.8811 94.5856 34.8235C94.5856 31.7659 95.7896 28.8317 97.9361 26.6584C100.083 24.485 102.998 23.2479 106.05 23.2157H106.29C109.342 23.1836 112.258 21.9465 114.404 19.7731C116.551 17.5997 117.755 14.6656 117.755 11.6079C117.755 8.55031 116.551 5.61615 114.404 3.44276C112.258 1.26936 109.342 0.0322551 106.29 0.000133975H20.9927C17.9202 -0.0146465 14.9677 1.19407 12.7847 3.36039C10.6017 5.5267 9.36703 8.47315 9.35228 11.5516C9.33753 14.63 10.5439 17.5882 12.706 19.7754C14.8682 21.9626 17.8089 23.1997 20.8814 23.2144C20.6556 21.9685 20.712 20.6875 21.0464 19.4663C21.3808 18.2451 21.9848 17.1147 22.8136 16.1586C23.6425 15.2026 24.6751 14.4453 25.8352 13.9426C26.9953 13.44 28.2533 13.2049 29.5163 13.2546C30.7792 13.3043 32.0149 13.6377 33.132 14.23C34.2492 14.8223 35.2193 15.6584 35.9707 16.6767C36.7222 17.695 37.2357 18.8694 37.4734 20.1132C37.7112 21.3569 37.667 22.6383 37.3443 23.8627C39.5252 24.6298 41.4286 26.0302 42.8119 27.8855C42.9025 27.7552 43.0232 27.6489 43.1637 27.5755C43.3042 27.5021 43.4603 27.4638 43.6188 27.464H44.992C45.3814 25.6592 46.268 23.9999 47.5511 22.6744C48.8342 21.349 50.4625 20.4105 52.2511 19.9655V10.134C52.2702 9.57387 52.5077 9.04361 52.9127 8.65706C53.3177 8.2705 53.8579 8.05849 54.4172 8.06654C54.9765 8.07459 55.5103 8.30206 55.9041 8.70012C56.2978 9.09817 56.5201 9.63505 56.5231 10.1955C56.5235 10.2949 56.5167 10.3942 56.5027 10.4927V19.863C58.3909 20.2353 60.1291 21.1536 61.5025 22.5043C62.8758 23.8551 63.8244 25.5793 64.2309 27.464H65.6042C65.8656 27.4643 66.1162 27.5685 66.301 27.7537C66.4858 27.9389 66.5898 28.1899 66.5901 28.4518V36.3718H67.8573V34.2617C67.8661 34.0246 67.9664 33.8 68.137 33.6354C68.3076 33.4707 68.5353 33.3787 68.7721 33.3787C69.009 33.3787 69.2367 33.4707 69.4073 33.6354C69.5779 33.8 69.6782 34.0246 69.687 34.2617V42.5495H70.9082C71.0104 42.5495 71.1116 42.5696 71.206 42.6089C71.3004 42.6481 71.3861 42.7056 71.4584 42.7781C71.5306 42.8505 71.5878 42.9365 71.6268 43.0312C71.6658 43.1259 71.6858 43.2273 71.6856 43.3297V49.6957C71.6856 49.9024 71.6037 50.1006 71.458 50.2469C71.3122 50.3932 71.1145 50.4756 70.9082 50.4759H68.4135L71.7994 69.5649L72.1753 71.6865L72.8428 75.4454L76.3655 95.3031L77.4665 101.513C78.9101 101.513 80.566 101.538 80.7066 101.678C80.9521 101.927 84.6181 104.424 84.6181 104.424C84.6181 104.424 90.9053 104.609 91.5677 105.126C92.23 105.642 97.392 114.359 97.392 114.359H21.3111L22.0258 109.866C22.1803 108.899 22.6802 108.022 23.4324 107.397C25.3504 105.803 29.0879 102.773 30.2733 102.273C30.5627 102.166 30.8692 102.115 31.1773 102.12L32.3856 95.3057L35.9084 75.4479L36.0912 74.4499L36.9569 69.5662L40.3441 50.4772H37.8468C37.6403 50.4772 37.4422 50.395 37.2962 50.2487C37.1502 50.1023 37.0681 49.9039 37.0681 49.697V45.8766C35.9226 46.2452 34.7268 46.4324 33.5236 46.4313H11.6174C8.55722 46.4238 5.61834 47.6298 3.44255 49.7859C1.26677 51.942 0.0308409 54.8731 0.00466296 57.9392C-0.021515 61.0052 1.16418 63.9571 3.30284 66.1502C5.44149 68.3433 8.35935 69.5994 11.4193 69.6444C11.4857 69.6444 11.5471 69.6444 11.6174 69.6444H19.7779C22.7189 69.6943 25.5307 70.8633 27.6431 72.9141C29.7554 74.9649 31.0101 77.7439 31.1526 80.6875C31.2951 83.6311 30.3148 86.5188 28.4104 88.7648C26.5061 91.0108 23.8203 92.4469 20.898 92.7818H11.6174C11.1769 92.7811 10.7367 92.8064 10.2991 92.8574C7.3536 93.187 4.64616 94.6351 2.73389 96.9039C0.82161 99.1727 -0.150048 102.09 0.0188377 105.054C0.187724 108.019 1.48431 110.806 3.64181 112.842C5.79931 114.878 8.65362 116.008 11.6174 116H116.315C119.275 116.002 122.123 114.87 124.276 112.834C126.429 110.799 127.722 108.015 127.891 105.054C128.059 102.094 127.09 99.1804 125.183 96.9128C123.276 94.6451 120.574 93.195 117.633 92.8599ZM95.6645 57.8719C95.7702 57.8719 95.8736 57.9033 95.9615 57.9622C96.0494 58.021 96.1179 58.1047 96.1583 58.2025C96.1988 58.3004 96.2094 58.408 96.1887 58.5119C96.1681 58.6158 96.1172 58.7112 96.0425 58.7861C95.9677 58.861 95.8725 58.912 95.7688 58.9327C95.6651 58.9533 95.5576 58.9427 95.46 58.9022C95.3623 58.8617 95.2788 58.793 95.2201 58.705C95.1614 58.6169 95.13 58.5134 95.13 58.4074C95.13 58.2654 95.1863 58.1292 95.2866 58.0288C95.3868 57.9284 95.5228 57.8719 95.6645 57.8719ZM89.0576 53.3213C89.1354 53.3211 89.2114 53.3439 89.2762 53.3871C89.341 53.4302 89.3915 53.4916 89.4213 53.5635C89.4512 53.6354 89.4591 53.7146 89.444 53.791C89.4289 53.8675 89.3915 53.9376 89.3365 53.9927C89.2815 54.0478 89.2114 54.0853 89.1352 54.1004C89.0589 54.1156 88.9799 54.1077 88.9081 54.0777C88.8363 54.0478 88.775 53.9972 88.732 53.9323C88.6889 53.8675 88.6661 53.7912 88.6664 53.7133C88.6674 53.61 88.709 53.5113 88.7823 53.4386C88.8556 53.3659 88.9545 53.3251 89.0576 53.3252V53.3213ZM41.7468 13.9902C41.6715 13.9889 41.5982 13.9655 41.5361 13.9228C41.474 13.8801 41.4258 13.82 41.3976 13.75C41.3694 13.6801 41.3623 13.6033 41.3773 13.5294C41.3923 13.4554 41.4287 13.3875 41.482 13.3342C41.5352 13.2808 41.603 13.2443 41.6768 13.2293C41.7506 13.2143 41.8272 13.2213 41.897 13.2496C41.9669 13.2779 42.0268 13.3262 42.0695 13.3884C42.1121 13.4506 42.1355 13.524 42.1368 13.5995C42.1388 13.6512 42.1305 13.7029 42.1121 13.7513C42.0938 13.7997 42.0658 13.8439 42.03 13.8812C41.9942 13.9186 41.9512 13.9483 41.9036 13.9685C41.856 13.9888 41.8049 13.9992 41.7532 13.9992L41.7468 13.9902ZM47.4381 6.53012C47.3003 6.53037 47.1654 6.48964 47.0506 6.41307C46.9359 6.3365 46.8463 6.22755 46.7934 6.09998C46.7405 5.97242 46.7265 5.832 46.7532 5.69647C46.78 5.56094 46.8462 5.43641 46.9437 5.33863C47.0411 5.24086 47.1652 5.17423 47.3004 5.14719C47.4357 5.12014 47.5758 5.13389 47.7033 5.1867C47.8307 5.23951 47.9396 5.329 48.0162 5.44385C48.0928 5.5587 48.1337 5.69375 48.1337 5.8319C48.1349 5.9237 48.118 6.01483 48.084 6.10008C48.05 6.18533 47.9995 6.26302 47.9355 6.32871C47.8715 6.39439 47.7952 6.44679 47.7109 6.48289C47.6267 6.51899 47.5362 6.53809 47.4445 6.53909L47.4381 6.53012ZM72.8377 27.464C72.6101 27.464 72.3876 27.3964 72.1983 27.2697C72.0091 27.143 71.8616 26.9629 71.7745 26.7522C71.6874 26.5415 71.6646 26.3097 71.709 26.086C71.7534 25.8624 71.863 25.6569 72.0239 25.4957C72.1849 25.3344 72.3899 25.2246 72.6132 25.1801C72.8364 25.1356 73.0678 25.1584 73.2781 25.2457C73.4884 25.333 73.6681 25.4808 73.7945 25.6704C73.921 25.86 73.9885 26.0829 73.9885 26.311C73.9885 26.6168 73.8672 26.91 73.6514 27.1263C73.4356 27.3425 73.1429 27.464 72.8377 27.464ZM75.7965 52.0299C75.7267 52.0299 75.6584 52.0091 75.6003 51.9702C75.5423 51.9313 75.497 51.876 75.4704 51.8113C75.4437 51.7467 75.4368 51.6755 75.4505 51.6069C75.4642 51.5382 75.498 51.4752 75.5474 51.4258C75.5969 51.3764 75.6599 51.3429 75.7285 51.3294C75.797 51.3159 75.868 51.3231 75.9325 51.35C75.9969 51.377 76.052 51.4225 76.0906 51.4808C76.1292 51.5391 76.1497 51.6076 76.1494 51.6776C76.1494 51.724 76.1403 51.7699 76.1226 51.8127C76.1048 51.8556 76.0788 51.8944 76.046 51.9272C76.0132 51.9599 75.9743 51.9858 75.9315 52.0035C75.8887 52.0211 75.8428 52.0301 75.7965 52.0299ZM78.593 59.0826C78.593 58.8439 78.6636 58.6106 78.796 58.4121C78.9283 58.2137 79.1165 58.059 79.3365 57.9676C79.5566 57.8763 79.7988 57.8524 80.0325 57.899C80.2661 57.9455 80.4808 58.0605 80.6492 58.2292C80.8177 58.398 80.9324 58.6131 80.9789 58.8472C81.0253 59.0813 81.0015 59.3239 80.9103 59.5444C80.8191 59.765 80.6648 59.9535 80.4667 60.0861C80.2686 60.2187 80.0357 60.2894 79.7975 60.2894C79.478 60.2894 79.1717 60.1623 78.9458 59.936C78.7199 59.7096 78.593 59.4027 78.593 59.0826ZM81.6017 88.8487C81.3136 88.8487 81.0321 88.7631 80.7926 88.6028C80.5531 88.4424 80.3664 88.2145 80.2562 87.9479C80.1459 87.6813 80.1171 87.3879 80.1733 87.1048C80.2295 86.8217 80.3682 86.5617 80.5719 86.3577C80.7755 86.1536 81.035 86.0146 81.3176 85.9583C81.6001 85.902 81.8929 85.9309 82.159 86.0413C82.4252 86.1518 82.6526 86.3388 82.8127 86.5788C82.9727 86.8187 83.0581 87.1009 83.0581 87.3895C83.0581 87.7765 82.9047 88.1476 82.6315 88.4213C82.3584 88.695 81.988 88.8487 81.6017 88.8487ZM82.5888 50.7449C82.4657 50.7449 82.3453 50.7083 82.2429 50.6398C82.1405 50.5712 82.0606 50.4738 82.0135 50.3598C81.9664 50.2458 81.9541 50.1203 81.9781 49.9993C82.0021 49.8783 82.0614 49.7671 82.1485 49.6798C82.2356 49.5926 82.3465 49.5332 82.4673 49.5091C82.5881 49.485 82.7133 49.4974 82.8271 49.5446C82.9409 49.5918 83.0382 49.6718 83.1066 49.7744C83.175 49.877 83.2115 49.9976 83.2115 50.121C83.2115 50.2865 83.1459 50.4452 83.0292 50.5622C82.9124 50.6792 82.754 50.7449 82.5888 50.7449ZM86.5118 65.3948C86.2589 65.3948 86.0117 65.3197 85.8014 65.1789C85.5911 65.0381 85.4272 64.838 85.3305 64.6039C85.2337 64.3698 85.2084 64.1122 85.2577 63.8637C85.307 63.6152 85.4288 63.3869 85.6076 63.2078C85.7865 63.0286 86.0143 62.9066 86.2623 62.8571C86.5104 62.8077 86.7675 62.8331 87.0011 62.93C87.2348 63.027 87.4345 63.1912 87.575 63.4019C87.7155 63.6126 87.7905 63.8603 87.7905 64.1137C87.7905 64.2819 87.7574 64.4485 87.6931 64.6039C87.6289 64.7594 87.5347 64.9006 87.4159 65.0196C87.2972 65.1385 87.1563 65.2329 87.0011 65.2973C86.846 65.3617 86.6797 65.3948 86.5118 65.3948ZM20.5809 54.7972C20.5132 54.7972 20.4469 54.7771 20.3905 54.7393C20.3342 54.7016 20.2903 54.648 20.2643 54.5852C20.2384 54.5225 20.2316 54.4535 20.2448 54.3869C20.2581 54.3203 20.2907 54.2591 20.3386 54.2111C20.3865 54.163 20.4476 54.1303 20.5141 54.1171C20.5806 54.1038 20.6495 54.1106 20.7121 54.1366C20.7747 54.1626 20.8282 54.2066 20.8659 54.2631C20.9035 54.3196 20.9236 54.3859 20.9236 54.4538C20.9236 54.5449 20.8875 54.6322 20.8232 54.6966C20.759 54.761 20.6718 54.7972 20.5809 54.7972ZM25.4782 60.2894C25.3454 60.2894 25.2156 60.25 25.1052 60.176C24.9947 60.102 24.9087 59.9969 24.8579 59.8739C24.8071 59.751 24.7939 59.6157 24.8199 59.4852C24.8459 59.3547 24.91 59.2348 25.004 59.1408C25.098 59.0468 25.2178 58.9828 25.3481 58.957C25.4784 58.9312 25.6134 58.9447 25.736 58.9958C25.8587 59.0469 25.9634 59.1333 26.037 59.2441C26.1106 59.3549 26.1498 59.485 26.1495 59.6181C26.1495 59.7064 26.1322 59.7938 26.0984 59.8753C26.0647 59.9569 26.0152 60.0309 25.9528 60.0933C25.8905 60.1556 25.8165 60.2051 25.735 60.2387C25.6536 60.2724 25.5663 60.2896 25.4782 60.2894ZM29.4767 53.3252C29.2891 53.3254 29.1058 53.2699 28.9498 53.1657C28.7938 53.0615 28.6721 52.9132 28.6002 52.7397C28.5284 52.5662 28.5095 52.3752 28.546 52.1909C28.5825 52.0067 28.6728 51.8374 28.8054 51.7046C28.938 51.5717 29.1069 51.4813 29.2908 51.4447C29.4748 51.4081 29.6654 51.427 29.8386 51.499C30.0117 51.571 30.1597 51.6929 30.2637 51.8492C30.3677 52.0055 30.4231 52.1892 30.4229 52.3771C30.4229 52.6283 30.3234 52.8693 30.1462 53.047C29.969 53.2248 29.7287 53.3248 29.4779 53.3252H29.4767ZM25.1189 98.7263C25.2707 98.7263 25.419 98.7714 25.5452 98.8559C25.6713 98.9403 25.7697 99.0604 25.8277 99.2008C25.8858 99.3413 25.901 99.4958 25.8714 99.645C25.8418 99.7941 25.7687 99.931 25.6614 100.039C25.5541 100.146 25.4174 100.219 25.2686 100.249C25.1198 100.279 24.9655 100.263 24.8253 100.205C24.6852 100.147 24.5653 100.048 24.481 99.9221C24.3967 99.7956 24.3517 99.647 24.3517 99.495C24.3517 99.2911 24.4326 99.0956 24.5764 98.9514C24.7203 98.8073 24.9155 98.7263 25.1189 98.7263ZM22.8736 96.3459C22.9297 96.3462 22.9844 96.3631 23.0309 96.3945C23.0775 96.4259 23.1136 96.4704 23.1349 96.5224C23.1562 96.5744 23.1617 96.6315 23.1506 96.6866C23.1395 96.7417 23.1123 96.7923 23.0726 96.8319C23.0328 96.8716 22.9823 96.8985 22.9272 96.9094C22.8722 96.9203 22.8152 96.9146 22.7634 96.893C22.7116 96.8714 22.6673 96.835 22.6362 96.7882C22.6051 96.7415 22.5884 96.6866 22.5884 96.6304C22.5884 96.5929 22.5958 96.5558 22.6102 96.5212C22.6245 96.4866 22.6455 96.4552 22.672 96.4288C22.6985 96.4024 22.73 96.3814 22.7646 96.3672C22.7992 96.353 22.8362 96.3458 22.8736 96.3459ZM19.3189 100.958C19.1259 100.958 18.9373 100.901 18.7769 100.793C18.6164 100.686 18.4914 100.533 18.4175 100.355C18.3437 100.176 18.3244 99.9795 18.362 99.7898C18.3996 99.6002 18.4926 99.426 18.629 99.2893C18.7655 99.1526 18.9393 99.0595 19.1285 99.0218C19.3178 98.9841 19.514 99.0035 19.6922 99.0774C19.8705 99.1514 20.0229 99.2767 20.1301 99.4375C20.2373 99.5982 20.2945 99.7872 20.2945 99.9805C20.2928 100.239 20.1893 100.486 20.0065 100.668C19.8237 100.85 19.5765 100.952 19.3189 100.952V100.958Z" fill="url(#paint43_linear_2332_30006)"/>
<defs>
<linearGradient id="paint0_linear_2332_30006" x1="54.2281" y1="13.3586" x2="55.1459" y2="23.7817" gradientUnits="userSpaceOnUse">
<stop stop-color="#B1B8BC" stop-opacity="0.7"/>
<stop offset="1" stop-color="#B1B8BC"/>
</linearGradient>
<linearGradient id="paint1_linear_2332_30006" x1="54.0529" y1="20.7329" x2="54.9372" y2="31.3302" gradientUnits="userSpaceOnUse">
<stop stop-color="#B1B8BC" stop-opacity="0.7"/>
<stop offset="1" stop-color="#B1B8BC"/>
</linearGradient>
<linearGradient id="paint2_linear_2332_30006" x1="54.6612" y1="23.5192" x2="54.5945" y2="40.201" gradientUnits="userSpaceOnUse">
<stop stop-color="#B1B8BC" stop-opacity="0"/>
<stop offset="1" stop-color="#B1B8BC" stop-opacity="0.5"/>
</linearGradient>
<linearGradient id="paint3_linear_2332_30006" x1="54.8792" y1="27.1543" x2="54.5301" y2="43.0725" gradientUnits="userSpaceOnUse">
<stop stop-color="#B1B8BC" stop-opacity="0.7"/>
<stop offset="1" stop-color="#B1B8BC"/>
</linearGradient>
<linearGradient id="paint4_linear_2332_30006" x1="52.7944" y1="52.7368" x2="54.9585" y2="121.821" gradientUnits="userSpaceOnUse">
<stop stop-color="#B1B8BC" stop-opacity="0.2"/>
<stop offset="1" stop-color="#B1B8BC" stop-opacity="0.7"/>
</linearGradient>
<linearGradient id="paint5_linear_2332_30006" x1="53.3362" y1="22.9163" x2="54.5813" y2="51.0461" gradientUnits="userSpaceOnUse">
<stop stop-color="#B1B8BC" stop-opacity="0"/>
<stop offset="1" stop-color="#B1B8BC" stop-opacity="0.5"/>
</linearGradient>
<linearGradient id="paint6_linear_2332_30006" x1="44.8516" y1="60.0203" x2="49.4446" y2="60.0203" gradientUnits="userSpaceOnUse">
<stop stop-color="#B1B8BC" stop-opacity="0.7"/>
<stop offset="1" stop-color="#B1B8BC"/>
</linearGradient>
<linearGradient id="paint7_linear_2332_30006" x1="44.8516" y1="85.9298" x2="49.4445" y2="85.9298" gradientUnits="userSpaceOnUse">
<stop stop-color="#B1B8BC" stop-opacity="0.7"/>
<stop offset="1" stop-color="#B1B8BC"/>
</linearGradient>
<linearGradient id="paint8_linear_2332_30006" x1="30.4835" y1="65.9677" x2="40.5418" y2="68.771" gradientUnits="userSpaceOnUse">
<stop stop-color="#B1B8BC" stop-opacity="0"/>
<stop offset="1" stop-color="#B1B8BC" stop-opacity="0.5"/>
</linearGradient>
<linearGradient id="paint9_linear_2332_30006" x1="23.7046" y1="90.2973" x2="33.7616" y2="93.1006" gradientUnits="userSpaceOnUse">
<stop stop-color="#B1B8BC" stop-opacity="0"/>
<stop offset="1" stop-color="#B1B8BC" stop-opacity="0.5"/>
</linearGradient>
<linearGradient id="paint10_linear_2332_30006" x1="40.4494" y1="32.2608" x2="40.4494" y2="49.0732" gradientUnits="userSpaceOnUse">
<stop stop-color="#B1B8BC" stop-opacity="0.7"/>
<stop offset="1" stop-color="#B1B8BC"/>
</linearGradient>
<linearGradient id="paint11_linear_2332_30006" x1="47.2268" y1="32.2606" x2="47.2268" y2="49.0731" gradientUnits="userSpaceOnUse">
<stop stop-color="#B1B8BC" stop-opacity="0.7"/>
<stop offset="1" stop-color="#B1B8BC"/>
</linearGradient>
<linearGradient id="paint12_linear_2332_30006" x1="54.6096" y1="32.2608" x2="54.6096" y2="49.0732" gradientUnits="userSpaceOnUse">
<stop stop-color="#B1B8BC" stop-opacity="0.7"/>
<stop offset="1" stop-color="#B1B8BC"/>
</linearGradient>
<linearGradient id="paint13_linear_2332_30006" x1="61.3895" y1="32.2606" x2="61.3895" y2="49.073" gradientUnits="userSpaceOnUse">
<stop stop-color="#B1B8BC" stop-opacity="0.7"/>
<stop offset="1" stop-color="#B1B8BC"/>
</linearGradient>
<linearGradient id="paint14_linear_2332_30006" x1="68.7749" y1="32.2608" x2="68.7749" y2="49.0732" gradientUnits="userSpaceOnUse">
<stop stop-color="#B1B8BC" stop-opacity="0.7"/>
<stop offset="1" stop-color="#B1B8BC"/>
</linearGradient>
<linearGradient id="paint15_linear_2332_30006" x1="43.8362" y1="32.2609" x2="43.8362" y2="49.0733" gradientUnits="userSpaceOnUse">
<stop stop-color="#B1B8BC" stop-opacity="0.7"/>
<stop offset="1" stop-color="#B1B8BC"/>
</linearGradient>
<linearGradient id="paint16_linear_2332_30006" x1="50.9192" y1="32.2609" x2="50.9192" y2="49.0733" gradientUnits="userSpaceOnUse">
<stop stop-color="#B1B8BC" stop-opacity="0.7"/>
<stop offset="1" stop-color="#B1B8BC"/>
</linearGradient>
<linearGradient id="paint17_linear_2332_30006" x1="58.0042" y1="32.2609" x2="58.0042" y2="49.0733" gradientUnits="userSpaceOnUse">
<stop stop-color="#B1B8BC" stop-opacity="0.7"/>
<stop offset="1" stop-color="#B1B8BC"/>
</linearGradient>
<linearGradient id="paint18_linear_2332_30006" x1="65.0793" y1="32.2609" x2="65.0793" y2="49.0733" gradientUnits="userSpaceOnUse">
<stop stop-color="#B1B8BC" stop-opacity="0.7"/>
<stop offset="1" stop-color="#B1B8BC"/>
</linearGradient>
<linearGradient id="paint19_linear_2332_30006" x1="52.2539" y1="9.27442" x2="56.5259" y2="9.27442" gradientUnits="userSpaceOnUse">
<stop stop-color="#B1B8BC" stop-opacity="0.7"/>
<stop offset="1" stop-color="#B1B8BC"/>
</linearGradient>
<linearGradient id="paint20_linear_2332_30006" x1="53.6341" y1="13.9991" x2="55.9728" y2="13.9991" gradientUnits="userSpaceOnUse">
<stop stop-color="#B1B8BC" stop-opacity="0.7"/>
<stop offset="1" stop-color="#B1B8BC"/>
</linearGradient>
<linearGradient id="paint21_linear_2332_30006" x1="98.9048" y1="17.9006" x2="35.0479" y2="18.6829" gradientUnits="userSpaceOnUse">
<stop stop-color="#B1B8BC" stop-opacity="0"/>
<stop offset="1" stop-color="#B1B8BC" stop-opacity="0.5"/>
</linearGradient>
<linearGradient id="paint22_linear_2332_30006" x1="56.2688" y1="81.1273" x2="59.5471" y2="116.323" gradientUnits="userSpaceOnUse">
<stop stop-color="#B1B8BC" stop-opacity="0.2"/>
<stop offset="1" stop-color="#B1B8BC" stop-opacity="0.7"/>
</linearGradient>
<linearGradient id="paint23_linear_2332_30006" x1="25.9962" y1="6.34413" x2="30.8129" y2="29.401" gradientUnits="userSpaceOnUse">
<stop stop-color="#B1B8BC" stop-opacity="0"/>
<stop offset="1" stop-color="#B1B8BC" stop-opacity="0.5"/>
</linearGradient>
<linearGradient id="paint24_linear_2332_30006" x1="24.8477" y1="16.7204" x2="26.9933" y2="16.7204" gradientUnits="userSpaceOnUse">
<stop stop-color="#B1B8BC" stop-opacity="0.7"/>
<stop offset="1" stop-color="#B1B8BC"/>
</linearGradient>
<linearGradient id="paint25_linear_2332_30006" x1="28.4062" y1="15.9366" x2="29.5059" y2="15.9366" gradientUnits="userSpaceOnUse">
<stop stop-color="#B1B8BC" stop-opacity="0.7"/>
<stop offset="1" stop-color="#B1B8BC"/>
</linearGradient>
<linearGradient id="paint26_linear_2332_30006" x1="28.4062" y1="19.569" x2="31.9456" y2="19.569" gradientUnits="userSpaceOnUse">
<stop stop-color="#B1B8BC" stop-opacity="0.7"/>
<stop offset="1" stop-color="#B1B8BC"/>
</linearGradient>
<linearGradient id="paint27_linear_2332_30006" x1="20.581" y1="54.2654" x2="20.581" y2="54.9123" gradientUnits="userSpaceOnUse">
<stop stop-color="#B1B8BC" stop-opacity="0.7"/>
<stop offset="1" stop-color="#B1B8BC"/>
</linearGradient>
<linearGradient id="paint28_linear_2332_30006" x1="29.4775" y1="51.8566" x2="29.4775" y2="53.6438" gradientUnits="userSpaceOnUse">
<stop stop-color="#B1B8BC" stop-opacity="0.7"/>
<stop offset="1" stop-color="#B1B8BC"/>
</linearGradient>
<linearGradient id="paint29_linear_2332_30006" x1="25.4825" y1="59.2499" x2="25.4825" y2="60.5144" gradientUnits="userSpaceOnUse">
<stop stop-color="#B1B8BC" stop-opacity="0.7"/>
<stop offset="1" stop-color="#B1B8BC"/>
</linearGradient>
<linearGradient id="paint30_linear_2332_30006" x1="75.7982" y1="51.4844" x2="75.7982" y2="52.1493" gradientUnits="userSpaceOnUse">
<stop stop-color="#B1B8BC" stop-opacity="0.7"/>
<stop offset="1" stop-color="#B1B8BC"/>
</linearGradient>
<linearGradient id="paint31_linear_2332_30006" x1="79.7944" y1="58.4217" x2="79.7944" y2="60.6958" gradientUnits="userSpaceOnUse">
<stop stop-color="#B1B8BC" stop-opacity="0.7"/>
<stop offset="1" stop-color="#B1B8BC"/>
</linearGradient>
<linearGradient id="paint32_linear_2332_30006" x1="82.5863" y1="49.7799" x2="82.5863" y2="50.9534" gradientUnits="userSpaceOnUse">
<stop stop-color="#B1B8BC" stop-opacity="0.7"/>
<stop offset="1" stop-color="#B1B8BC"/>
</linearGradient>
<linearGradient id="paint33_linear_2332_30006" x1="89.0553" y1="53.5033" x2="89.0553" y2="54.2425" gradientUnits="userSpaceOnUse">
<stop stop-color="#B1B8BC" stop-opacity="0.7"/>
<stop offset="1" stop-color="#B1B8BC"/>
</linearGradient>
<linearGradient id="paint34_linear_2332_30006" x1="95.6673" y1="58.1181" x2="95.6673" y2="59.1264" gradientUnits="userSpaceOnUse">
<stop stop-color="#B1B8BC" stop-opacity="0.7"/>
<stop offset="1" stop-color="#B1B8BC"/>
</linearGradient>
<linearGradient id="paint35_linear_2332_30006" x1="86.5079" y1="63.4203" x2="86.5079" y2="65.8237" gradientUnits="userSpaceOnUse">
<stop stop-color="#B1B8BC" stop-opacity="0.7"/>
<stop offset="1" stop-color="#B1B8BC"/>
</linearGradient>
<linearGradient id="paint36_linear_2332_30006" x1="72.837" y1="25.6835" x2="72.837" y2="27.8512" gradientUnits="userSpaceOnUse">
<stop stop-color="#B1B8BC" stop-opacity="0.7"/>
<stop offset="1" stop-color="#B1B8BC"/>
</linearGradient>
<linearGradient id="paint37_linear_2332_30006" x1="41.7494" y1="13.3946" x2="41.7494" y2="14.1299" gradientUnits="userSpaceOnUse">
<stop stop-color="#B1B8BC" stop-opacity="0.7"/>
<stop offset="1" stop-color="#B1B8BC"/>
</linearGradient>
<linearGradient id="paint38_linear_2332_30006" x1="47.443" y1="5.45902" x2="47.443" y2="6.77347" gradientUnits="userSpaceOnUse">
<stop stop-color="#B1B8BC" stop-opacity="0.7"/>
<stop offset="1" stop-color="#B1B8BC"/>
</linearGradient>
<linearGradient id="paint39_linear_2332_30006" x1="19.3181" y1="99.4399" x2="19.3181" y2="101.28" gradientUnits="userSpaceOnUse">
<stop stop-color="#B1B8BC" stop-opacity="0.7"/>
<stop offset="1" stop-color="#B1B8BC"/>
</linearGradient>
<linearGradient id="paint40_linear_2332_30006" x1="22.8737" y1="96.4738" x2="22.8737" y2="97.0106" gradientUnits="userSpaceOnUse">
<stop stop-color="#B1B8BC" stop-opacity="0.7"/>
<stop offset="1" stop-color="#B1B8BC"/>
</linearGradient>
<linearGradient id="paint41_linear_2332_30006" x1="25.1188" y1="99.075" x2="25.1188" y2="100.523" gradientUnits="userSpaceOnUse">
<stop stop-color="#B1B8BC" stop-opacity="0.7"/>
<stop offset="1" stop-color="#B1B8BC"/>
</linearGradient>
<linearGradient id="paint42_linear_2332_30006" x1="81.6009" y1="86.5895" x2="81.6009" y2="89.3375" gradientUnits="userSpaceOnUse">
<stop stop-color="#B1B8BC" stop-opacity="0.7"/>
<stop offset="1" stop-color="#B1B8BC"/>
</linearGradient>
<linearGradient id="paint43_linear_2332_30006" x1="63.0392" y1="25.0939" x2="64.8748" y2="135.785" gradientUnits="userSpaceOnUse">
<stop stop-color="#B1B8BC" stop-opacity="0.1"/>
<stop offset="1" stop-color="#B1B8BC" stop-opacity="0.25"/>
</linearGradient>
</defs>
</svg>
