<svg width="20" height="20" viewBox="0 0 20 20" fill="none" xmlns="http://www.w3.org/2000/svg">
<path d="M15.2087 11.85C15.0503 11.85 14.8837 11.7833 14.767 11.6667L10.042 6.94167C9.83368 6.73334 9.80034 6.41668 9.95868 6.16668L11.4337 3.8333C11.8337 3.19164 12.4587 2.8 13.1753 2.71667C13.967 2.625 14.8087 2.95 15.4587 3.6L18.1087 6.24999C18.7337 6.87499 19.042 7.70832 18.9504 8.54166C18.867 9.26666 18.4837 9.89162 17.8837 10.275L15.5504 11.75C15.442 11.8166 15.3253 11.85 15.2087 11.85ZM11.2837 6.41667L15.3003 10.4333L17.2087 9.225C17.492 9.05 17.667 8.75835 17.7004 8.40835C17.7504 7.96668 17.567 7.49166 17.217 7.14166L14.567 4.49167C14.1837 4.10834 13.7253 3.91667 13.3087 3.96667C12.9753 4 12.692 4.19163 12.492 4.5083L11.2837 6.41667Z" fill="#B19276"/>
<path d="M5.5236 18.9584C4.74027 18.9584 4.0486 18.6834 3.53194 18.1667C2.93194 17.5667 2.66527 16.725 2.7736 15.7916L3.59026 8.89167C3.63193 8.55 3.94026 8.30836 4.28193 8.34169C4.6236 8.38336 4.8736 8.69171 4.83193 9.03337L4.01527 15.9333C3.9486 16.475 4.09027 16.95 4.41527 17.275C4.74027 17.6 5.22359 17.75 5.77359 17.6833L13.0403 16.825C14.5903 16.6416 14.9319 16.225 14.7819 14.7084L14.5819 11.25C14.5653 10.9084 14.8236 10.6083 15.1736 10.5917C15.5153 10.575 15.8153 10.8334 15.8319 11.1834L16.0319 14.6167C16.2486 16.7667 15.3986 17.8083 13.1903 18.075L5.9236 18.9333C5.79026 18.95 5.65694 18.9584 5.5236 18.9584Z" fill="#B19276"/>
<path d="M10.4834 7.13332C10.4667 7.13332 10.4584 7.13332 10.4417 7.13332L8.98339 7.04166C8.64173 7.01666 8.37506 6.72501 8.40006 6.37501C8.42506 6.02501 8.71673 5.76666 9.06673 5.79166L10.5251 5.88332C10.8667 5.90832 11.1334 6.19998 11.1084 6.54998C11.0834 6.87498 10.8084 7.13332 10.4834 7.13332Z" fill="#B19276"/>
<path d="M4.40026 17.9417C4.24193 17.9417 4.08359 17.8834 3.95859 17.7584C3.71693 17.5167 3.71693 17.1166 3.95859 16.875L6.60859 14.2249C6.85025 13.9833 7.25027 13.9833 7.49193 14.2249C7.7336 14.4666 7.7336 14.8667 7.49193 15.1083L4.84193 17.7584C4.71693 17.8834 4.55859 17.9417 4.40026 17.9417Z" fill="#B19276"/>
<path d="M5.41797 9.79167C4.9263 9.79167 4.4513 9.70831 4.00963 9.55831C3.04297 9.23331 2.20963 8.56669 1.6763 7.67502C1.25963 6.99169 1.04297 6.20834 1.04297 5.41667C1.04297 4.06667 1.64297 2.82503 2.69297 2.00003C3.45963 1.38336 4.4263 1.04167 5.41797 1.04167C7.83464 1.04167 9.79297 3.00834 9.79297 5.41667C9.79297 5.80834 9.73464 6.21665 9.6263 6.59165C9.51797 6.97498 9.36797 7.32502 9.15964 7.67502C8.91797 8.07502 8.6263 8.41668 8.28464 8.70835C7.5013 9.40835 6.48464 9.79167 5.41797 9.79167ZM5.41797 2.29167C4.70964 2.29167 4.01797 2.53334 3.46797 2.97501C2.71797 3.56668 2.29297 4.45001 2.29297 5.41667C2.29297 5.975 2.4513 6.53333 2.74296 7.025C3.1263 7.65833 3.71796 8.14165 4.40963 8.36665C5.41796 8.72499 6.62631 8.5 7.46797 7.75834C7.70964 7.55 7.91797 7.3 8.09297 7.025C8.24297 6.775 8.3513 6.525 8.4263 6.25C8.5013 5.975 8.54297 5.69167 8.54297 5.41667C8.54297 3.69167 7.14297 2.29167 5.41797 2.29167Z" fill="#B19276"/>
<path d="M5.43359 7.44171C5.09193 7.44171 4.80859 7.15838 4.80859 6.81671V4.01672C4.80859 3.67506 5.09193 3.39172 5.43359 3.39172C5.77526 3.39172 6.05859 3.67506 6.05859 4.01672V6.81671C6.05859 7.16671 5.77526 7.44171 5.43359 7.44171Z" fill="#B19276"/>
<path d="M6.8 6.04167H4C3.65833 6.04167 3.375 5.75834 3.375 5.41667C3.375 5.07501 3.65833 4.79167 4 4.79167H6.8C7.14167 4.79167 7.425 5.07501 7.425 5.41667C7.425 5.75834 7.15 6.04167 6.8 6.04167Z" fill="#B19276"/>
</svg>
