<svg width="20" height="20" viewBox="0 0 20 20" fill="none" xmlns="http://www.w3.org/2000/svg">
<path d="M15.2087 11.85C15.0503 11.85 14.8837 11.7833 14.767 11.6667L10.042 6.94167C9.83368 6.73334 9.80034 6.41668 9.95868 6.16668L11.4337 3.8333C11.8337 3.19164 12.4587 2.8 13.1753 2.71667C13.967 2.625 14.8087 2.95 15.4587 3.6L18.1087 6.24999C18.7337 6.87499 19.042 7.70832 18.9504 8.54166C18.867 9.26666 18.4837 9.89162 17.8837 10.275L15.5504 11.75C15.442 11.8166 15.3253 11.85 15.2087 11.85ZM11.2837 6.41667L15.3003 10.4333L17.2087 9.225C17.492 9.05 17.667 8.75835 17.7004 8.40835C17.7504 7.96668 17.567 7.49166 17.217 7.14166L14.567 4.49167C14.1837 4.10834 13.7253 3.91667 13.3087 3.96667C12.9753 4 12.692 4.19163 12.492 4.5083L11.2837 6.41667Z" fill="#B6B6B9"/>
<path d="M5.52555 18.9584C4.74222 18.9584 4.05056 18.6834 3.53389 18.1667C2.93389 17.5667 2.66722 16.725 2.77555 15.7916L3.59222 8.89167C3.63388 8.55 3.94222 8.30836 4.28388 8.34169C4.62555 8.38336 4.87555 8.69171 4.83389 9.03337L4.01722 15.9333C3.95056 16.475 4.09222 16.95 4.41722 17.275C4.74222 17.6 5.22554 17.75 5.77554 17.6833L13.0422 16.825C14.5922 16.6416 14.9339 16.225 14.7839 14.7084L14.5839 11.25C14.5672 10.9084 14.8256 10.6083 15.1756 10.5917C15.5172 10.575 15.8172 10.8334 15.8339 11.1834L16.0339 14.6167C16.2506 16.7667 15.4006 17.8083 13.1922 18.075L5.92555 18.9333C5.79222 18.95 5.65889 18.9584 5.52555 18.9584Z" fill="#B6B6B9"/>
<path d="M10.4834 7.13332C10.4667 7.13332 10.4584 7.13332 10.4417 7.13332L8.98339 7.04166C8.64173 7.01666 8.37506 6.72501 8.40006 6.37501C8.42506 6.02501 8.71673 5.76666 9.06673 5.79166L10.5251 5.88332C10.8667 5.90832 11.1334 6.19998 11.1084 6.54998C11.0834 6.87498 10.8084 7.13332 10.4834 7.13332Z" fill="#B6B6B9"/>
<path d="M4.40026 17.9417C4.24193 17.9417 4.08359 17.8834 3.95859 17.7584C3.71693 17.5167 3.71693 17.1166 3.95859 16.875L6.60859 14.2249C6.85025 13.9833 7.25027 13.9833 7.49193 14.2249C7.7336 14.4666 7.7336 14.8667 7.49193 15.1083L4.84193 17.7584C4.71693 17.8834 4.55859 17.9417 4.40026 17.9417Z" fill="#B6B6B9"/>
<path d="M5.41602 9.79167C4.92435 9.79167 4.44935 9.70831 4.00768 9.55831C3.04101 9.23331 2.20768 8.56669 1.67434 7.67502C1.25768 6.99169 1.04102 6.20834 1.04102 5.41667C1.04102 4.06667 1.64101 2.82503 2.69101 2.00003C3.45768 1.38336 4.42435 1.04167 5.41602 1.04167C7.83268 1.04167 9.79102 3.00834 9.79102 5.41667C9.79102 5.80834 9.73268 6.21665 9.62435 6.59165C9.51602 6.97498 9.36602 7.32502 9.15769 7.67502C8.91602 8.07502 8.62435 8.41668 8.28268 8.70835C7.49935 9.40835 6.48268 9.79167 5.41602 9.79167ZM5.41602 2.29167C4.70768 2.29167 4.01602 2.53334 3.46602 2.97501C2.71602 3.56668 2.29102 4.45001 2.29102 5.41667C2.29102 5.975 2.44934 6.53333 2.74101 7.025C3.12434 7.65833 3.71601 8.14165 4.40768 8.36665C5.41601 8.72499 6.62435 8.5 7.46602 7.75834C7.70769 7.55 7.91602 7.3 8.09102 7.025C8.24102 6.775 8.34935 6.525 8.42435 6.25C8.49935 5.975 8.54102 5.69167 8.54102 5.41667C8.54102 3.69167 7.14102 2.29167 5.41602 2.29167Z" fill="#B6B6B9"/>
<path d="M5.43359 7.44171C5.09193 7.44171 4.80859 7.15838 4.80859 6.81671V4.01672C4.80859 3.67506 5.09193 3.39172 5.43359 3.39172C5.77526 3.39172 6.05859 3.67506 6.05859 4.01672V6.81671C6.05859 7.16671 5.77526 7.44171 5.43359 7.44171Z" fill="#B6B6B9"/>
<path d="M6.8 6.04167H4C3.65833 6.04167 3.375 5.75834 3.375 5.41667C3.375 5.07501 3.65833 4.79167 4 4.79167H6.8C7.14167 4.79167 7.425 5.07501 7.425 5.41667C7.425 5.75834 7.15 6.04167 6.8 6.04167Z" fill="#B6B6B9"/>
</svg>
