<svg width="20" height="20" viewBox="0 0 20 20" fill="none" xmlns="http://www.w3.org/2000/svg">
<path d="M15.8333 14.7916H4.16663C2.14996 14.7916 1.04163 13.6833 1.04163 11.6666V8.33325C1.04163 6.31659 2.14996 5.20825 4.16663 5.20825H15.8333C17.85 5.20825 18.9583 6.31659 18.9583 8.33325V11.6666C18.9583 13.6833 17.85 14.7916 15.8333 14.7916ZM4.16663 6.45825C2.84996 6.45825 2.29163 7.01659 2.29163 8.33325V11.6666C2.29163 12.9833 2.84996 13.5416 4.16663 13.5416H15.8333C17.15 13.5416 17.7083 12.9833 17.7083 11.6666V8.33325C17.7083 7.01659 17.15 6.45825 15.8333 6.45825H4.16663Z" fill="#85858B"/>
<path d="M15 10.6249C14.6583 10.6249 14.375 10.3416 14.375 9.99992V5.83325C14.375 5.49159 14.6583 5.20825 15 5.20825C15.3417 5.20825 15.625 5.49159 15.625 5.83325V9.99992C15.625 10.3416 15.3417 10.6249 15 10.6249Z" fill="#85858B"/>
<path d="M5 9.79159C4.65833 9.79159 4.375 9.50825 4.375 9.16659V5.83325C4.375 5.49159 4.65833 5.20825 5 5.20825C5.34167 5.20825 5.625 5.49159 5.625 5.83325V9.16659C5.625 9.50825 5.34167 9.79159 5 9.79159Z" fill="#85858B"/>
<path d="M8.33337 10.6249C7.98337 10.6249 7.70837 10.3416 7.70837 9.99158L7.75004 5.82492C7.75004 5.48325 8.03337 5.20825 8.37504 5.20825C8.37504 5.20825 8.37504 5.20825 8.38337 5.20825C8.72504 5.20825 9.00837 5.49159 9.00004 5.84159L8.95837 10.0083C8.95837 10.3499 8.67504 10.6249 8.33337 10.6249Z" fill="#85858B"/>
<path d="M11.6666 8.95825C11.325 8.95825 11.0416 8.67492 11.0416 8.33325V5.83325C11.0416 5.49159 11.325 5.20825 11.6666 5.20825C12.0083 5.20825 12.2916 5.49159 12.2916 5.83325V8.33325C12.2916 8.67492 12.0083 8.95825 11.6666 8.95825Z" fill="#85858B"/>
</svg>
