<svg width="11" height="10" viewBox="0 0 11 10" fill="none" xmlns="http://www.w3.org/2000/svg">
<path d="M2.51667 4.70833C1.29167 4.70833 0.291687 3.70833 0.291687 2.48333C0.291687 1.25833 1.29167 0.25 2.51667 0.25C3.74167 0.25 4.74171 1.24999 4.74171 2.48333C4.74171 3.71666 3.75001 4.70833 2.51667 4.70833ZM2.51667 1.5C1.97501 1.5 1.54169 1.94166 1.54169 2.48333C1.54169 3.02499 1.98334 3.45833 2.51667 3.45833C3.05001 3.45833 3.49171 3.01666 3.49171 2.48333C3.49171 1.94999 3.05834 1.5 2.51667 1.5Z" fill="white"/>
<path d="M2.51667 9.74995C1.29167 9.74995 0.291687 8.74996 0.291687 7.51662C0.291687 6.28329 1.29167 5.29163 2.51667 5.29163C3.74167 5.29163 4.74171 6.29162 4.74171 7.51662C4.74171 8.74162 3.75001 9.74995 2.51667 9.74995ZM2.51667 6.54163C1.97501 6.54163 1.54169 6.98329 1.54169 7.51662C1.54169 8.04996 1.98334 8.49995 2.51667 8.49995C3.05001 8.49995 3.49171 8.05829 3.49171 7.51662C3.49171 6.97496 3.05834 6.54163 2.51667 6.54163Z" fill="white"/>
<path d="M3.96663 7.44998C3.77496 7.44998 3.59165 7.36665 3.46665 7.19998C3.25832 6.92498 3.31667 6.53331 3.59167 6.32498L9.70831 1.74999C9.98331 1.54165 10.375 1.59998 10.5833 1.87498C10.7916 2.14998 10.7333 2.54165 10.4583 2.74998L4.34164 7.32497C4.22497 7.40831 4.09996 7.44998 3.96663 7.44998Z" fill="white"/>
<path d="M10.0833 8.35831C9.94999 8.35831 9.82498 8.31665 9.70831 8.23331L3.59167 3.65831C3.31667 3.44997 3.25832 3.05831 3.46665 2.78331C3.67498 2.50831 4.06664 2.44998 4.34164 2.65831L10.4583 7.2333C10.7333 7.44164 10.7916 7.8333 10.5833 8.1083C10.4583 8.27497 10.275 8.35831 10.0833 8.35831Z" fill="white"/>
</svg>
