<svg width="17" height="16" viewBox="0 0 17 16" fill="none" xmlns="http://www.w3.org/2000/svg">
<path d="M8.16666 14.5C4.39999 14.5 1.33333 11.4333 1.33333 7.66667C1.33333 3.9 4.39999 0.833332 8.16666 0.833332C11.9333 0.833332 15 3.9 15 7.66667C15 11.4333 11.9333 14.5 8.16666 14.5ZM8.16666 1.83333C4.94666 1.83333 2.33333 4.45333 2.33333 7.66667C2.33333 10.88 4.94666 13.5 8.16666 13.5C11.3867 13.5 14 10.88 14 7.66667C14 4.45333 11.3867 1.83333 8.16666 1.83333Z" fill="#3C3D45"/>
<path d="M15.1667 15.1667C15.04 15.1667 14.9133 15.12 14.8133 15.02L13.48 13.6867C13.2867 13.4933 13.2867 13.1733 13.48 12.98C13.6733 12.7867 13.9933 12.7867 14.1867 12.98L15.52 14.3133C15.7133 14.5067 15.7133 14.8267 15.52 15.02C15.42 15.12 15.2933 15.1667 15.1667 15.1667Z" fill="#3C3D45"/>
</svg>
