<svg width="20" height="20" viewBox="0 0 20 20" fill="none" xmlns="http://www.w3.org/2000/svg">
<path d="M11.851 18.0249C10.8677 18.0249 9.47604 17.3333 8.37604 14.0249L7.77604 12.2249L5.97604 11.6249C2.67604 10.5249 1.98438 9.13327 1.98438 8.14994C1.98438 7.17494 2.67604 5.77494 5.97604 4.6666L13.051 2.30827C14.8177 1.7166 16.2927 1.8916 17.201 2.7916C18.1094 3.6916 18.2844 5.17494 17.6927 6.9416L15.3344 14.0166C14.226 17.3333 12.8344 18.0249 11.851 18.0249ZM6.36771 5.85827C4.05104 6.63327 3.22604 7.54994 3.22604 8.14994C3.22604 8.74994 4.05104 9.6666 6.36771 10.4333L8.46771 11.1333C8.65104 11.1916 8.80104 11.3416 8.85937 11.5249L9.55937 13.6249C10.326 15.9416 11.251 16.7666 11.851 16.7666C12.451 16.7666 13.3677 15.9416 14.1427 13.6249L16.501 6.54994C16.926 5.2666 16.851 4.2166 16.3094 3.67494C15.7677 3.13327 14.7177 3.0666 13.4427 3.4916L6.36771 5.85827Z" fill="#B19276"/>
<path d="M8.4237 12.0001C8.26536 12.0001 8.10703 11.9417 7.98203 11.8167C7.74036 11.5751 7.74036 11.1751 7.98203 10.9334L10.9654 7.94175C11.207 7.70008 11.607 7.70008 11.8487 7.94175C12.0904 8.18341 12.0904 8.58342 11.8487 8.82508L8.86536 11.8167C8.7487 11.9417 8.58203 12.0001 8.4237 12.0001Z" fill="#B19276"/>
</svg>
