<svg width="16" height="16" viewBox="0 0 16 16" fill="none" xmlns="http://www.w3.org/2000/svg">
<path d="M13.7471 8.71334C13.4937 8.71334 13.2804 8.52001 13.2471 8.26667C13.0871 6.76001 12.2737 5.39334 11.0204 4.52667C10.7937 4.36667 10.7404 4.06001 10.8937 3.83334C11.0537 3.60667 11.3671 3.55334 11.5871 3.70667C13.0804 4.74001 14.0404 6.36667 14.2337 8.16001C14.2604 8.43334 14.0671 8.68001 13.7871 8.71334C13.7804 8.71334 13.7604 8.71334 13.7471 8.71334Z" fill="#B19276"/>
<path d="M2.3266 8.74668C2.3066 8.74668 2.29327 8.74668 2.27327 8.74668C1.99994 8.71334 1.79994 8.46668 1.8266 8.19334C2.0066 6.40001 2.95994 4.78001 4.43327 3.73334C4.65994 3.57334 4.97327 3.62668 5.13327 3.85334C5.29327 4.08001 5.23994 4.39334 5.01327 4.55334C3.77327 5.42668 2.97327 6.79334 2.81994 8.30001C2.79994 8.55334 2.57994 8.74668 2.3266 8.74668Z" fill="#B19276"/>
<path d="M8.04063 15.0734C7.05396 15.0734 6.11396 14.8467 5.23396 14.4067C4.98729 14.28 4.88729 13.98 5.01396 13.7334C5.14063 13.4867 5.44063 13.3867 5.68729 13.5134C7.12729 14.24 8.86063 14.2534 10.314 13.5534C10.5606 13.4334 10.8606 13.54 10.9806 13.7867C11.1006 14.0334 10.994 14.3334 10.7473 14.4534C9.89396 14.8667 8.98729 15.0734 8.04063 15.0734Z" fill="#B19276"/>
<path d="M8.04083 5.62665C6.74083 5.62665 5.6875 4.57332 5.6875 3.27332C5.6875 1.97332 6.74083 0.919983 8.04083 0.919983C9.34083 0.919983 10.3942 1.97332 10.3942 3.27332C10.3942 4.57332 9.33417 5.62665 8.04083 5.62665ZM8.04083 1.92665C7.29417 1.92665 6.6875 2.53332 6.6875 3.27998C6.6875 4.02665 7.29417 4.63332 8.04083 4.63332C8.7875 4.63332 9.39417 4.02665 9.39417 3.27998C9.39417 2.53332 8.78083 1.92665 8.04083 1.92665Z" fill="#B19276"/>
<path d="M3.22052 13.78C1.92052 13.78 0.867188 12.7266 0.867188 11.4266C0.867188 10.1333 1.92052 9.0733 3.22052 9.0733C4.52052 9.0733 5.57385 10.1266 5.57385 11.4266C5.57385 12.72 4.52052 13.78 3.22052 13.78ZM3.22052 10.0733C2.47385 10.0733 1.86719 10.68 1.86719 11.4266C1.86719 12.1733 2.47385 12.78 3.22052 12.78C3.96719 12.78 4.57385 12.1733 4.57385 11.4266C4.57385 10.68 3.96719 10.0733 3.22052 10.0733Z" fill="#B19276"/>
<path d="M12.7791 13.78C11.4791 13.78 10.4258 12.7266 10.4258 11.4266C10.4258 10.1333 11.4791 9.0733 12.7791 9.0733C14.0791 9.0733 15.1324 10.1266 15.1324 11.4266C15.1258 12.72 14.0724 13.78 12.7791 13.78ZM12.7791 10.0733C12.0324 10.0733 11.4258 10.68 11.4258 11.4266C11.4258 12.1733 12.0324 12.78 12.7791 12.78C13.5258 12.78 14.1324 12.1733 14.1324 11.4266C14.1258 10.68 13.5258 10.0733 12.7791 10.0733Z" fill="#B19276"/>
</svg>
