<svg width="17" height="16" viewBox="0 0 17 16" fill="none" xmlns="http://www.w3.org/2000/svg">
<path d="M12.6263 11.8333H5.52634C4.86634 11.8333 4.233 11.5533 3.78634 11.0667C3.33967 10.58 3.11301 9.92664 3.16634 9.26664L3.71968 2.62665C3.73968 2.41998 3.66634 2.21998 3.52634 2.06665C3.38634 1.91332 3.19301 1.83331 2.98634 1.83331H1.83301C1.55967 1.83331 1.33301 1.60665 1.33301 1.33331C1.33301 1.05998 1.55967 0.833313 1.83301 0.833313H2.99301C3.47968 0.833313 3.93967 1.03998 4.26634 1.39331C4.44634 1.59331 4.57967 1.82665 4.65301 2.08665H12.9797C13.653 2.08665 14.273 2.35331 14.7263 2.83331C15.173 3.31998 15.3997 3.95331 15.3463 4.62665L14.9863 9.62665C14.913 10.8466 13.8463 11.8333 12.6263 11.8333ZM4.68634 3.07998L4.16634 9.34664C4.13301 9.73331 4.25967 10.1 4.51967 10.3866C4.77967 10.6733 5.13967 10.8266 5.52634 10.8266H12.6263C13.3197 10.8266 13.9463 10.24 13.9997 9.54665L14.3597 4.54665C14.3863 4.15332 14.2597 3.77999 13.9997 3.50665C13.7397 3.22665 13.3797 3.0733 12.9863 3.0733H4.68634V3.07998Z" fill="#F2F2F3"/>
<path d="M11.3333 15.1667C10.6 15.1667 10 14.5667 10 13.8333C10 13.1 10.6 12.5 11.3333 12.5C12.0667 12.5 12.6667 13.1 12.6667 13.8333C12.6667 14.5667 12.0667 15.1667 11.3333 15.1667ZM11.3333 13.5C11.1467 13.5 11 13.6467 11 13.8333C11 14.02 11.1467 14.1667 11.3333 14.1667C11.52 14.1667 11.6667 14.02 11.6667 13.8333C11.6667 13.6467 11.52 13.5 11.3333 13.5Z" fill="#F2F2F3"/>
<path d="M6.00033 15.1667C5.26699 15.1667 4.66699 14.5667 4.66699 13.8333C4.66699 13.1 5.26699 12.5 6.00033 12.5C6.73366 12.5 7.33366 13.1 7.33366 13.8333C7.33366 14.5667 6.73366 15.1667 6.00033 15.1667ZM6.00033 13.5C5.81366 13.5 5.66699 13.6467 5.66699 13.8333C5.66699 14.02 5.81366 14.1667 6.00033 14.1667C6.18699 14.1667 6.33366 14.02 6.33366 13.8333C6.33366 13.6467 6.18699 13.5 6.00033 13.5Z" fill="white"/>
<path d="M14.5 5.83331H6.5C6.22667 5.83331 6 5.60665 6 5.33331C6 5.05998 6.22667 4.83331 6.5 4.83331H14.5C14.7733 4.83331 15 5.05998 15 5.33331C15 5.60665 14.7733 5.83331 14.5 5.83331Z" fill="white"/>
</svg>
