<svg width="21" height="20" viewBox="0 0 21 20" fill="none" xmlns="http://www.w3.org/2000/svg">
<path d="M15.6577 14.7917H6.78268C5.95768 14.7917 5.16601 14.4417 4.60768 13.8334C4.04934 13.225 3.76602 12.4083 3.83268 11.5833L4.52435 3.28336C4.54935 3.02502 4.45768 2.77503 4.28268 2.58336C4.10768 2.39169 3.86601 2.29169 3.60768 2.29169H2.16602C1.82435 2.29169 1.54102 2.00835 1.54102 1.66669C1.54102 1.32502 1.82435 1.04169 2.16602 1.04169H3.61602C4.22435 1.04169 4.79934 1.30002 5.20768 1.74168C5.43268 1.99168 5.59935 2.28336 5.69101 2.60836H16.0994C16.941 2.60836 17.716 2.94169 18.2827 3.54169C18.841 4.15002 19.1244 4.94169 19.0577 5.78336L18.6077 12.0334C18.516 13.5584 17.1827 14.7917 15.6577 14.7917ZM5.73268 3.85002L5.08268 11.6833C5.04102 12.1667 5.19935 12.625 5.52435 12.9833C5.84935 13.3417 6.29934 13.5333 6.78268 13.5333H15.6577C16.5244 13.5333 17.3077 12.8 17.3743 11.9334L17.8243 5.68336C17.8577 5.19169 17.6993 4.72503 17.3743 4.38336C17.0493 4.03336 16.5993 3.84167 16.1077 3.84167H5.73268V3.85002Z" fill="white"/>
<path d="M14.0417 18.9583C13.125 18.9583 12.375 18.2083 12.375 17.2917C12.375 16.375 13.125 15.625 14.0417 15.625C14.9583 15.625 15.7083 16.375 15.7083 17.2917C15.7083 18.2083 14.9583 18.9583 14.0417 18.9583ZM14.0417 16.875C13.8083 16.875 13.625 17.0583 13.625 17.2917C13.625 17.525 13.8083 17.7083 14.0417 17.7083C14.275 17.7083 14.4583 17.525 14.4583 17.2917C14.4583 17.0583 14.275 16.875 14.0417 16.875Z" fill="white"/>
<path d="M7.37565 18.9583C6.45898 18.9583 5.70898 18.2083 5.70898 17.2917C5.70898 16.375 6.45898 15.625 7.37565 15.625C8.29232 15.625 9.04232 16.375 9.04232 17.2917C9.04232 18.2083 8.29232 18.9583 7.37565 18.9583ZM7.37565 16.875C7.14232 16.875 6.95898 17.0583 6.95898 17.2917C6.95898 17.525 7.14232 17.7083 7.37565 17.7083C7.60898 17.7083 7.79232 17.525 7.79232 17.2917C7.79232 17.0583 7.60898 16.875 7.37565 16.875Z" fill="white"/>
<path d="M18 7.29169H8C7.65833 7.29169 7.375 7.00835 7.375 6.66669C7.375 6.32502 7.65833 6.04169 8 6.04169H18C18.3417 6.04169 18.625 6.32502 18.625 6.66669C18.625 7.00835 18.3417 7.29169 18 7.29169Z" fill="white"/>
</svg>
