<svg width="17" height="16" viewBox="0 0 17 16" fill="none" xmlns="http://www.w3.org/2000/svg">
<path d="M12.9613 11.8333H5.8613C5.2013 11.8333 4.56796 11.5533 4.1213 11.0666C3.67463 10.5799 3.44797 9.92658 3.5013 9.26658L4.05464 2.62659C4.07464 2.41992 4.0013 2.21992 3.8613 2.06659C3.7213 1.91326 3.52797 1.83325 3.3213 1.83325H2.16797C1.89464 1.83325 1.66797 1.60659 1.66797 1.33325C1.66797 1.05992 1.89464 0.833252 2.16797 0.833252H3.32797C3.81464 0.833252 4.27463 1.03992 4.6013 1.39325C4.7813 1.59325 4.91463 1.82659 4.98797 2.08659H13.3146C13.988 2.08659 14.608 2.35325 15.0613 2.83325C15.508 3.31992 15.7346 3.95325 15.6813 4.62659L15.3213 9.62659C15.248 10.8466 14.1813 11.8333 12.9613 11.8333ZM5.0213 3.07992L4.5013 9.34658C4.46797 9.73324 4.59463 10.0999 4.85463 10.3866C5.11463 10.6732 5.47463 10.8266 5.8613 10.8266H12.9613C13.6546 10.8266 14.2813 10.2399 14.3346 9.54659L14.6946 4.54659C14.7213 4.15326 14.5946 3.77993 14.3346 3.50659C14.0746 3.22659 13.7146 3.07324 13.3213 3.07324H5.0213V3.07992Z" fill="#B19276"/>
<path d="M11.6693 15.1667C10.9359 15.1667 10.3359 14.5667 10.3359 13.8333C10.3359 13.1 10.9359 12.5 11.6693 12.5C12.4026 12.5 13.0026 13.1 13.0026 13.8333C13.0026 14.5667 12.4026 15.1667 11.6693 15.1667ZM11.6693 13.5C11.4826 13.5 11.3359 13.6467 11.3359 13.8333C11.3359 14.02 11.4826 14.1667 11.6693 14.1667C11.8559 14.1667 12.0026 14.02 12.0026 13.8333C12.0026 13.6467 11.8559 13.5 11.6693 13.5Z" fill="#B19276"/>
<path d="M6.33724 15.1667C5.60391 15.1667 5.00391 14.5667 5.00391 13.8333C5.00391 13.1 5.60391 12.5 6.33724 12.5C7.07057 12.5 7.67057 13.1 7.67057 13.8333C7.67057 14.5667 7.07057 15.1667 6.33724 15.1667ZM6.33724 13.5C6.15057 13.5 6.00391 13.6467 6.00391 13.8333C6.00391 14.02 6.15057 14.1667 6.33724 14.1667C6.52391 14.1667 6.67057 14.02 6.67057 13.8333C6.67057 13.6467 6.52391 13.5 6.33724 13.5Z" fill="#B19276"/>
<path d="M14.8359 5.83325H6.83594C6.5626 5.83325 6.33594 5.60659 6.33594 5.33325C6.33594 5.05992 6.5626 4.83325 6.83594 4.83325H14.8359C15.1093 4.83325 15.3359 5.05992 15.3359 5.33325C15.3359 5.60659 15.1093 5.83325 14.8359 5.83325Z" fill="#B19276"/>
</svg>
