<svg width="17" height="16" viewBox="0 0 17 16" fill="none" xmlns="http://www.w3.org/2000/svg">
<path d="M12.6267 11.8333H5.52666C4.86666 11.8333 4.23332 11.5533 3.78666 11.0667C3.33999 10.58 3.11333 9.92666 3.16666 9.26666L3.72 2.62667C3.74 2.42 3.66666 2.22 3.52666 2.06667C3.38666 1.91334 3.19333 1.83333 2.98666 1.83333H1.83333C1.55999 1.83333 1.33333 1.60667 1.33333 1.33333C1.33333 1.06 1.55999 0.833332 1.83333 0.833332H2.99333C3.48 0.833332 3.93999 1.04 4.26666 1.39333C4.44666 1.59333 4.57999 1.82667 4.65333 2.08667H12.98C13.6533 2.08667 14.2733 2.35333 14.7267 2.83333C15.1733 3.32 15.4 3.95333 15.3467 4.62667L14.9867 9.62667C14.9133 10.8467 13.8467 11.8333 12.6267 11.8333ZM4.68666 3.08L4.16666 9.34666C4.13333 9.73333 4.25999 10.1 4.51999 10.3867C4.77999 10.6733 5.13999 10.8267 5.52666 10.8267H12.6267C13.32 10.8267 13.9467 10.24 14 9.54667L14.36 4.54667C14.3867 4.15334 14.26 3.78001 14 3.50667C13.74 3.22667 13.38 3.07332 12.9867 3.07332H4.68666V3.08Z" fill="#3C3D45"/>
<path d="M11.3333 15.1667C10.6 15.1667 10 14.5667 10 13.8333C10 13.1 10.6 12.5 11.3333 12.5C12.0667 12.5 12.6667 13.1 12.6667 13.8333C12.6667 14.5667 12.0667 15.1667 11.3333 15.1667ZM11.3333 13.5C11.1467 13.5 11 13.6467 11 13.8333C11 14.02 11.1467 14.1667 11.3333 14.1667C11.52 14.1667 11.6667 14.02 11.6667 13.8333C11.6667 13.6467 11.52 13.5 11.3333 13.5Z" fill="#3C3D45"/>
<path d="M6.00001 15.1667C5.26667 15.1667 4.66667 14.5667 4.66667 13.8333C4.66667 13.1 5.26667 12.5 6.00001 12.5C6.73334 12.5 7.33334 13.1 7.33334 13.8333C7.33334 14.5667 6.73334 15.1667 6.00001 15.1667ZM6.00001 13.5C5.81334 13.5 5.66667 13.6467 5.66667 13.8333C5.66667 14.02 5.81334 14.1667 6.00001 14.1667C6.18667 14.1667 6.33334 14.02 6.33334 13.8333C6.33334 13.6467 6.18667 13.5 6.00001 13.5Z" fill="#3C3D45"/>
<path d="M14.5 5.83333H6.5C6.22667 5.83333 6 5.60667 6 5.33333C6 5.06 6.22667 4.83333 6.5 4.83333H14.5C14.7733 4.83333 15 5.06 15 5.33333C15 5.60667 14.7733 5.83333 14.5 5.83333Z" fill="#3C3D45"/>
</svg>
