<svg width="16" height="16" viewBox="0 0 16 16" fill="none" xmlns="http://www.w3.org/2000/svg">
<path d="M14 5.16667H2C1.72667 5.16667 1.5 4.94001 1.5 4.66667C1.5 4.39334 1.72667 4.16667 2 4.16667H14C14.2733 4.16667 14.5 4.39334 14.5 4.66667C14.5 4.94001 14.2733 5.16667 14 5.16667Z" fill="#3C3D45"/>
<path d="M12 8.5H4C3.72667 8.5 3.5 8.27333 3.5 8C3.5 7.72667 3.72667 7.5 4 7.5H12C12.2733 7.5 12.5 7.72667 12.5 8C12.5 8.27333 12.2733 8.5 12 8.5Z" fill="#3C3D45"/>
<path d="M9.33366 11.8333H6.66699C6.39366 11.8333 6.16699 11.6067 6.16699 11.3333C6.16699 11.06 6.39366 10.8333 6.66699 10.8333H9.33366C9.60699 10.8333 9.83366 11.06 9.83366 11.3333C9.83366 11.6067 9.60699 11.8333 9.33366 11.8333Z" fill="#3C3D45"/>
</svg>
