<svg width="16" height="16" viewBox="0 0 16 16" fill="none" xmlns="http://www.w3.org/2000/svg">
<path d="M3.82665 10.6666C3.89999 10.3399 3.76665 9.87325 3.53332 9.63992L1.91332 8.01992C1.40665 7.51325 1.20665 6.97325 1.35332 6.50659C1.50665 6.03992 1.97999 5.71992 2.68665 5.59992L4.76665 5.25325C5.06665 5.19992 5.43332 4.93325 5.57332 4.65992L6.71999 2.35992C7.05332 1.69992 7.50665 1.33325 7.99999 1.33325C8.49332 1.33325 8.94665 1.69992 9.27999 2.35992L10.4267 4.65992C10.5133 4.83325 10.6933 4.99992 10.8867 5.11325L3.70665 12.2933C3.61332 12.3866 3.45332 12.2999 3.47999 12.1666L3.82665 10.6666Z" fill="#B19276"/>
<path d="M12.4667 9.64001C12.2267 9.88001 12.0934 10.34 12.1734 10.6667L12.6334 12.6733C12.8267 13.5067 12.7067 14.1333 12.2934 14.4333C12.1267 14.5533 11.9267 14.6133 11.6934 14.6133C11.3534 14.6133 10.9534 14.4867 10.5134 14.2267L8.56003 13.0667C8.25337 12.8867 7.7467 12.8867 7.44003 13.0667L5.4867 14.2267C4.7467 14.66 4.11337 14.7333 3.7067 14.4333C3.55337 14.32 3.44003 14.1667 3.3667 13.9667L11.4734 5.86001C11.78 5.55335 12.2134 5.41335 12.6334 5.48668L13.3067 5.60001C14.0134 5.72001 14.4867 6.04001 14.64 6.50668C14.7867 6.97335 14.5867 7.51335 14.08 8.02001L12.4667 9.64001Z" fill="#B19276"/>
</svg>
