<svg width="16" height="16" viewBox="0 0 16 16" fill="none" xmlns="http://www.w3.org/2000/svg">
<path d="M9.9987 15.1666H5.9987C2.3787 15.1666 0.832031 13.6199 0.832031 9.99992V5.99992C0.832031 2.37992 2.3787 0.833252 5.9987 0.833252H9.9987C13.6187 0.833252 15.1654 2.37992 15.1654 5.99992V9.99992C15.1654 13.6199 13.6187 15.1666 9.9987 15.1666ZM5.9987 1.83325C2.92536 1.83325 1.83203 2.92659 1.83203 5.99992V9.99992C1.83203 13.0733 2.92536 14.1666 5.9987 14.1666H9.9987C13.072 14.1666 14.1654 13.0733 14.1654 9.99992V5.99992C14.1654 2.92659 13.072 1.83325 9.9987 1.83325H5.9987Z" fill="#B19276"/>
<path d="M7.05297 10.3867C6.91964 10.3867 6.79297 10.3334 6.69964 10.2401L4.81297 8.3534C4.61964 8.16007 4.61964 7.84007 4.81297 7.64673C5.0063 7.4534 5.3263 7.4534 5.51964 7.64673L7.05297 9.18007L10.4796 5.7534C10.673 5.56007 10.993 5.56007 11.1863 5.7534C11.3796 5.94673 11.3796 6.26673 11.1863 6.46006L7.4063 10.2401C7.31297 10.3334 7.1863 10.3867 7.05297 10.3867Z" fill="#B19276"/>
</svg>
