<svg width="20" height="20" viewBox="0 0 20 20" fill="none" xmlns="http://www.w3.org/2000/svg">
<path d="M12.5013 18.9584H7.5013C2.9763 18.9584 1.04297 17.0251 1.04297 12.5001V7.50008C1.04297 2.97508 2.9763 1.04175 7.5013 1.04175H12.5013C17.0263 1.04175 18.9596 2.97508 18.9596 7.50008V12.5001C18.9596 17.0251 17.0263 18.9584 12.5013 18.9584ZM7.5013 2.29175C3.65964 2.29175 2.29297 3.65841 2.29297 7.50008V12.5001C2.29297 16.3417 3.65964 17.7084 7.5013 17.7084H12.5013C16.343 17.7084 17.7096 16.3417 17.7096 12.5001V7.50008C17.7096 3.65841 16.343 2.29175 12.5013 2.29175H7.5013Z" fill="#B6B6B9"/>
<path d="M8.81719 12.9834C8.65052 12.9834 8.49219 12.9167 8.37552 12.8001L6.01719 10.4417C5.77552 10.2001 5.77552 9.80008 6.01719 9.55841C6.25885 9.31675 6.65885 9.31675 6.90052 9.55841L8.81719 11.4751L13.1005 7.19175C13.3422 6.95008 13.7422 6.95008 13.9839 7.19175C14.2255 7.43341 14.2255 7.83341 13.9839 8.07508L9.25885 12.8001C9.14219 12.9167 8.98385 12.9834 8.81719 12.9834Z" fill="#B6B6B9"/>
</svg>
