<svg width="16" height="16" viewBox="0 0 16 16" fill="none" xmlns="http://www.w3.org/2000/svg">
<path d="M14.0004 4.48666C13.9871 4.48666 13.9671 4.48666 13.9471 4.48666C10.4204 4.13333 6.90043 3.99999 3.41377 4.35333L2.05377 4.48666C1.77377 4.51333 1.5271 4.31333 1.50043 4.03333C1.47377 3.75333 1.67377 3.51333 1.9471 3.48666L3.3071 3.35333C6.85377 2.99333 10.4471 3.13333 14.0471 3.48666C14.3204 3.51333 14.5204 3.75999 14.4938 4.03333C14.4738 4.29333 14.2538 4.48666 14.0004 4.48666Z" fill="#3C3D45"/>
<path d="M5.66651 3.81334C5.63984 3.81334 5.61318 3.81334 5.57984 3.80668C5.31318 3.76001 5.12651 3.50001 5.17318 3.23334L5.31984 2.36001C5.42651 1.72001 5.57318 0.833344 7.12651 0.833344H8.87318C10.4332 0.833344 10.5798 1.75334 10.6798 2.36668L10.8265 3.23334C10.8732 3.50668 10.6865 3.76668 10.4198 3.80668C10.1465 3.85334 9.88651 3.66668 9.84651 3.40001L9.69984 2.53334C9.60651 1.95334 9.58651 1.84001 8.87984 1.84001H7.13318C6.42651 1.84001 6.41318 1.93334 6.31318 2.52668L6.15984 3.39334C6.11984 3.64001 5.90651 3.81334 5.66651 3.81334Z" fill="#3C3D45"/>
<path d="M10.1396 15.1667H5.85961C3.53294 15.1667 3.43961 13.88 3.36627 12.84L2.93294 6.12666C2.91294 5.85332 3.12627 5.61332 3.39961 5.59332C3.67961 5.57999 3.91294 5.78666 3.93294 6.05999L4.36627 12.7733C4.43961 13.7867 4.46627 14.1667 5.85961 14.1667H10.1396C11.5396 14.1667 11.5663 13.7867 11.6329 12.7733L12.0663 6.05999C12.0863 5.78666 12.3263 5.57999 12.5996 5.59332C12.8729 5.61332 13.0863 5.84666 13.0663 6.12666L12.6329 12.84C12.5596 13.88 12.4663 15.1667 10.1396 15.1667Z" fill="#23242E"/>
<path d="M9.10672 11.5H6.88672C6.61339 11.5 6.38672 11.2733 6.38672 11C6.38672 10.7267 6.61339 10.5 6.88672 10.5H9.10672C9.38005 10.5 9.60672 10.7267 9.60672 11C9.60672 11.2733 9.38005 11.5 9.10672 11.5Z" fill="#23242E"/>
<path d="M9.66732 8.83334H6.33398C6.06065 8.83334 5.83398 8.60668 5.83398 8.33334C5.83398 8.06001 6.06065 7.83334 6.33398 7.83334H9.66732C9.94065 7.83334 10.1673 8.06001 10.1673 8.33334C10.1673 8.60668 9.94065 8.83334 9.66732 8.83334Z" fill="#23242E"/>
</svg>
