<svg width="20" height="20" viewBox="0 0 20 20" fill="none" xmlns="http://www.w3.org/2000/svg">
<path d="M10.8348 12.2917H10.0014C9.65978 12.2917 9.37644 12.0084 9.37644 11.6667C9.37644 11.3251 9.65978 11.0417 10.0014 11.0417H10.8348C11.4098 11.0417 11.8764 10.5751 11.8764 10.0001V2.29175H5.00144C4.01811 2.29175 3.11809 2.82507 2.63475 3.6834C2.46809 3.9834 2.08479 4.09177 1.78479 3.9251C1.48479 3.75843 1.37642 3.37508 1.54309 3.07508C2.24309 1.82508 3.56811 1.04175 5.00144 1.04175H12.5014C12.8431 1.04175 13.1264 1.32508 13.1264 1.66675V10.0001C13.1264 11.2667 12.1014 12.2917 10.8348 12.2917Z" fill="#B6B6B9"/>
<path d="M15.8346 17.2917H15.0013C14.6596 17.2917 14.3763 17.0084 14.3763 16.6667C14.3763 16.0917 13.9096 15.6251 13.3346 15.6251C12.7596 15.6251 12.293 16.0917 12.293 16.6667C12.293 17.0084 12.0096 17.2917 11.668 17.2917H8.33464C7.99297 17.2917 7.70964 17.0084 7.70964 16.6667C7.70964 16.0917 7.24297 15.6251 6.66797 15.6251C6.09297 15.6251 5.6263 16.0917 5.6263 16.6667C5.6263 17.0084 5.34297 17.2917 5.0013 17.2917H4.16797C2.44297 17.2917 1.04297 15.8917 1.04297 14.1667C1.04297 13.8251 1.3263 13.5417 1.66797 13.5417C2.00964 13.5417 2.29297 13.8251 2.29297 14.1667C2.29297 15.2001 3.13464 16.0417 4.16797 16.0417H4.45962C4.73462 15.0834 5.61797 14.3751 6.66797 14.3751C7.71797 14.3751 8.60132 15.0834 8.87632 16.0417H11.1346C11.4096 15.0834 12.293 14.3751 13.343 14.3751C14.393 14.3751 15.2763 15.0834 15.5513 16.0417H15.8346C16.868 16.0417 17.7096 15.2001 17.7096 14.1667V12.2917H15.8346C15.0346 12.2917 14.3763 11.6334 14.3763 10.8334V8.33341C14.3763 7.53341 15.0263 6.87508 15.8346 6.87508L14.943 5.31675C14.7596 4.99175 14.4097 4.79175 14.0347 4.79175H13.1263V10.0001C13.1263 11.2667 12.1013 12.2917 10.8346 12.2917H10.0013C9.65964 12.2917 9.3763 12.0084 9.3763 11.6667C9.3763 11.3251 9.65964 11.0417 10.0013 11.0417H10.8346C11.4096 11.0417 11.8763 10.5751 11.8763 10.0001V4.16675C11.8763 3.82508 12.1596 3.54175 12.5013 3.54175H14.0347C14.8597 3.54175 15.618 3.98343 16.0263 4.70009L17.4513 7.19175C17.5596 7.38342 17.5596 7.62508 17.4513 7.81675C17.343 8.00842 17.1346 8.12508 16.9096 8.12508H15.8346C15.718 8.12508 15.6263 8.21675 15.6263 8.33341V10.8334C15.6263 10.9501 15.718 11.0417 15.8346 11.0417H18.3346C18.6763 11.0417 18.9596 11.3251 18.9596 11.6667V14.1667C18.9596 15.8917 17.5596 17.2917 15.8346 17.2917Z" fill="#B6B6B9"/>
<path d="M6.66667 18.9583C5.4 18.9583 4.375 17.9333 4.375 16.6667C4.375 15.4 5.4 14.375 6.66667 14.375C7.93333 14.375 8.95833 15.4 8.95833 16.6667C8.95833 17.9333 7.93333 18.9583 6.66667 18.9583ZM6.66667 15.625C6.09167 15.625 5.625 16.0917 5.625 16.6667C5.625 17.2417 6.09167 17.7083 6.66667 17.7083C7.24167 17.7083 7.70833 17.2417 7.70833 16.6667C7.70833 16.0917 7.24167 15.625 6.66667 15.625Z" fill="#B6B6B9"/>
<path d="M13.3346 18.9583C12.068 18.9583 11.043 17.9333 11.043 16.6667C11.043 15.4 12.068 14.375 13.3346 14.375C14.6013 14.375 15.6263 15.4 15.6263 16.6667C15.6263 17.9333 14.6013 18.9583 13.3346 18.9583ZM13.3346 15.625C12.7596 15.625 12.293 16.0917 12.293 16.6667C12.293 17.2417 12.7596 17.7083 13.3346 17.7083C13.9096 17.7083 14.3763 17.2417 14.3763 16.6667C14.3763 16.0917 13.9096 15.625 13.3346 15.625Z" fill="#B6B6B9"/>
<path d="M18.3333 12.2917H15.8333C15.0333 12.2917 14.375 11.6333 14.375 10.8333V8.33333C14.375 7.53333 15.0333 6.875 15.8333 6.875H16.9083C17.1333 6.875 17.3417 6.99167 17.45 7.19167L18.875 9.69167C18.925 9.78334 18.9583 9.89167 18.9583 10V11.6667C18.9583 12.0083 18.675 12.2917 18.3333 12.2917ZM15.8333 8.125C15.7167 8.125 15.625 8.21667 15.625 8.33333V10.8333C15.625 10.95 15.7167 11.0417 15.8333 11.0417H17.7083V10.1667L16.5416 8.125H15.8333Z" fill="#B6B6B9"/>
<path d="M6.66797 7.29175H1.66797C1.3263 7.29175 1.04297 7.00841 1.04297 6.66675C1.04297 6.32508 1.3263 6.04175 1.66797 6.04175H6.66797C7.00964 6.04175 7.29297 6.32508 7.29297 6.66675C7.29297 7.00841 7.00964 7.29175 6.66797 7.29175Z" fill="#B6B6B9"/>
<path d="M5.0013 9.79175H1.66797C1.3263 9.79175 1.04297 9.50841 1.04297 9.16675C1.04297 8.82508 1.3263 8.54175 1.66797 8.54175H5.0013C5.34297 8.54175 5.6263 8.82508 5.6263 9.16675C5.6263 9.50841 5.34297 9.79175 5.0013 9.79175Z" fill="#B6B6B9"/>
<path d="M3.33464 12.2917H1.66797C1.3263 12.2917 1.04297 12.0084 1.04297 11.6667C1.04297 11.3251 1.3263 11.0417 1.66797 11.0417H3.33464C3.6763 11.0417 3.95964 11.3251 3.95964 11.6667C3.95964 12.0084 3.6763 12.2917 3.33464 12.2917Z" fill="#B6B6B9"/>
</svg>
