<svg width="16" height="16" viewBox="0 0 16 16" fill="none" xmlns="http://www.w3.org/2000/svg">
<g clip-path="url(#clip0_6265_4681)">
<rect width="16" height="16" fill="white"/>
<path d="M8.66782 9.83325H8.00115C7.72782 9.83325 7.50115 9.60659 7.50115 9.33325C7.50115 9.05992 7.72782 8.83325 8.00115 8.83325H8.66782C9.12782 8.83325 9.50115 8.45992 9.50115 7.99992V1.83325H4.00115C3.21449 1.83325 2.49447 2.25991 2.1078 2.94657C1.97447 3.18657 1.66783 3.27327 1.42783 3.13993C1.18783 3.0066 1.10114 2.69992 1.23447 2.45992C1.79447 1.45992 2.85449 0.833252 4.00115 0.833252H10.0012C10.2745 0.833252 10.5012 1.05992 10.5012 1.33325V7.99992C10.5012 9.01325 9.68115 9.83325 8.66782 9.83325Z" fill="#B19276"/>
<path d="M12.6654 13.8333H11.9987C11.7254 13.8333 11.4987 13.6066 11.4987 13.3333C11.4987 12.8733 11.1254 12.4999 10.6654 12.4999C10.2054 12.4999 9.83203 12.8733 9.83203 13.3333C9.83203 13.6066 9.60536 13.8333 9.33203 13.8333H6.66536C6.39203 13.8333 6.16536 13.6066 6.16536 13.3333C6.16536 12.8733 5.79203 12.4999 5.33203 12.4999C4.87203 12.4999 4.4987 12.8733 4.4987 13.3333C4.4987 13.6066 4.27203 13.8333 3.9987 13.8333H3.33203C1.95203 13.8333 0.832031 12.7133 0.832031 11.3333C0.832031 11.0599 1.0587 10.8333 1.33203 10.8333C1.60536 10.8333 1.83203 11.0599 1.83203 11.3333C1.83203 12.1599 2.50536 12.8333 3.33203 12.8333H3.56535C3.78535 12.0666 4.49203 11.4999 5.33203 11.4999C6.17203 11.4999 6.87871 12.0666 7.09871 12.8333H8.90536C9.12535 12.0666 9.83204 11.4999 10.672 11.4999C11.512 11.4999 12.2187 12.0666 12.4387 12.8333H12.6654C13.492 12.8333 14.1654 12.1599 14.1654 11.3333V9.83325H12.6654C12.0254 9.83325 11.4987 9.30659 11.4987 8.66659V6.66659C11.4987 6.02659 12.0187 5.49992 12.6654 5.49992L11.952 4.25326C11.8054 3.99326 11.5254 3.83325 11.2254 3.83325H10.4987V7.99992C10.4987 9.01325 9.6787 9.83325 8.66536 9.83325H7.9987C7.72536 9.83325 7.4987 9.60659 7.4987 9.33325C7.4987 9.05992 7.72536 8.83325 7.9987 8.83325H8.66536C9.12537 8.83325 9.4987 8.45992 9.4987 7.99992V3.33325C9.4987 3.05992 9.72536 2.83325 9.9987 2.83325H11.2254C11.8854 2.83325 12.492 3.1866 12.8187 3.75993L13.9587 5.75326C14.0454 5.90659 14.0454 6.09992 13.9587 6.25326C13.872 6.40659 13.7053 6.49992 13.5254 6.49992H12.6654C12.572 6.49992 12.4987 6.57325 12.4987 6.66659V8.66659C12.4987 8.75992 12.572 8.83325 12.6654 8.83325H14.6654C14.9387 8.83325 15.1654 9.05992 15.1654 9.33325V11.3333C15.1654 12.7133 14.0454 13.8333 12.6654 13.8333Z" fill="#B19276"/>
<path d="M5.33333 15.1667C4.32 15.1667 3.5 14.3467 3.5 13.3333C3.5 12.32 4.32 11.5 5.33333 11.5C6.34667 11.5 7.16667 12.32 7.16667 13.3333C7.16667 14.3467 6.34667 15.1667 5.33333 15.1667ZM5.33333 12.5C4.87333 12.5 4.5 12.8733 4.5 13.3333C4.5 13.7933 4.87333 14.1667 5.33333 14.1667C5.79333 14.1667 6.16667 13.7933 6.16667 13.3333C6.16667 12.8733 5.79333 12.5 5.33333 12.5Z" fill="#B19276"/>
<path d="M10.6654 15.1667C9.65203 15.1667 8.83203 14.3467 8.83203 13.3333C8.83203 12.32 9.65203 11.5 10.6654 11.5C11.6787 11.5 12.4987 12.32 12.4987 13.3333C12.4987 14.3467 11.6787 15.1667 10.6654 15.1667ZM10.6654 12.5C10.2054 12.5 9.83203 12.8733 9.83203 13.3333C9.83203 13.7933 10.2054 14.1667 10.6654 14.1667C11.1254 14.1667 11.4987 13.7933 11.4987 13.3333C11.4987 12.8733 11.1254 12.5 10.6654 12.5Z" fill="#B19276"/>
<path d="M14.6667 9.83333H12.6667C12.0267 9.83333 11.5 9.30667 11.5 8.66667V6.66667C11.5 6.02667 12.0267 5.5 12.6667 5.5H13.5267C13.7067 5.5 13.8733 5.59334 13.96 5.75334L15.1 7.75334C15.14 7.82667 15.1667 7.91333 15.1667 8V9.33333C15.1667 9.60667 14.94 9.83333 14.6667 9.83333ZM12.6667 6.5C12.5733 6.5 12.5 6.57333 12.5 6.66667V8.66667C12.5 8.76 12.5733 8.83333 12.6667 8.83333H14.1667V8.13334L13.2333 6.5H12.6667Z" fill="#B19276"/>
<path d="M5.33203 5.83325H1.33203C1.0587 5.83325 0.832031 5.60659 0.832031 5.33325C0.832031 5.05992 1.0587 4.83325 1.33203 4.83325H5.33203C5.60536 4.83325 5.83203 5.05992 5.83203 5.33325C5.83203 5.60659 5.60536 5.83325 5.33203 5.83325Z" fill="#B19276"/>
<path d="M3.9987 7.83325H1.33203C1.0587 7.83325 0.832031 7.60659 0.832031 7.33325C0.832031 7.05992 1.0587 6.83325 1.33203 6.83325H3.9987C4.27203 6.83325 4.4987 7.05992 4.4987 7.33325C4.4987 7.60659 4.27203 7.83325 3.9987 7.83325Z" fill="#B19276"/>
<path d="M2.66536 9.83325H1.33203C1.0587 9.83325 0.832031 9.60659 0.832031 9.33325C0.832031 9.05992 1.0587 8.83325 1.33203 8.83325H2.66536C2.9387 8.83325 3.16536 9.05992 3.16536 9.33325C3.16536 9.60659 2.9387 9.83325 2.66536 9.83325Z" fill="#B19276"/>
</g>
<defs>
<clipPath id="clip0_6265_4681">
<rect width="16" height="16" fill="white"/>
</clipPath>
</defs>
</svg>
