<svg width="17" height="16" viewBox="0 0 17 16" fill="none" xmlns="http://www.w3.org/2000/svg">
<path d="M8.5 8.5C6.38666 8.5 4.66666 6.78 4.66666 4.66667C4.66666 2.55333 6.38666 0.833332 8.5 0.833332C10.6133 0.833332 12.3333 2.55333 12.3333 4.66667C12.3333 6.78 10.6133 8.5 8.5 8.5ZM8.5 1.83333C6.94 1.83333 5.66666 3.10667 5.66666 4.66667C5.66666 6.22667 6.94 7.5 8.5 7.5C10.06 7.5 11.3333 6.22667 11.3333 4.66667C11.3333 3.10667 10.06 1.83333 8.5 1.83333Z" fill="#3C3D45"/>
<path d="M14.2268 15.1667C13.9534 15.1667 13.7268 14.94 13.7268 14.6667C13.7268 12.3667 11.3801 10.5 8.5001 10.5C5.6201 10.5 3.27344 12.3667 3.27344 14.6667C3.27344 14.94 3.04677 15.1667 2.77344 15.1667C2.5001 15.1667 2.27344 14.94 2.27344 14.6667C2.27344 11.82 5.06677 9.5 8.5001 9.5C11.9334 9.5 14.7268 11.82 14.7268 14.6667C14.7268 14.94 14.5001 15.1667 14.2268 15.1667Z" fill="#3C3D45"/>
</svg>
