<svg width="20" height="20" viewBox="0 0 20 20" fill="none" xmlns="http://www.w3.org/2000/svg">
<path d="M10.832 8.125H5.83203C5.49036 8.125 5.20703 7.84167 5.20703 7.5C5.20703 7.15833 5.49036 6.875 5.83203 6.875H10.832C11.1737 6.875 11.457 7.15833 11.457 7.5C11.457 7.84167 11.1737 8.125 10.832 8.125Z" fill="#6D6D74"/>
<path d="M15.8653 12.3333C14.6069 12.3333 13.5403 11.3999 13.4403 10.1999C13.3736 9.50827 13.6236 8.83329 14.1236 8.34162C14.5403 7.90829 15.1319 7.66663 15.7569 7.66663H17.4986C18.3236 7.69163 18.957 8.34159 18.957 9.14159V10.8583C18.957 11.6583 18.3236 12.3083 17.5236 12.3333H15.8653ZM17.4736 8.91663H15.7653C15.4736 8.91663 15.207 9.02496 15.0153 9.22496C14.7736 9.45829 14.657 9.77494 14.6903 10.0916C14.732 10.6416 15.2653 11.0833 15.8653 11.0833H17.4986C17.607 11.0833 17.707 10.9833 17.707 10.8583V9.14159C17.707 9.01659 17.6069 8.92496 17.4736 8.91663Z" fill="#6D6D74"/>
<path d="M13.3346 17.7084H5.83464C2.96797 17.7084 1.04297 15.7834 1.04297 12.9167V7.08335C1.04297 4.51669 2.62628 2.65836 5.08462 2.35003C5.30962 2.31669 5.56797 2.29169 5.83464 2.29169H13.3346C13.5346 2.29169 13.793 2.30002 14.0596 2.34168C16.518 2.62502 18.1263 4.49169 18.1263 7.08335V8.2917C18.1263 8.63336 17.843 8.9167 17.5013 8.9167H15.768C15.4763 8.9167 15.2097 9.02503 15.018 9.22503L15.0096 9.23337C14.7763 9.45837 14.668 9.76667 14.693 10.0833C14.7346 10.6333 15.268 11.075 15.868 11.075H17.5013C17.843 11.075 18.1263 11.3583 18.1263 11.7V12.9083C18.1263 15.7833 16.2013 17.7084 13.3346 17.7084ZM5.83464 3.54169C5.63464 3.54169 5.44296 3.55834 5.25129 3.58334C3.41796 3.81668 2.29297 5.15002 2.29297 7.08335V12.9167C2.29297 15.0667 3.68464 16.4584 5.83464 16.4584H13.3346C15.4846 16.4584 16.8763 15.0667 16.8763 12.9167V12.3333H15.868C14.6096 12.3333 13.543 11.4 13.443 10.2C13.3763 9.51668 13.6263 8.83337 14.1263 8.35004C14.5596 7.90837 15.143 7.6667 15.768 7.6667H16.8763V7.08335C16.8763 5.13335 15.7346 3.79167 13.8846 3.575C13.6846 3.54167 13.5096 3.54169 13.3346 3.54169H5.83464V3.54169Z" fill="#6D6D74"/>
</svg>
