<svg width="20" height="20" viewBox="0 0 20 20" fill="none" xmlns="http://www.w3.org/2000/svg">
<path d="M18.3329 9.14169V10.8584C18.3329 11.3167 17.9662 11.6917 17.4995 11.7084H15.8662C14.9662 11.7084 14.1412 11.05 14.0662 10.15C14.0162 9.62502 14.2162 9.13335 14.5662 8.79169C14.8745 8.47502 15.2995 8.29169 15.7662 8.29169H17.4995C17.9662 8.30835 18.3329 8.68335 18.3329 9.14169Z" fill="#3C3D45"/>
<path d="M17.0596 12.9584H15.868C14.2846 12.9584 12.9513 11.7667 12.818 10.25C12.743 9.38335 13.0596 8.51669 13.693 7.90002C14.2263 7.35002 14.968 7.04169 15.768 7.04169H17.0596C17.3013 7.04169 17.5013 6.84169 17.4763 6.60002C17.293 4.57502 15.9513 3.19169 13.9596 2.95835C13.7596 2.92502 13.5513 2.91669 13.3346 2.91669H5.83464C5.6013 2.91669 5.3763 2.93335 5.15964 2.96669C3.03464 3.23335 1.66797 4.81669 1.66797 7.08335V12.9167C1.66797 15.2167 3.53464 17.0834 5.83464 17.0834H13.3346C15.668 17.0834 17.2763 15.625 17.4763 13.4C17.5013 13.1584 17.3013 12.9584 17.0596 12.9584ZM10.8346 8.12502H5.83464C5.49297 8.12502 5.20964 7.84169 5.20964 7.50002C5.20964 7.15835 5.49297 6.87502 5.83464 6.87502H10.8346C11.1763 6.87502 11.4596 7.15835 11.4596 7.50002C11.4596 7.84169 11.1763 8.12502 10.8346 8.12502Z" fill="#3C3D45"/>
</svg>
