<svg width="16" height="16" viewBox="0 0 16 16" fill="none" xmlns="http://www.w3.org/2000/svg">
<path d="M8 9.16669C7.72667 9.16669 7.5 8.94002 7.5 8.66669V5.16669C7.5 4.89335 7.72667 4.66669 8 4.66669C8.27333 4.66669 8.5 4.89335 8.5 5.16669V8.66669C8.5 8.94002 8.27333 9.16669 8 9.16669Z" fill="#CC9A06"/>
<path d="M7.9987 11.5C7.8187 11.5 7.65202 11.4333 7.52535 11.3067C7.46535 11.24 7.4187 11.1667 7.3787 11.0867C7.34537 11.0067 7.33203 10.92 7.33203 10.8333C7.33203 10.66 7.40535 10.4867 7.52535 10.36C7.77202 10.1133 8.22538 10.1133 8.47205 10.36C8.59205 10.4867 8.66536 10.66 8.66536 10.8333C8.66536 10.92 8.64535 11.0067 8.61202 11.0867C8.57869 11.1667 8.53205 11.24 8.47205 11.3067C8.34538 11.4333 8.1787 11.5 7.9987 11.5Z" fill="#CC9A06"/>
<path d="M8.00142 15.1667C7.55476 15.1667 7.10142 15.0533 6.70142 14.82L2.74141 12.5333C1.94141 12.0667 1.44141 11.2067 1.44141 10.28V5.72002C1.44141 4.79335 1.94141 3.93335 2.74141 3.46668L6.70142 1.18002C7.50142 0.71335 8.49477 0.71335 9.30143 1.18002L13.2614 3.46668C14.0614 3.93335 14.5614 4.79335 14.5614 5.72002V10.28C14.5614 11.2067 14.0614 12.0667 13.2614 12.5333L9.30143 14.82C8.90143 15.0533 8.44809 15.1667 8.00142 15.1667ZM8.00142 1.83334C7.72809 1.83334 7.44808 1.90668 7.20142 2.04668L3.24141 4.33334C2.74808 4.62 2.44141 5.14668 2.44141 5.72002V10.28C2.44141 10.8467 2.74808 11.38 3.24141 11.6667L7.20142 13.9533C7.69475 14.24 8.30809 14.24 8.79476 13.9533L12.7548 11.6667C13.2481 11.38 13.5548 10.8533 13.5548 10.28V5.72002C13.5548 5.15335 13.2481 4.62 12.7548 4.33334L8.79476 2.04668C8.55476 1.90668 8.27476 1.83334 8.00142 1.83334Z" fill="#CC9A06"/>
</svg>
