<svg width="20" height="20" viewBox="0 0 20 20" fill="none" xmlns="http://www.w3.org/2000/svg">
<path d="M16.25 2.5H3.75C3.41848 2.5 3.10054 2.6317 2.86612 2.86612C2.6317 3.10054 2.5 3.41848 2.5 3.75V16.25C2.5 16.5815 2.6317 16.8995 2.86612 17.1339C3.10054 17.3683 3.41848 17.5 3.75 17.5H16.25C16.5815 17.5 16.8995 17.3683 17.1339 17.1339C17.3683 16.8995 17.5 16.5815 17.5 16.25V3.75C17.5 3.41848 17.3683 3.10054 17.1339 2.86612C16.8995 2.6317 16.5815 2.5 16.25 2.5ZM16.25 16.25H3.75V3.75H16.25V16.25ZM10 5C9.01109 5 8.04439 5.29324 7.22215 5.84265C6.3999 6.39206 5.75904 7.17295 5.3806 8.08658C5.00216 9.00021 4.90315 10.0055 5.09607 10.9755C5.289 11.9454 5.7652 12.8363 6.46447 13.5355C7.16373 14.2348 8.05464 14.711 9.02455 14.9039C9.99445 15.0969 10.9998 14.9978 11.9134 14.6194C12.827 14.241 13.6079 13.6001 14.1573 12.7779C14.7068 11.9556 15 10.9889 15 10C14.9986 8.67436 14.4713 7.40343 13.5339 6.46606C12.5966 5.5287 11.3256 5.00145 10 5ZM10 13.75C9.25832 13.75 8.5333 13.5301 7.91661 13.118C7.29993 12.706 6.81928 12.1203 6.53545 11.4351C6.25162 10.7498 6.17736 9.99584 6.32206 9.26841C6.46675 8.54098 6.8239 7.8728 7.34835 7.34835C7.8728 6.8239 8.54098 6.46675 9.26841 6.32206C9.99584 6.17736 10.7498 6.25162 11.4351 6.53545C12.1203 6.81928 12.706 7.29993 13.118 7.91661C13.5301 8.5333 13.75 9.25832 13.75 10C13.749 10.9942 13.3535 11.9475 12.6505 12.6505C11.9475 13.3535 10.9942 13.749 10 13.75ZM15.625 5.3125C15.625 5.49792 15.57 5.67918 15.467 5.83335C15.364 5.98752 15.2176 6.10768 15.0463 6.17864C14.875 6.24959 14.6865 6.26816 14.5046 6.23199C14.3227 6.19581 14.1557 6.10652 14.0246 5.97541C13.8935 5.8443 13.8042 5.67725 13.768 5.4954C13.7318 5.31354 13.7504 5.12504 13.8214 4.95373C13.8923 4.78243 14.0125 4.63601 14.1667 4.533C14.3208 4.42998 14.5021 4.375 14.6875 4.375C14.9361 4.375 15.1746 4.47377 15.3504 4.64959C15.5262 4.8254 15.625 5.06386 15.625 5.3125ZM9.81719 9.19219L8.56719 10.4422C8.44991 10.5595 8.29085 10.6253 8.125 10.6253C7.95915 10.6253 7.80009 10.5595 7.68281 10.4422C7.56554 10.3249 7.49965 10.1659 7.49965 10C7.49965 9.83415 7.56554 9.67509 7.68281 9.55781L8.93281 8.30781C9.05009 8.19054 9.20915 8.12465 9.375 8.12465C9.54085 8.12465 9.69991 8.19054 9.81719 8.30781C9.93446 8.42509 10.0003 8.58415 10.0003 8.75C10.0003 8.91585 9.93446 9.07491 9.81719 9.19219ZM12.3172 8.93281C12.3753 8.99086 12.4214 9.05979 12.4529 9.13566C12.4843 9.21154 12.5005 9.29287 12.5005 9.375C12.5005 9.45713 12.4843 9.53846 12.4529 9.61434C12.4214 9.69021 12.3753 9.75914 12.3172 9.81719L9.81719 12.3172C9.75912 12.3753 9.69018 12.4213 9.61431 12.4527C9.53844 12.4842 9.45712 12.5003 9.375 12.5003C9.29288 12.5003 9.21156 12.4842 9.13569 12.4527C9.05982 12.4213 8.99088 12.3753 8.93281 12.3172C8.87474 12.2591 8.82868 12.1902 8.79725 12.1143C8.76583 12.0384 8.74965 11.9571 8.74965 11.875C8.74965 11.7929 8.76583 11.7116 8.79725 11.6357C8.82868 11.5598 8.87474 11.4909 8.93281 11.4328L11.4328 8.93281C11.4909 8.8747 11.5598 8.8286 11.6357 8.79715C11.7115 8.7657 11.7929 8.74951 11.875 8.74951C11.9571 8.74951 12.0385 8.7657 12.1143 8.79715C12.1902 8.8286 12.2591 8.8747 12.3172 8.93281Z" fill="#9D9EA2"/>
</svg>
